<svg width="18" height="18" viewBox="0 0 18 18" fill="none" xmlns="http://www.w3.org/2000/svg">
<path opacity="0.75" d="M16.1154 15.6343L16.1156 15.6341C16.3647 15.3592 16.5541 15.0664 16.6995 14.7584C16.8551 14.4289 16.9304 14.0854 16.9304 13.7475C16.9304 13.4681 16.8696 13.2232 16.778 12.9943L16.7751 12.9871L16.772 12.9801C16.6514 12.7059 16.4573 12.4868 16.2051 12.3117L13.7247 10.5507L13.7247 10.5506L13.7172 10.5455C13.5129 10.4065 13.312 10.2914 13.109 10.2083C12.897 10.1216 12.6889 10.0771 12.48 10.0771C12.2047 10.0771 11.9558 10.1549 11.7248 10.2929C11.502 10.4115 11.2899 10.5848 11.0884 10.7861C11.088 10.7865 11.0876 10.7869 11.0872 10.7872L10.5225 11.3445C10.5124 11.3443 10.5063 11.3438 10.503 11.3434C10.4904 11.3378 10.4776 11.3319 10.4628 11.3251L10.4581 11.323L10.4574 11.3227C10.4425 11.3158 10.4229 11.3068 10.4019 11.2978C10.1881 11.1822 9.89914 10.9819 9.53276 10.6719C9.14814 10.3454 8.76791 9.9874 8.3678 9.59477C7.98768 9.20719 7.63568 8.81861 7.30414 8.43556C6.99729 8.07277 6.79231 7.78736 6.67576 7.5813C6.66713 7.55892 6.65888 7.53943 6.65286 7.5252L6.65242 7.52416L6.65051 7.51964C6.64508 7.50681 6.64061 7.49625 6.63659 7.48645C6.63419 7.47371 6.63327 7.46408 6.633 7.45462L7.19344 6.87205C7.39066 6.6744 7.55886 6.46553 7.68072 6.25162C7.82207 6.01711 7.9004 5.75873 7.9004 5.49C7.9004 5.27283 7.84459 5.05533 7.76026 4.85756C7.67696 4.65485 7.56108 4.45281 7.41099 4.24417L5.67328 1.7949C5.48944 1.53026 5.25319 1.34595 4.99289 1.22522C4.74119 1.10501 4.4648 1.0471 4.1925 1.0471C3.49894 1.0471 2.8658 1.34121 2.31823 1.87885C1.87741 2.2956 1.55439 2.76903 1.34902 3.29048C1.14652 3.79719 1.0471 4.34177 1.0471 4.905C1.0471 5.75566 1.24352 6.63296 1.62259 7.53325L1.62259 7.53325L1.62315 7.53457C1.99849 8.41819 2.51139 9.30231 3.14233 10.1795L3.14386 10.1816C3.78031 11.0557 4.49274 11.8906 5.28071 12.6862L5.2838 12.6893C6.0795 13.4773 6.91419 14.1896 7.79536 14.8332L7.79592 14.8336C8.67563 15.4741 9.56776 15.9869 10.465 16.3692C11.3729 16.756 12.2509 16.9529 13.0875 16.9529C13.6695 16.9529 14.2161 16.8446 14.723 16.6335C15.2495 16.4176 15.7083 16.0829 16.1154 15.6343Z" stroke="#001D4C" stroke-width="0.905805"/>
</svg>
