<svg width="95" height="96" viewBox="0 0 95 96" fill="none" xmlns="http://www.w3.org/2000/svg">
<path d="M83.8822 81.5589C81.9426 83.6011 80.107 84.9181 78.657 85.9585C61.6112 98.1891 41.4413 94.624 37.1544 93.7532C30.8243 92.4674 18.5882 89.9824 9.74191 79.5792C-3.64178 63.8401 -1.55787 39.0436 8.82365 22.6751C10.7226 19.6811 20.7533 3.06311 41.1403 0.398253C53.4785 -1.21464 67.8605 2.0383 78.276 10.7642C100.138 29.0812 98.5819 66.0835 83.8822 81.5589Z" fill="url(#paint0_linear_3_4699)"/>
<path d="M82.9003 28.8196C82.8877 28.4592 82.3454 28.1694 81.6803 28.1694H41.3474C40.6734 28.1694 39.9578 28.4684 39.9578 28.8335V79.8541C39.9578 80.1266 40.2428 80.3882 40.5988 80.5806C40.9551 80.773 41.4801 80.8809 41.9833 80.8803L82.7581 80.8199C83.2654 80.8192 83.7615 80.7079 84.1165 80.5114C84.4714 80.3149 84.6713 80.0485 84.6618 79.7737L82.9003 28.8196Z" fill="#91B3FA"/>
<g opacity="0.63">
<path d="M59.7374 31.7851L46.5437 31.7603L46.5485 30.8655L59.7275 30.8879L59.7374 31.7851Z" fill="white"/>
<path d="M59.7737 35.0808L46.5254 35.0479L46.5305 34.1459L59.7638 34.1764L59.7737 35.0808Z" fill="white"/>
<path d="M59.8102 38.4036L46.5073 38.3629L46.5121 37.4531L59.8001 37.4918L59.8102 38.4036Z" fill="white"/>
<path d="M59.8469 41.7543L46.489 41.7051L46.4938 40.7878L59.8367 40.835L59.8469 41.7543Z" fill="white"/>
<path d="M59.884 45.1328L46.4705 45.0751L46.4755 44.1504L59.8738 44.2057L59.884 45.1328Z" fill="white"/>
<path d="M59.9588 51.975L46.4326 51.9L46.438 50.9597L59.9487 51.0323L59.9588 51.975Z" fill="white"/>
<path d="M60.0738 62.4566L46.3752 62.3548L46.3807 61.3904L60.0633 61.4898L60.0738 62.4566Z" fill="white"/>
<path d="M59.9212 48.5395L46.4517 48.4733L46.4568 47.5408L59.911 47.6046L59.9212 48.5395Z" fill="white"/>
<path d="M59.997 55.4393L46.4138 55.3555L46.4192 54.4073L59.9869 54.4888L59.997 55.4393Z" fill="white"/>
<path d="M60.0353 58.9333L46.3948 58.8403L46.3999 57.884L60.0252 57.9743L60.0353 58.9333Z" fill="white"/>
<path d="M60.113 66.0103L46.3557 65.8989L46.3611 64.9264L60.1025 65.035L60.113 66.0103Z" fill="white"/>
<path d="M60.1524 69.5944L46.3364 69.4736L46.3415 68.4926L60.1419 68.6106L60.1524 69.5944Z" fill="white"/>
<path d="M60.1921 73.2094L46.3164 73.0791L46.3218 72.0896L60.1813 72.2172L60.1921 73.2094Z" fill="white"/>
<path d="M60.2319 76.8556L46.2961 76.7154L46.3016 75.7174L60.2211 75.8548L60.2319 76.8556Z" fill="white"/>
<path d="M77.0357 31.8174L63.7589 31.7926L63.7446 30.895L77.0065 30.9178L77.0357 31.8174Z" fill="white"/>
<path d="M77.1431 35.1235L63.8117 35.0906L63.7971 34.1855L77.1136 34.2164L77.1431 35.1235Z" fill="white"/>
<path d="M77.2517 38.4572L63.8649 38.4162L63.8503 37.5037L77.2222 37.5423L77.2517 38.4572Z" fill="white"/>
<path d="M77.3615 41.8187L63.9187 41.7692L63.9038 40.8492L77.3316 40.8964L77.3615 41.8187Z" fill="white"/>
<path d="M77.4718 45.2084L63.9727 45.1504L63.9578 44.2227L77.4416 44.2783L77.4718 45.2084Z" fill="white"/>
<path d="M77.6953 52.073L64.0822 51.9977L64.0669 51.0543L77.6647 51.1273L77.6953 52.073Z" fill="white"/>
<path d="M78.0381 62.5903L64.2499 62.4875L64.2346 61.52L78.0065 61.6198L78.0381 62.5903Z" fill="white"/>
<path d="M77.5835 48.6263L64.0274 48.5598L64.0125 47.6243L77.5526 47.6884L77.5835 48.6263Z" fill="white"/>
<path d="M77.8087 55.5493L64.1376 55.4649L64.1223 54.5137L77.7778 54.5955L77.8087 55.5493Z" fill="white"/>
<path d="M77.923 59.0547L64.1935 58.9614L64.1782 58.0021L77.8914 58.0927L77.923 59.0547Z" fill="white"/>
<path d="M78.1541 66.1558L64.3069 66.0442L64.2913 65.0682L78.1222 65.1775L78.1541 66.1558Z" fill="white"/>
<path d="M78.2712 69.7525L64.3642 69.631L64.3486 68.6466L78.2393 68.7654L78.2712 69.7525Z" fill="white"/>
<path d="M78.3896 73.38L64.4222 73.249L64.4062 72.2561L78.357 72.3844L78.3896 73.38Z" fill="white"/>
<path d="M78.5087 77.0392L64.4807 76.8983L64.4644 75.8966L78.4758 76.0351L78.5087 77.0392Z" fill="white"/>
</g>
<path d="M50.0738 17.175C50.0609 16.478 49.4959 15.9042 48.8033 15.9042H22.6288C21.927 15.9042 21.2378 16.5079 21.2378 17.2144V80.3729C21.2378 80.7129 21.4322 81.0387 21.6715 81.2789C21.9107 81.5189 22.2646 81.6532 22.6023 81.6526L49.9693 81.5772C50.31 81.5762 50.6432 81.4378 50.8814 81.1927C51.1197 80.9477 51.254 80.6091 51.2476 80.266L50.0738 17.175Z" fill="#BDD0FB"/>
<g opacity="0.5">
<path d="M30.7975 23.3466L23.3411 23.3368L23.2817 19.4883H30.7456L30.7975 23.3466Z" fill="white"/>
<path d="M39.1554 23.3449L31.7065 23.3347L31.6553 19.4883H39.1117L39.1554 23.3449Z" fill="white"/>
<path d="M47.5051 23.3429L40.0636 23.3327L40.0205 19.4883H47.4694L47.5051 23.3429Z" fill="white"/>
<path d="M30.8907 30.2547L23.4472 30.2594L23.3882 26.436L30.8388 26.433L30.8907 30.2547Z" fill="white"/>
<path d="M39.2342 30.2492L31.7982 30.254L31.7473 26.4326L39.1905 26.4296L39.2342 30.2492Z" fill="white"/>
<path d="M47.569 30.2438L40.1404 30.2485L40.0977 26.4292L47.5333 26.4261L47.569 30.2438Z" fill="white"/>
<path d="M30.9838 37.1153L23.5528 37.1231L23.4941 33.313L30.9322 33.3069L30.9838 37.1153Z" fill="white"/>
<path d="M39.3124 37.1063L31.8893 37.1141L31.8384 33.306L39.269 33.2996L39.3124 37.1063Z" fill="white"/>
<path d="M47.6329 37.0976L40.2172 37.1054L40.1748 33.299L47.5976 33.2928L47.6329 37.0976Z" fill="white"/>
<path d="M31.0762 43.9516L23.6585 43.9624L23.6001 40.1655L31.0249 40.1564L31.0762 43.9516Z" fill="white"/>
<path d="M39.3907 43.9393L31.9805 43.9502L31.9299 40.1553L39.3473 40.1461L39.3907 43.9393Z" fill="white"/>
<path d="M47.6967 43.9271L40.294 43.938L40.2512 40.1448L47.6615 40.1356L47.6967 43.9271Z" fill="white"/>
<path d="M31.1682 50.7645L23.7634 50.7784L23.7051 46.9948L31.117 46.9825L31.1682 50.7645Z" fill="white"/>
<path d="M39.4682 50.7489L32.0708 50.7628L32.0203 46.9808L39.4251 46.9686L39.4682 50.7489Z" fill="white"/>
<path d="M47.7602 50.7333L40.37 50.7472L40.3279 46.9673L47.7249 46.9551L47.7602 50.7333Z" fill="white"/>
<path d="M31.2601 57.5541L23.8678 57.5711L23.8098 53.8003L31.2089 53.785L31.2601 57.5541Z" fill="white"/>
<path d="M39.5461 57.5351L32.1613 57.5521L32.1111 53.783L39.503 53.7681L39.5461 57.5351Z" fill="white"/>
<path d="M47.8232 57.5161L40.4459 57.533L40.4038 53.766L47.7883 53.7507L47.8232 57.5161Z" fill="white"/>
<path d="M31.3517 64.3203L23.9723 64.34L23.9143 60.5824L31.3008 60.5641L31.3517 64.3203Z" fill="white"/>
<path d="M39.6229 64.2979L32.2511 64.3175L32.2012 60.5617L39.5802 60.5437L39.6229 64.2979Z" fill="white"/>
<path d="M47.8863 64.2754L40.5216 64.2954L40.4795 60.5413L47.8514 60.5233L47.8863 64.2754Z" fill="white"/>
<path d="M31.4433 71.063L24.0765 71.0857L24.0188 67.3411L31.3924 67.3197L31.4433 71.063Z" fill="white"/>
<path d="M39.7001 71.0373L32.3411 71.0603L32.2913 67.3174L39.6574 67.296L39.7001 71.0373Z" fill="white"/>
<path d="M47.9491 71.0118L40.5973 71.0345L40.5552 67.2936L47.9142 67.2722L47.9491 71.0118Z" fill="white"/>
<path d="M31.5342 77.7826L24.1802 77.8084L24.1226 74.0763L31.4836 74.0522L31.5342 77.7826Z" fill="white"/>
<path d="M39.7772 77.7539L32.4304 77.7796L32.3809 74.0492L39.7344 74.0251L39.7772 77.7539Z" fill="white"/>
<path d="M48.0117 77.7249L40.6724 77.7504L40.6306 74.0224L47.9771 73.9983L48.0117 77.7249Z" fill="white"/>
</g>
<path d="M31.7174 37.3408C31.7035 36.8671 31.1015 36.4772 30.3634 36.4772H2.4677C1.71979 36.4772 0.985107 36.8874 0.985107 37.3676V80.286C0.985107 80.5171 1.19245 80.7384 1.44729 80.9016C1.70214 81.0648 2.07949 81.1561 2.43919 81.1554L31.6057 81.1042C31.9688 81.1035 32.3241 81.0095 32.5779 80.8429C32.8318 80.6763 32.975 80.4462 32.9682 80.213L31.7174 37.3408Z" fill="#BDD0FB"/>
<g opacity="0.5">
<path d="M11.1737 41.5348L3.22694 41.528L3.16382 38.9127H11.1184L11.1737 41.5348Z" fill="white"/>
<path d="M20.0811 41.5335L12.1422 41.5267L12.0879 38.9127H20.0346L20.0811 41.5335Z" fill="white"/>
<path d="M28.9795 41.5321L21.0487 41.5253L21.0029 38.9127H28.9415L28.9795 41.5321Z" fill="white"/>
<path d="M11.273 46.2292L3.33988 46.2326L3.2771 43.6342L11.2177 43.6322L11.273 46.2292Z" fill="white"/>
<path d="M20.1649 46.2252L12.2398 46.2285L12.1855 43.6316L20.1184 43.6295L20.1649 46.2252Z" fill="white"/>
<path d="M29.0481 46.2215L21.1309 46.2249L21.0854 43.6292L29.0101 43.6272L29.0481 46.2215Z" fill="white"/>
<path d="M11.3718 50.8909L3.45258 50.896L3.39014 48.3071L11.3172 48.3027L11.3718 50.8909Z" fill="white"/>
<path d="M20.2483 50.8847L12.3372 50.8901L12.2832 48.3023L20.2021 48.2982L20.2483 50.8847Z" fill="white"/>
<path d="M29.116 50.8786L21.2127 50.884L21.1672 48.2975L29.0783 48.2935L29.116 50.8786Z" fill="white"/>
<path d="M11.4705 55.5365L3.56513 55.544L3.50269 52.964L11.4158 52.9575L11.4705 55.5365Z" fill="white"/>
<path d="M20.3319 55.528L12.4343 55.5354L12.3804 52.9568L20.2857 52.9503L20.3319 55.528Z" fill="white"/>
<path d="M29.1839 55.5198L21.2942 55.5272L21.249 52.9496L29.1462 52.9435L29.1839 55.5198Z" fill="white"/>
<path d="M11.5689 60.1663L3.67719 60.1758L3.61475 57.6046L11.5143 57.5961L11.5689 60.1663Z" fill="white"/>
<path d="M20.4146 60.1555L12.5307 60.165L12.4771 57.5948L20.3685 57.5867L20.4146 60.1555Z" fill="white"/>
<path d="M29.2518 60.1447L21.3757 60.1542L21.3306 57.5858L29.2142 57.5773L29.2518 60.1447Z" fill="white"/>
<path d="M11.667 64.78L3.78915 64.7915L3.72705 62.2291L11.6127 62.2186L11.667 64.78Z" fill="white"/>
<path d="M20.4974 64.7669L12.627 64.7785L12.5737 62.2174L20.4512 62.2069L20.4974 64.7669Z" fill="white"/>
<path d="M29.319 64.754L21.4568 64.7655L21.4116 62.2055L29.2817 62.1953L29.319 64.754Z" fill="white"/>
<path d="M11.7643 69.3775L3.89965 69.3911L3.83789 66.8375L11.71 66.825L11.7643 69.3775Z" fill="white"/>
<path d="M20.5794 69.3622L12.723 69.3758L12.6697 66.8236L20.5339 66.811L20.5794 69.3622Z" fill="white"/>
<path d="M29.386 69.3473L21.537 69.3605L21.4922 66.8097L29.3487 66.7971L29.386 69.3473Z" fill="white"/>
<path d="M11.8619 73.9594L4.01088 73.975L3.94946 71.4303L11.8076 71.416L11.8619 73.9594Z" fill="white"/>
<path d="M20.6616 73.942L12.8187 73.9576L12.7654 71.4139L20.6161 71.3997L20.6616 73.942Z" fill="white"/>
<path d="M29.4529 73.9248L21.6175 73.94L21.573 71.398L29.4159 71.3834L29.4529 73.9248Z" fill="white"/>
<path d="M11.9586 78.5256L4.12114 78.5433L4.06006 76.0074L11.905 75.9907L11.9586 78.5256Z" fill="white"/>
<path d="M20.7434 78.5058L12.9138 78.5235L12.8608 75.9889L20.698 75.9723L20.7434 78.5058Z" fill="white"/>
<path d="M29.52 78.4865L21.6981 78.5038L21.6533 75.9703L29.483 75.954L29.52 78.4865Z" fill="white"/>
</g>
<path d="M92.6038 22.0107C92.5919 21.371 92.0734 20.8447 91.4382 20.8447H67.4198C66.7757 20.8447 66.1436 21.3985 66.1436 22.047V80.0031C66.1436 80.3149 66.322 80.6142 66.5413 80.8345C66.7605 81.0547 67.0856 81.1779 67.3954 81.1772L92.5081 81.1083C92.8207 81.1073 93.1264 80.9804 93.3453 80.7554C93.5638 80.5304 93.687 80.2196 93.6812 79.905L92.6038 22.0107Z" fill="#7D97F4"/>
<g opacity="0.5">
<path d="M74.9155 27.674L68.0733 27.6648L68.019 24.1333H74.868L74.9155 27.674Z" fill="white"/>
<path d="M82.5851 27.6723L75.7497 27.6631L75.7029 24.1333H82.545L82.5851 27.6723Z" fill="white"/>
<path d="M90.2466 27.6706L83.418 27.6611L83.3787 24.1333H90.214L90.2466 27.6706Z" fill="white"/>
<path d="M75.001 34.0129L68.1708 34.0173L68.1165 30.5088L74.9535 30.5061L75.001 34.0129Z" fill="white"/>
<path d="M82.6572 34.0078L75.8334 34.0122L75.7869 30.5057L82.6172 30.5027L82.6572 34.0078Z" fill="white"/>
<path d="M90.3058 34.003L83.4891 34.0074L83.4497 30.5023L90.2729 30.4996L90.3058 34.003Z" fill="white"/>
<path d="M75.0862 40.3082L68.2678 40.3153L68.2139 36.819L75.0391 36.8136L75.0862 40.3082Z" fill="white"/>
<path d="M82.7291 40.2999L75.9171 40.307L75.8706 36.8128L82.689 36.807L82.7291 40.2999Z" fill="white"/>
<path d="M90.3641 40.2917L83.5593 40.2992L83.5203 36.8063L90.3316 36.8005L90.3641 40.2917Z" fill="white"/>
<path d="M75.1709 46.5816L68.3644 46.5914L68.3108 43.1074L75.1238 43.0989L75.1709 46.5816Z" fill="white"/>
<path d="M82.8008 46.5703L76.0007 46.5802L75.9546 43.0978L82.7608 43.0894L82.8008 46.5703Z" fill="white"/>
<path d="M90.4226 46.559L83.6296 46.5689L83.5906 43.0882L90.3903 43.0801L90.4226 46.559Z" fill="white"/>
<path d="M75.2558 52.8331L68.4608 52.846L68.4072 49.3739L75.2087 49.3627L75.2558 52.8331Z" fill="white"/>
<path d="M82.8722 52.819L76.084 52.8319L76.0378 49.3614L82.8325 49.3502L82.8722 52.819Z" fill="white"/>
<path d="M90.4808 52.8047L83.6993 52.8173L83.6606 49.3488L90.4485 49.3376L90.4808 52.8047Z" fill="white"/>
<path d="M75.3401 59.0636L68.5569 59.0788L68.5037 55.6189L75.2932 55.605L75.3401 59.0636Z" fill="white"/>
<path d="M82.9433 59.0459L76.167 59.0615L76.1208 55.6033L82.9036 55.5894L82.9433 59.0459Z" fill="white"/>
<path d="M90.539 59.0286L83.7694 59.0442L83.7307 55.5876L90.5067 55.5734L90.539 59.0286Z" fill="white"/>
<path d="M75.4241 65.2721L68.6525 65.2905L68.5996 61.8421L75.3773 61.8254L75.4241 65.2721Z" fill="white"/>
<path d="M83.0142 65.2518L76.2494 65.2698L76.2036 61.8234L82.9749 61.8068L83.0142 65.2518Z" fill="white"/>
<path d="M90.5964 65.2314L83.8387 65.2494L83.8 61.8047L90.5645 61.7881L90.5964 65.2314Z" fill="white"/>
<path d="M75.508 71.4594L68.7482 71.4804L68.6953 68.0442L75.4615 68.0245L75.508 71.4594Z" fill="white"/>
<path d="M83.0849 71.4359L76.3319 71.457L76.2861 68.0225L83.0455 68.0028L83.0849 71.4359Z" fill="white"/>
<path d="M90.6542 71.4125L83.9081 71.4336L83.8694 68.0004L90.6223 67.9811L90.6542 71.4125Z" fill="white"/>
<path d="M75.5916 77.6256L68.8435 77.6493L68.7905 74.2247L75.5451 74.2026L75.5916 77.6256Z" fill="white"/>
<path d="M83.1554 77.5991L76.414 77.6229L76.3682 74.1999L83.116 74.1779L83.1554 77.5991Z" fill="white"/>
<path d="M90.7117 77.5726L83.9771 77.5964L83.9387 74.1751L90.6798 74.1531L90.7117 77.5726Z" fill="white"/>
</g>
<path d="M21.4 47.8007C22.0912 46.3606 22.5856 44.8529 22.701 43.2115C22.9915 39.0752 20.5872 35.2664 18.821 31.7054C17.1975 28.4324 15.9908 23.5554 21.4689 23.9894C25.8331 24.3352 30.9637 28.6842 31.549 33.2195C32.2416 38.5869 29.6287 45.3558 32.7269 50.2314C37.061 57.0522 40.1873 55.4892 40.1873 66.9994C40.1873 71.9175 37.4631 74.6305 34.3428 76.125C29.4176 78.4834 23.545 77.5306 19.6211 73.733C16.1544 70.3779 14.0932 65.5552 14.7902 60.7131C15.494 55.8225 19.3296 52.1138 21.4 47.8007Z" fill="#7D97F4"/>
<path d="M25.0614 84.8271C25.0475 84.8271 25.0336 84.8254 25.0193 84.822C24.927 84.799 24.871 84.7053 24.8941 84.6133C31.0186 60.1671 29.6137 45.6072 27.3567 37.6978C24.9152 29.142 20.9805 26.32 20.9411 26.2925C20.8631 26.2382 20.8441 26.131 20.8984 26.0529C20.9527 25.9749 21.0599 25.9555 21.1376 26.0098C21.3022 26.1238 25.1948 28.9048 27.6747 37.5573C29.1261 42.6213 29.781 48.6562 29.6212 55.4947C29.4213 64.0336 27.9435 73.8585 25.228 84.6968C25.2087 84.7752 25.1388 84.8271 25.0614 84.8271Z" fill="#91B3FA"/>
<path d="M17.0511 35.6666C17.2621 35.6092 17.4939 35.5916 17.7406 35.6197C19.1058 35.7769 19.6664 37.2163 20.0675 38.3419C20.4109 39.306 20.8157 40.4761 20.6128 41.5202C20.3936 42.6492 19.1943 43.5702 18.3243 42.4239C17.3354 41.1208 15.8511 39.1201 15.8423 37.3935C15.8382 36.5356 16.3201 35.8647 17.0511 35.6666Z" fill="#91B3FA"/>
<path d="M3.57067 62.1967C3.01211 58.5179 4.34946 54.2944 5.01661 50.4042C5.36953 48.3474 5.53275 46.3059 5.20223 44.2339C4.87375 42.1737 3.9056 39.9453 4.79841 37.8926C6.59693 33.757 10.8727 35.639 13.322 38.7525C16.164 42.3651 16.9411 48.2687 18.0206 52.8145C18.6714 55.555 19.6518 58.3658 19.9949 61.1586C20.5636 65.7849 19.5174 68.9968 17.3046 71.1655C15.182 73.246 11.9494 73.6773 9.35274 72.2314C7.00652 70.9246 4.47129 68.1314 3.57067 62.1967Z" fill="#91B3FA"/>
<path d="M13.3523 79.2962C13.3428 79.2962 13.3333 79.2955 13.3234 79.2938C13.2298 79.2779 13.1667 79.1893 13.1823 79.0953C13.1918 79.0396 14.1175 73.45 14.1413 65.7326C14.163 58.6153 13.4005 48.1805 9.64225 38.8876C9.60662 38.7993 9.64904 38.6989 9.73727 38.6632C9.82584 38.6276 9.92594 38.67 9.96157 38.7583C13.7415 48.1048 14.5084 58.5901 14.4857 65.7401C14.4613 73.4846 13.5315 79.0966 13.522 79.1523C13.5074 79.2368 13.4347 79.2962 13.3523 79.2962Z" fill="#91B3FA"/>
<path d="M90.8772 72.5046V77.1709C90.8772 78.0247 91.0937 78.7176 91.9604 78.739V70.9362C91.0937 70.9579 90.8772 71.6512 90.8772 72.5046Z" fill="url(#paint1_linear_3_4699)"/>
<path d="M8.01881 66.393H10.6711C12.2107 66.393 13.6875 65.8347 14.7762 64.7461L23.6147 55.8265C24.7033 54.7379 26.1801 54.0453 27.7197 54.0453H60.8674C62.9181 54.0453 64.8163 55.2347 65.8619 56.9989L69.8746 63.8241C70.8974 65.55 72.739 66.6526 74.7448 66.6957L87.0389 66.9773C90.1961 67.0448 92.5016 69.6371 92.5016 72.795V83.0289C92.5016 83.8712 92.256 84.6992 91.4137 84.6992H3.738C2.89575 84.6992 2.1665 83.8712 2.1665 83.0289V72.306C2.1665 69.0989 4.81236 66.393 8.01881 66.393Z" fill="url(#paint2_linear_3_4699)"/>
<path d="M92.9438 78.9575C93.786 78.9575 94.3432 79.8809 94.3432 80.7231V83.9462C94.3432 84.7885 93.786 85.3484 92.9438 85.3484H77.3374V78.9579H92.9438V78.9575Z" fill="url(#paint3_linear_3_4699)"/>
<path d="M1.59617 78.9575C0.753925 78.9575 0.000244141 79.8809 0.000244141 80.7231V83.9462C0.000244141 84.7885 0.753925 85.3484 1.59617 85.3484H17.3308V78.9579H1.59617V78.9575Z" fill="url(#paint4_linear_3_4699)"/>
<path d="M37.3773 51.1277C37.5741 50.4883 38.166 50.0374 38.8348 50.0374C42.2143 50.0374 45.5938 50.0374 48.9734 50.0374C49.6429 50.0374 50.2337 50.4877 50.4308 51.1277C50.7288 52.0951 51.0271 53.3952 51.325 54.045C46.3774 54.045 41.4301 54.045 36.4832 54.045C36.7811 53.3952 37.0794 52.0951 37.3773 51.1277Z" fill="url(#paint5_linear_3_4699)"/>
<path d="M44.3359 56.8612H60.393C60.9352 56.8612 61.4368 57.1493 61.7099 57.6176L66.4903 65.812C66.5544 65.922 66.5548 66.0808 66.4913 66.1914C66.4278 66.3017 66.3104 66.393 66.1832 66.393H44.3359C44.1394 66.393 44.0845 66.1877 44.0845 65.9912V57.2165C44.0848 57.0204 44.1398 56.8612 44.3359 56.8612Z" fill="url(#paint6_linear_3_4699)"/>
<path d="M18.8727 66.0577L27.6375 57.2928C27.9141 57.0163 28.2891 56.8612 28.68 56.8612H40.5655C40.762 56.8612 41.0521 57.0204 41.0521 57.2165V65.9926C41.0521 66.1884 40.8281 66.3475 40.6323 66.3479L19.0569 66.4215C18.9707 66.4219 18.8764 66.3699 18.8431 66.2902C18.8099 66.2104 18.8116 66.1188 18.8727 66.0577Z" fill="url(#paint7_linear_3_4699)"/>
<path d="M50.415 73.2423H49.1628V72.5704H52.483V73.2423H51.2176V76.9666H50.4154V73.2423H50.415Z" fill="url(#paint8_linear_3_4699)"/>
<path d="M53.4023 75.7209L53.0239 76.9666H52.1956L53.6045 72.5704H54.6286L56.0569 76.9666H55.196L54.7983 75.7209H53.4023ZM54.6612 75.1145L54.3154 74.0316C54.2306 73.7642 54.159 73.4643 54.0938 73.2098H54.0806C54.0155 73.4643 53.9503 73.7707 53.8719 74.0316L53.5329 75.1145H54.6612Z" fill="url(#paint9_linear_3_4699)"/>
<path d="M58.8945 76.967L58.4184 76.0928C58.2294 75.7538 58.1052 75.519 57.9814 75.2645H57.9617C57.8572 75.519 57.7397 75.7538 57.564 76.0928L57.1269 76.967H56.2073L57.5117 74.7426L56.2595 72.5704H57.1795L57.6556 73.4772C57.7991 73.751 57.9033 73.9662 58.0211 74.2142H58.034C58.1514 73.9404 58.2427 73.7446 58.3797 73.4772L58.8494 72.5704H59.769L58.4843 74.7164L59.8216 76.9666H58.8945V76.967Z" fill="url(#paint10_linear_3_4699)"/>
<path d="M61.2168 72.5704V76.9666H60.4146V72.5704H61.2168Z" fill="url(#paint11_linear_3_4699)"/>
<path d="M49.284 68.2753C49.284 68.0134 49.0716 67.8013 48.8099 67.8013H44.7758C44.5138 67.8013 44.3018 68.0137 44.3018 68.2753V68.3018C44.3018 68.5638 44.5142 68.7759 44.7758 68.7759H48.8099C49.0719 68.7759 49.284 68.5634 49.284 68.3018V68.2753Z" fill="url(#paint12_linear_3_4699)"/>
<path d="M25.6712 68.2753C25.6712 68.0134 25.4588 67.8013 25.1971 67.8013H21.163C20.9011 67.8013 20.689 68.0137 20.689 68.2753V68.3018C20.689 68.5638 20.9014 68.7759 21.163 68.7759H25.1971C25.4591 68.7759 25.6712 68.5634 25.6712 68.3018V68.2753Z" fill="url(#paint13_linear_3_4699)"/>
<path d="M69.9724 84.3985C69.9724 83.9061 69.5734 83.5067 69.0806 83.5067H26.7795C26.2871 83.5067 25.8877 83.9061 25.8877 84.3985V84.5648C25.8877 85.0572 26.2871 85.4566 26.7795 85.4566H69.0806C69.573 85.4566 69.9724 85.0575 69.9724 84.5648V84.3985Z" fill="url(#paint14_linear_3_4699)"/>
<path d="M71.9786 91.5142C75.8232 91.5142 78.9399 88.3976 78.9399 84.553C78.9399 80.7083 75.8232 77.5917 71.9786 77.5917C68.134 77.5917 65.0173 80.7083 65.0173 84.553C65.0173 88.3976 68.134 91.5142 71.9786 91.5142Z" fill="url(#paint15_linear_3_4699)"/>
<path opacity="0.38" d="M71.9786 89.7293C74.8374 89.7293 77.1549 87.4117 77.1549 84.5529C77.1549 81.6941 74.8374 79.3766 71.9786 79.3766C69.1198 79.3766 66.8022 81.6941 66.8022 84.5529C66.8022 87.4117 69.1198 89.7293 71.9786 89.7293Z" fill="url(#paint16_linear_3_4699)"/>
<path d="M21.3377 91.5142C25.1824 91.5142 28.299 88.3976 28.299 84.553C28.299 80.7083 25.1824 77.5917 21.3377 77.5917C17.4931 77.5917 14.3765 80.7083 14.3765 84.553C14.3765 88.3976 17.4931 91.5142 21.3377 91.5142Z" fill="url(#paint17_linear_3_4699)"/>
<path opacity="0.54" d="M21.3377 89.7293C24.1965 89.7293 26.5141 87.4117 26.5141 84.5529C26.5141 81.6941 24.1965 79.3766 21.3377 79.3766C18.4789 79.3766 16.1614 81.6941 16.1614 84.5529C16.1614 87.4117 18.4789 89.7293 21.3377 89.7293Z" fill="url(#paint18_linear_3_4699)"/>
<path opacity="0.76" d="M42.6767 67.5845H42.2434V82.3153H42.6767V67.5845Z" fill="white"/>
<path d="M3.59005 71.592C4.60401 71.592 5.19921 72.3705 5.19921 73.3845V76.9034C5.19921 77.9174 4.60401 78.741 3.59005 78.741H2.1665V71.592H3.59005Z" fill="url(#paint19_linear_3_4699)"/>
<path opacity="0.6" d="M69.2139 66.2084C69.2139 65.8914 68.957 65.6345 68.6401 65.6345H68.3795C68.0625 65.6345 67.8057 65.8914 67.8057 66.2084V67.2271C67.8057 67.544 68.0625 67.8009 68.3795 67.8009H68.6401C68.957 67.8009 69.2139 67.544 69.2139 67.2271V66.2084Z" fill="white"/>
<path d="M69.214 66.8888C69.214 66.0768 68.5557 65.4181 67.7433 65.4181H63.8609C63.0488 65.4181 62.3901 66.0764 62.3901 66.8888V66.9804C62.3901 67.7925 63.0485 68.4511 63.8609 68.4511H67.7436C68.5557 68.4511 69.2143 67.7928 69.2143 66.9804V66.8888H69.214Z" fill="url(#paint20_linear_3_4699)"/>
<path opacity="0.76" d="M21.7941 76.8526C21.727 76.8526 21.6608 76.8214 21.6184 76.7627L18.8609 72.942C18.0149 71.8028 17.5476 70.5025 17.5476 69.2832V67.801C17.5476 67.6812 17.6447 67.5845 17.7641 67.5845C17.8839 67.5845 17.9806 67.6815 17.9806 67.801V69.2832C17.9806 70.4102 18.4173 71.6189 19.21 72.6862L21.9692 76.5092C22.0392 76.6062 22.0174 76.7416 21.9204 76.8115C21.8824 76.8394 21.8379 76.8526 21.7941 76.8526Z" fill="white"/>
<path d="M61.6321 78.1995H48.6342C48.5144 78.1995 48.4177 78.1024 48.4177 77.983C48.4177 77.8632 48.5148 77.7665 48.6342 77.7665H61.6321C61.7519 77.7665 61.8486 77.8635 61.8486 77.983C61.8486 78.1024 61.7515 78.1995 61.6321 78.1995Z" fill="url(#paint21_linear_3_4699)"/>
<path d="M61.6321 71.809H48.6342C48.5144 71.809 48.4177 71.7119 48.4177 71.5925C48.4177 71.4727 48.5148 71.376 48.6342 71.376H61.6321C61.7519 71.376 61.8486 71.473 61.8486 71.5925C61.8486 71.7119 61.7515 71.809 61.6321 71.809Z" fill="url(#paint22_linear_3_4699)"/>
<path d="M90.8772 72.5045V77.1708C90.8772 78.0246 91.3265 78.7406 92.1738 78.7406H92.2885C93.1545 78.7406 93.9099 78.0365 93.9099 77.1708V72.5045C93.9099 71.6385 93.1545 71.1587 92.2885 71.1587H92.1738C91.3261 71.1587 90.8772 71.6511 90.8772 72.5045Z" fill="url(#paint23_linear_3_4699)"/>
<path d="M23.0288 5.81586L21.1146 4.73234C21.0752 4.70994 21.0288 4.70383 20.985 4.71435L18.575 5.30922C18.5102 5.32517 18.4596 5.37641 18.4447 5.44157C18.4297 5.50672 18.4528 5.57493 18.5044 5.61769L20.0124 6.8685L23.0288 5.81586Z" fill="#91B3FA"/>
<path d="M6.93112 8.61441C6.93112 8.61441 29.417 3.65457 30.3118 3.90229C31.2067 4.15001 32.824 5.0245 33.2896 5.00753C33.7552 4.9909 35.3955 5.21148 35.0182 6.39103C34.6408 7.57059 16.0024 11.8789 13.7865 11.2124C11.5706 10.5459 5.97824 9.34841 5.97824 9.34841C5.97824 9.34841 5.43733 8.57504 6.93112 8.61441Z" fill="#7D97F4"/>
<path d="M13.4431 7.26212L10.1131 5.57932C9.90445 5.47379 9.72935 5.31192 9.6082 5.11171L8.19653 2.78313C8.08455 2.59853 7.86534 2.5086 7.65596 2.56154C6.9861 2.73087 5.59751 3.1011 5.59717 3.26059C5.59649 3.4703 6.48862 8.70365 6.48862 8.70365L13.4431 7.26212Z" fill="#7D97F4"/>
<path d="M7.17233 9.35961L6.94497 10.4794C6.90663 10.6685 6.95685 10.8571 7.08139 11.0041C7.20593 11.151 7.39087 11.2257 7.58362 11.2185L8.73501 11.1771C8.9169 11.1707 9.08725 11.093 9.2016 10.9518L11.1647 8.53162L7.17233 9.35961Z" fill="#91B3FA"/>
<path d="M19.1808 12.6C19.1808 12.6 19.91 13.4307 21.0455 13.3897C22.1806 13.3489 23.5668 12.9841 23.8142 12.5729C24.0615 12.1616 24.5136 9.17434 22.2237 9.68437C19.9338 10.1944 17.2923 11.6359 19.1808 12.6Z" fill="#7D97F4"/>
<path d="M17.7783 9.58185L23.1233 8.43555L18.8208 14.4083C18.7604 14.4921 18.6678 14.5468 18.5653 14.559L15.3524 14.9482C15.2132 14.9652 15.0768 14.9017 14.9995 14.785C14.9224 14.6679 14.918 14.5176 14.9883 14.3964L17.7783 9.58185Z" fill="#91B3FA"/>
<path d="M23.5214 12.6655C23.5353 12.6679 23.5489 12.6679 23.5618 12.6658C23.6334 12.6536 23.7026 12.5763 23.7681 12.4361C23.9778 11.9851 24.0861 11.0319 23.6701 10.3257C23.5469 10.1167 23.3287 9.98741 23.0864 9.97961C22.8872 9.9735 22.6361 10.042 22.5692 10.4038C22.4644 10.9708 23.0528 12.2464 23.3708 12.5691C23.4268 12.6261 23.4763 12.658 23.5214 12.6655ZM23.1648 10.0858C23.3385 10.1157 23.495 10.2219 23.5852 10.3753C23.9785 11.0434 23.8737 11.9753 23.6789 12.3944C23.6226 12.5159 23.5717 12.5644 23.5452 12.5688C23.5418 12.5695 23.5112 12.5722 23.4403 12.4999C23.1095 12.1643 22.573 10.9223 22.6653 10.4211C22.7094 10.1825 22.8458 10.0699 23.0827 10.0773C23.1108 10.0784 23.138 10.0814 23.1648 10.0858Z" fill="#91B3FA"/>
<path d="M5.77368 4.50366L6.33258 4.48364L6.9848 8.03249L6.40249 8.19097L5.77368 4.50366Z" fill="#91B3FA"/>
<path d="M15.115 8.46373C15.1082 8.2798 15.2521 8.1254 15.436 8.11895L15.457 8.11827C15.641 8.11149 15.7954 8.25537 15.8018 8.43929L15.8096 8.65681C15.8164 8.84074 15.6725 8.99514 15.4886 9.00158L15.4676 9.00226C15.2836 9.00905 15.1292 8.86517 15.1228 8.68124L15.115 8.46373Z" fill="url(#paint24_linear_3_4699)"/>
<path d="M16.3872 8.3198C16.3804 8.13588 16.5243 7.98148 16.7082 7.97503L16.7293 7.97435C16.9132 7.96756 17.0676 8.11145 17.074 8.29537L17.0818 8.51289C17.0883 8.69681 16.9447 8.85121 16.7608 8.85766L16.7398 8.85834C16.5558 8.86513 16.4014 8.72125 16.395 8.53732L16.3872 8.3198Z" fill="url(#paint25_linear_3_4699)"/>
<path d="M17.6521 7.97947C17.6453 7.79555 17.7892 7.64114 17.9731 7.6347L17.9941 7.63402C18.1781 7.62723 18.3325 7.77111 18.3389 7.95504L18.3467 8.17256C18.3532 8.35648 18.2096 8.51088 18.0257 8.51733L18.0047 8.51801C17.8207 8.52479 17.6663 8.38091 17.6599 8.19699L17.6521 7.97947Z" fill="url(#paint26_linear_3_4699)"/>
<path d="M18.823 7.74095C18.8162 7.55702 18.9601 7.40262 19.144 7.39617L19.165 7.39549C19.349 7.38871 19.5034 7.53259 19.5098 7.71651L19.5176 7.93403C19.5244 8.11796 19.3805 8.27236 19.1966 8.27881L19.1756 8.27948C18.9916 8.28593 18.8372 8.14239 18.8308 7.95847L18.823 7.74095Z" fill="url(#paint27_linear_3_4699)"/>
<path d="M20.1899 7.49522C20.1835 7.31129 20.327 7.15689 20.5109 7.15045L20.532 7.14977C20.7159 7.14298 20.8703 7.28686 20.8767 7.47079L20.8845 7.6883C20.891 7.87223 20.7474 8.02663 20.5635 8.03308L20.5425 8.03375C20.3586 8.0402 20.2042 7.89666 20.1977 7.71274L20.1899 7.49522Z" fill="url(#paint28_linear_3_4699)"/>
<path d="M21.4582 7.25303C21.4518 7.06911 21.5953 6.91471 21.7792 6.90826L21.8003 6.90758C21.9842 6.90079 22.1386 7.04467 22.145 7.2286L22.1529 7.44612C22.1596 7.63004 22.0158 7.78444 21.8318 7.79089L21.8108 7.79157C21.6269 7.79836 21.4725 7.65447 21.466 7.47055L21.4582 7.25303Z" fill="url(#paint29_linear_3_4699)"/>
<path d="M22.7236 6.91258C22.7168 6.72865 22.8607 6.57425 23.0446 6.5678L23.0657 6.56713C23.2496 6.56034 23.404 6.70422 23.4104 6.88814L23.4183 7.10566C23.425 7.28959 23.2812 7.44399 23.0972 7.45043L23.0762 7.45111C22.8923 7.4579 22.7379 7.31402 22.7314 7.13009L22.7236 6.91258Z" fill="url(#paint30_linear_3_4699)"/>
<path d="M23.8979 6.77207C23.8915 6.58815 24.035 6.43375 24.2189 6.4273L24.24 6.42662C24.4239 6.41984 24.5783 6.56372 24.5847 6.74764L24.5926 6.96516C24.5993 7.14908 24.4555 7.30349 24.2715 7.30993L24.2505 7.31061C24.0666 7.3174 23.9122 7.17352 23.9057 6.98959L23.8979 6.77207Z" fill="url(#paint31_linear_3_4699)"/>
<path d="M25.1662 6.52976C25.1598 6.34584 25.3033 6.19144 25.4872 6.18499L25.5083 6.18431C25.6922 6.17753 25.8466 6.32141 25.8531 6.50533L25.8609 6.72285C25.8676 6.90677 25.7238 7.06118 25.5398 7.06762L25.5188 7.0683C25.3349 7.07475 25.1805 6.93121 25.174 6.74728L25.1662 6.52976Z" fill="url(#paint32_linear_3_4699)"/>
<path d="M26.4316 6.18943C26.4248 6.00551 26.5687 5.85111 26.7526 5.84466L26.7737 5.84398C26.9576 5.83719 27.112 5.98107 27.1185 6.165L27.1263 6.38252C27.133 6.56644 26.9892 6.72084 26.8052 6.72729L26.7842 6.72797C26.6003 6.73476 26.4459 6.59087 26.4394 6.40695L26.4316 6.18943Z" fill="url(#paint33_linear_3_4699)"/>
<path d="M27.6057 6.04893C27.5989 5.865 27.7428 5.7106 27.9267 5.70416L27.9478 5.70348C28.1317 5.69669 28.2861 5.84057 28.2925 6.0245L28.3003 6.24201C28.3071 6.42594 28.1632 6.58034 27.9793 6.58679L27.9583 6.58747C27.7744 6.59425 27.62 6.45037 27.6135 6.26645L27.6057 6.04893Z" fill="url(#paint34_linear_3_4699)"/>
<path d="M31.918 4.54529L29.7021 5.24739C29.5359 5.30033 29.4303 5.46457 29.452 5.63763C29.4778 5.84361 29.5175 6.07606 29.563 6.05468C29.6431 6.01668 33.1203 4.99933 33.1203 4.99933L31.918 4.54529Z" fill="url(#paint35_linear_3_4699)"/>
<path d="M69.4325 93.8089C69.9512 93.8089 70.3718 93.3884 70.3718 92.8696C70.3718 92.3508 69.9512 91.9303 69.4325 91.9303C68.9137 91.9303 68.4932 92.3508 68.4932 92.8696C68.4932 93.3884 68.9137 93.8089 69.4325 93.8089Z" fill="#7D97F4"/>
<path d="M69.4324 93.5397C69.8026 93.5397 70.1026 93.2397 70.1026 92.8695C70.1026 92.4994 69.8026 92.1993 69.4324 92.1993C69.0623 92.1993 68.7622 92.4994 68.7622 92.8695C68.7622 93.2397 69.0623 93.5397 69.4324 93.5397Z" fill="url(#paint36_linear_3_4699)"/>
<path d="M62.3875 93.8089C62.9063 93.8089 63.3268 93.3884 63.3268 92.8696C63.3268 92.3508 62.9063 91.9303 62.3875 91.9303C61.8688 91.9303 61.4482 92.3508 61.4482 92.8696C61.4482 93.3884 61.8688 93.8089 62.3875 93.8089Z" fill="#7D97F4"/>
<path d="M62.3877 93.5397C62.7579 93.5397 63.0579 93.2397 63.0579 92.8695C63.0579 92.4994 62.7579 92.1993 62.3877 92.1993C62.0176 92.1993 61.7175 92.4994 61.7175 92.8695C61.7175 93.2397 62.0176 93.5397 62.3877 93.5397Z" fill="url(#paint37_linear_3_4699)"/>
<path d="M69.288 69.4933H68.8567V75.8193H69.288V69.4933Z" fill="#7D97F4"/>
<path d="M62.9635 69.4933H62.5322V75.8193H62.9635V69.4933Z" fill="#7D97F4"/>
<path d="M61.6445 75.4093H70.1756C71.3928 75.4093 72.3216 76.352 72.3216 77.6303V90.5416C72.3216 91.8199 71.3928 92.7983 70.1756 92.7983H61.6445C60.4273 92.7983 59.302 91.8199 59.302 90.5416V77.6303C59.302 76.352 60.4273 75.4093 61.6445 75.4093Z" fill="url(#paint38_linear_3_4699)"/>
<path d="M60.001 78.213C60.001 77.0497 60.9186 76.2834 62.0265 76.2834H69.79C70.898 76.2834 71.6225 77.05 71.6225 78.213V89.959C71.6225 91.1222 70.898 92.0117 69.79 92.0117H62.0265C60.9186 92.0117 60.001 91.1222 60.001 89.959V78.213Z" fill="url(#paint39_linear_3_4699)"/>
<g opacity="0.61">
<path d="M70.0496 78.1523C70.0496 77.9405 69.8779 77.7688 69.6661 77.7688H69.5592C69.3475 77.7688 69.1758 77.9405 69.1758 78.1523V90.0554C69.1758 90.2671 69.3475 90.4389 69.5592 90.4389H69.6661C69.8779 90.4389 70.0496 90.2671 70.0496 90.0554V78.1523Z" fill="#7D97F4"/>
</g>
<g opacity="0.61">
<path d="M67.6031 78.1523C67.6031 77.9405 67.4314 77.7688 67.2196 77.7688H67.1127C66.901 77.7688 66.7292 77.9405 66.7292 78.1523V90.0554C66.7292 90.2671 66.901 90.4389 67.1127 90.4389H67.2196C67.4314 90.4389 67.6031 90.2671 67.6031 90.0554V78.1523Z" fill="#7D97F4"/>
</g>
<g opacity="0.61">
<path d="M65.0691 78.1523C65.0691 77.9405 64.8974 77.7688 64.6857 77.7688H64.5788C64.367 77.7688 64.1953 77.9405 64.1953 78.1523V90.0554C64.1953 90.2671 64.367 90.4389 64.5788 90.4389H64.6857C64.8974 90.4389 65.0691 90.2671 65.0691 90.0554V78.1523Z" fill="#7D97F4"/>
</g>
<g opacity="0.61">
<path d="M62.4478 78.1523C62.4478 77.9405 62.2761 77.7688 62.0643 77.7688H61.9574C61.7457 77.7688 61.574 77.9405 61.574 78.1523V90.0554C61.574 90.2671 61.7457 90.4389 61.9574 90.4389H62.0643C62.2761 90.4389 62.4478 90.2671 62.4478 90.0554V78.1523Z" fill="#7D97F4"/>
</g>
<path d="M63.6784 66.1147H67.8896C68.6382 66.1147 69.3963 66.4799 69.3963 67.1776V69.4994C69.3963 69.5754 69.3345 69.6371 69.2585 69.6371H68.8873C68.8113 69.6371 68.7495 69.5754 68.7495 69.4994V67.1776C68.7495 66.956 68.3477 66.7619 67.89 66.7619H63.6787C63.0706 66.7619 63.0706 67.0747 63.0706 67.1776V69.4994C63.0706 69.5754 63.0089 69.6371 62.9328 69.6371H62.5616C62.4856 69.6371 62.4238 69.5754 62.4238 69.4994V67.1776C62.4235 66.6638 62.753 66.1147 63.6784 66.1147Z" fill="url(#paint40_linear_3_4699)"/>
<path d="M70.1151 92.4814H70.241C71.2716 92.4814 72.1101 91.594 72.1101 90.503V88.5786C72.1101 88.5636 72.0979 88.5518 72.0833 88.5518C72.0684 88.5518 72.0565 88.564 72.0565 88.5786V90.503C72.0565 91.5641 71.2424 92.4274 70.2413 92.4274H70.1154C70.1005 92.4274 70.0886 92.4396 70.0886 92.4542C70.0886 92.4688 70.1005 92.4814 70.1151 92.4814Z" fill="url(#paint41_linear_3_4699)"/>
<path d="M72.083 88.1143C72.0979 88.1143 72.1098 88.1021 72.1098 88.0875V86.9735C72.1098 86.9585 72.0975 86.9467 72.083 86.9467C72.068 86.9467 72.0562 86.9589 72.0562 86.9735V88.0875C72.0562 88.1025 72.0684 88.1143 72.083 88.1143Z" fill="url(#paint42_linear_3_4699)"/>
<path d="M75.3431 46.6457C77.3859 47.8836 77.9686 50.2369 78.8034 52.3073C79.6989 54.5279 80.9178 56.4975 82.7805 58.0364C85.4263 60.2224 88.4695 62.4777 88.4953 66.2658C88.5184 69.6419 86.1301 72.5328 83.1015 73.7768C81.5962 74.3951 79.2649 75.0531 77.6221 74.8525C68.9706 73.7958 67.7082 67.5013 67.9607 62.7376C68.2135 57.974 72.2052 44.744 75.3431 46.6457Z" fill="#09005D"/>
<path d="M60.6536 49.1039C60.6536 49.1039 67.2378 54.7461 72.9208 54.4784C72.9208 54.4784 72.7939 57.7168 72.105 58.295C72.105 58.295 63.9625 54.8829 60.6929 50.1813L60.6536 49.1039Z" fill="url(#paint43_linear_3_4699)"/>
<path d="M74.4145 64.6186C73.6336 59.5858 76.8058 57.021 76.8058 57.021C75.0813 55.0861 71.7479 54.007 71.7479 54.007C71.7479 54.007 68.3222 56.1238 68.5618 58.0085C68.7023 59.113 70.3322 64.6973 70.3322 64.6973C70.3322 64.6973 72.1609 65.7438 74.4145 64.6186Z" fill="#952D24"/>
<path d="M74.1218 50.9065L74.738 55.2396C74.7994 55.6217 74.4625 55.5338 74.0885 55.4326C73.4763 55.267 72.6948 54.9637 72.4648 54.4594C72.4413 54.4082 72.4322 54.3515 72.4288 54.2952L72.2517 51.31C72.2377 51.0731 72.382 50.8556 72.6056 50.7765L73.419 50.4894C73.7322 50.3788 74.0692 50.5787 74.1218 50.9065Z" fill="url(#paint44_linear_3_4699)"/>
<path d="M72.4475 47.2799C72.4475 47.2799 71.3634 47.8449 70.7312 49.529C70.0993 51.2132 70.7298 51.916 71.4543 51.9611C72.1788 52.0059 73.2484 51.9034 74.296 50.7639C75.3438 49.6241 73.8613 46.5998 72.4475 47.2799Z" fill="url(#paint45_linear_3_4699)"/>
<path d="M73.4643 49.9593C73.4643 49.9593 74.1193 47.5171 72.0126 47.6596L71.5453 48.0457C71.5453 48.0457 70.6668 46.7922 71.883 46.0616C73.0995 45.3307 74.5231 45.7369 75.7563 47.043C77.0909 48.4567 77.6671 50.2786 76.836 51.168C76.005 52.0575 74.1854 51.3051 74.1854 51.3051C74.1854 51.3051 73.9805 50.8019 74.2526 49.8785C74.3816 49.4411 73.6018 50.0163 73.6018 50.0163L73.4643 49.9593Z" fill="url(#paint46_linear_3_4699)"/>
<path d="M73.4736 50.3879C73.4736 50.3879 73.8028 49.1307 74.4136 49.5711C75.0244 50.0119 74.0407 50.7381 73.6521 50.9791L73.4736 50.3879Z" fill="url(#paint47_linear_3_4699)"/>
<path d="M61.2297 50.6734C61.7523 50.8098 61.8086 49.9543 61.7923 49.4103C61.7743 48.811 61.5897 48.1242 61.21 47.6474C60.5982 46.8792 60.9976 48.5633 61.0478 48.5375C60.9592 48.5827 60.8666 48.487 60.8147 48.4021C60.5995 48.0496 60.4217 47.6736 60.1794 47.339C59.9914 47.0797 59.6232 46.6396 59.273 46.609C58.8909 46.5758 58.8472 47.2083 58.8597 47.5117C58.8743 47.8616 58.9836 48.2019 59.1285 48.5206C59.4997 49.336 60.3104 50.4334 61.2297 50.6734Z" fill="url(#paint48_linear_3_4699)"/>
<path d="M84.2402 71.6362C84.23 71.6362 84.2202 71.6308 84.2151 71.6213C84.2076 71.6074 84.2127 71.5901 84.2266 71.5823C85.6275 70.815 86.7449 69.3168 87.2159 67.5753C87.6635 65.9193 87.4664 64.2688 86.6597 62.9277C86.6516 62.9141 86.656 62.8965 86.6696 62.8883C86.6831 62.8802 86.7008 62.8842 86.7089 62.8982C87.5234 64.2528 87.7232 65.919 87.2712 67.5903C86.7961 69.3467 85.6685 70.8578 84.2541 71.6328C84.2497 71.6352 84.245 71.6362 84.2402 71.6362Z" fill="#91B3FA"/>
<path d="M84.2741 60.7033C84.2694 60.7033 84.2646 60.7023 84.2602 60.6999C81.6388 59.2659 79.9936 56.9705 79.0747 55.2972C78.0798 53.4848 77.699 51.991 77.6953 51.9761C77.6912 51.9608 77.7007 51.9452 77.716 51.9415C77.7319 51.9367 77.7469 51.9469 77.7506 51.9622C77.7543 51.9771 78.1337 53.4648 79.1256 55.2711C80.0405 56.937 81.6788 59.2224 84.2874 60.6494C84.3013 60.6568 84.3064 60.6745 84.2989 60.6884C84.2941 60.6979 84.2843 60.7033 84.2741 60.7033Z" fill="#91B3FA"/>
<path d="M81.1237 93.1383L81.1773 94.381C81.1875 94.6168 81.3568 94.8157 81.5886 94.8605C81.9795 94.9365 82.6093 95.0318 83.2337 95.0145C83.5079 95.0071 83.7057 94.7454 83.6433 94.4784C83.5293 93.9914 83.3087 93.2567 82.9429 92.8057L81.5774 92.6992C81.3256 92.6795 81.1128 92.8851 81.1237 93.1383Z" fill="#230300"/>
<path d="M71.5539 77.8859L71.2176 79.2236C71.2176 79.2236 71.3799 87.1011 71.2733 90.2386C71.2567 90.7307 71.0921 91.2051 70.8023 91.6028L69.2905 93.6775L72.858 91.9309L72.9585 91.52L72.46 90.709L73.874 82.0089C73.9572 81.4978 73.8913 80.9735 73.684 80.4988L73.082 79.1187L71.5539 77.8859Z" fill="url(#paint49_linear_3_4699)"/>
<path d="M69.0409 93.9755L70.1292 94.0604C70.3328 94.0763 70.5324 93.9976 70.6691 93.8459C71.0427 93.4316 71.8127 92.626 72.1507 92.63C72.6054 92.6351 72.4222 94.2392 72.4222 94.2392L72.6757 94.2589L73.1528 92.2849C73.2729 91.7881 73.0615 91.2706 72.6281 90.9995C72.6281 90.9995 72.4649 91.7562 71.8779 92.0511C71.2905 92.3457 69.4746 93.4234 69.4746 93.4234C69.4746 93.4234 69.2663 93.3769 69.0314 93.4007C68.6836 93.436 68.6921 93.9484 69.0409 93.9755Z" fill="#230300"/>
<path d="M76.175 78.8941C76.175 78.8941 80.0276 87.8229 80.5936 89.8369C81.1597 91.8509 81.2842 93.5041 81.2815 93.6596C81.2777 93.9025 81.5604 94.1577 82.3891 94.2222C82.8167 94.2554 83.0396 94.1004 83.155 93.9426C83.2534 93.8078 83.2717 93.6311 83.2096 93.476C82.9894 92.9262 82.2914 91.1701 82.0436 90.3791C81.7481 89.4344 81.2822 85.2221 80.9618 83.745C80.6415 82.2682 80.274 80.6644 78.5012 79.0753C78.5012 79.0753 77.3061 77.7067 76.175 78.8941Z" fill="url(#paint50_linear_3_4699)"/>
<path d="M76.8096 67.2668C76.4465 65.7998 74.4146 64.6185 74.4146 64.6185C72.161 65.7438 70.3326 64.6973 70.3326 64.6973C70.3326 64.6973 69.7801 66.2912 69.9559 67.8263C70.1317 69.3615 71.2176 79.2235 71.2176 79.2235C74.0762 80.0386 78.6356 79.2062 78.6356 79.2062C77.0417 75.7772 77.1727 68.7337 76.8096 67.2668Z" fill="#230300"/>
<path d="M75.2527 58.981C75.4119 59.1921 77.8253 62.0633 78.5165 65.267C79.2078 68.4708 78.9753 70.61 78.9753 70.61C78.9753 70.61 78.2732 71.1336 78.5257 71.5052C78.7782 71.8764 78.7117 72.1292 79.034 72.2015C79.3568 72.2734 79.7568 72.3752 79.708 71.7383C79.6591 71.1014 80.4196 70.9731 80.2933 70.5879C80.1678 70.2048 81.028 59.865 76.8656 57.0604C76.846 57.0471 76.8263 57.0339 76.8063 57.021C75.0464 57.6569 74.9965 58.6417 75.2527 58.981Z" fill="url(#paint51_linear_3_4699)"/>
<defs>
<linearGradient id="paint0_linear_3_4699" x1="107.115" y1="122.921" x2="22.6643" y2="18.0384" gradientUnits="userSpaceOnUse">
<stop stop-color="#DAE3FE"/>
<stop offset="1" stop-color="#E9EFFD"/>
</linearGradient>
<linearGradient id="paint1_linear_3_4699" x1="-6.79651" y1="-217.746" x2="-0.255022" y2="-198.293" gradientUnits="userSpaceOnUse">
<stop stop-color="#FF928E"/>
<stop offset="1" stop-color="#FE7062"/>
</linearGradient>
<linearGradient id="paint2_linear_3_4699" x1="58.614" y1="62.8417" x2="14.1939" y2="118.969" gradientUnits="userSpaceOnUse">
<stop stop-color="#FF928E"/>
<stop offset="1" stop-color="#FE7062"/>
</linearGradient>
<linearGradient id="paint3_linear_3_4699" x1="104.585" y1="25.8511" x2="98.0436" y2="45.3034" gradientUnits="userSpaceOnUse">
<stop stop-color="#E1473D"/>
<stop offset="1" stop-color="#E9605A"/>
</linearGradient>
<linearGradient id="paint4_linear_3_4699" x1="35.6488" y1="2.66898" x2="29.1073" y2="22.1213" gradientUnits="userSpaceOnUse">
<stop stop-color="#E1473D"/>
<stop offset="1" stop-color="#E9605A"/>
</linearGradient>
<linearGradient id="paint5_linear_3_4699" x1="58.5477" y1="10.3696" x2="52.0062" y2="29.8218" gradientUnits="userSpaceOnUse">
<stop stop-color="#E1473D"/>
<stop offset="1" stop-color="#E9605A"/>
</linearGradient>
<linearGradient id="paint6_linear_3_4699" x1="56.562" y1="1.09628" x2="56.2751" y2="14.9833" gradientUnits="userSpaceOnUse">
<stop stop-color="#09005D"/>
<stop offset="1" stop-color="#1A0F91"/>
</linearGradient>
<linearGradient id="paint7_linear_3_4699" x1="31.2902" y1="0.574168" x2="31.0033" y2="14.4612" gradientUnits="userSpaceOnUse">
<stop stop-color="#09005D"/>
<stop offset="1" stop-color="#1A0F91"/>
</linearGradient>
<linearGradient id="paint8_linear_3_4699" x1="61.9929" y1="73.3381" x2="36.7489" y2="76.3979" gradientUnits="userSpaceOnUse">
<stop stop-color="#09005D"/>
<stop offset="1" stop-color="#1A0F91"/>
</linearGradient>
<linearGradient id="paint9_linear_3_4699" x1="62.0601" y1="73.8924" x2="36.8161" y2="76.9523" gradientUnits="userSpaceOnUse">
<stop stop-color="#09005D"/>
<stop offset="1" stop-color="#1A0F91"/>
</linearGradient>
<linearGradient id="paint10_linear_3_4699" x1="62.1066" y1="74.2758" x2="36.8626" y2="77.3357" gradientUnits="userSpaceOnUse">
<stop stop-color="#09005D"/>
<stop offset="1" stop-color="#1A0F91"/>
</linearGradient>
<linearGradient id="paint11_linear_3_4699" x1="62.1468" y1="74.6073" x2="36.9031" y2="77.6672" gradientUnits="userSpaceOnUse">
<stop stop-color="#09005D"/>
<stop offset="1" stop-color="#1A0F91"/>
</linearGradient>
<linearGradient id="paint12_linear_3_4699" x1="-45.0677" y1="-204.875" x2="-38.5262" y2="-185.423" gradientUnits="userSpaceOnUse">
<stop stop-color="#E1473D"/>
<stop offset="1" stop-color="#E9605A"/>
</linearGradient>
<linearGradient id="paint13_linear_3_4699" x1="-66.2814" y1="-197.741" x2="-59.7399" y2="-178.289" gradientUnits="userSpaceOnUse">
<stop stop-color="#E1473D"/>
<stop offset="1" stop-color="#E9605A"/>
</linearGradient>
<linearGradient id="paint14_linear_3_4699" x1="71.3993" y1="14.6913" x2="64.8579" y2="34.1437" gradientUnits="userSpaceOnUse">
<stop stop-color="#E1473D"/>
<stop offset="1" stop-color="#E9605A"/>
</linearGradient>
<linearGradient id="paint15_linear_3_4699" x1="74.6091" y1="86.6931" x2="56.4752" y2="71.9392" gradientUnits="userSpaceOnUse">
<stop stop-color="#09005D"/>
<stop offset="1" stop-color="#1A0F91"/>
</linearGradient>
<linearGradient id="paint16_linear_3_4699" x1="77.0664" y1="54.6185" x2="66.6875" y2="115.685" gradientUnits="userSpaceOnUse">
<stop stop-color="#4F52FF"/>
<stop offset="1" stop-color="#4042E2"/>
</linearGradient>
<linearGradient id="paint17_linear_3_4699" x1="23.9679" y1="86.6931" x2="5.83401" y2="71.9392" gradientUnits="userSpaceOnUse">
<stop stop-color="#09005D"/>
<stop offset="1" stop-color="#1A0F91"/>
</linearGradient>
<linearGradient id="paint18_linear_3_4699" x1="27.847" y1="46.2532" x2="17.4681" y2="107.32" gradientUnits="userSpaceOnUse">
<stop stop-color="#4F52FF"/>
<stop offset="1" stop-color="#4042E2"/>
</linearGradient>
<linearGradient id="paint19_linear_3_4699" x1="-86.0882" y1="-191.081" x2="-79.5468" y2="-171.629" gradientUnits="userSpaceOnUse">
<stop stop-color="#E1473D"/>
<stop offset="1" stop-color="#E9605A"/>
</linearGradient>
<linearGradient id="paint20_linear_3_4699" x1="-27.5805" y1="-210.756" x2="-21.0391" y2="-191.304" gradientUnits="userSpaceOnUse">
<stop stop-color="#FF928E"/>
<stop offset="1" stop-color="#FE7062"/>
</linearGradient>
<linearGradient id="paint21_linear_3_4699" x1="59.2115" y1="81.3011" x2="51.0546" y2="74.6645" gradientUnits="userSpaceOnUse">
<stop stop-color="#09005D"/>
<stop offset="1" stop-color="#1A0F91"/>
</linearGradient>
<linearGradient id="paint22_linear_3_4699" x1="59.2115" y1="74.9105" x2="51.0546" y2="68.2739" gradientUnits="userSpaceOnUse">
<stop stop-color="#09005D"/>
<stop offset="1" stop-color="#1A0F91"/>
</linearGradient>
<linearGradient id="paint23_linear_3_4699" x1="108.42" y1="27.1406" x2="101.878" y2="46.5929" gradientUnits="userSpaceOnUse">
<stop stop-color="#E1473D"/>
<stop offset="1" stop-color="#E9605A"/>
</linearGradient>
<linearGradient id="paint24_linear_3_4699" x1="10.6814" y1="-75.8648" x2="11.4667" y2="-61.9973" gradientUnits="userSpaceOnUse">
<stop stop-color="#09005D"/>
<stop offset="1" stop-color="#1A0F91"/>
</linearGradient>
<linearGradient id="paint25_linear_3_4699" x1="11.9578" y1="-75.937" x2="12.743" y2="-62.0695" gradientUnits="userSpaceOnUse">
<stop stop-color="#09005D"/>
<stop offset="1" stop-color="#1A0F91"/>
</linearGradient>
<linearGradient id="paint26_linear_3_4699" x1="13.238" y1="-76.0094" x2="14.0232" y2="-62.1419" gradientUnits="userSpaceOnUse">
<stop stop-color="#09005D"/>
<stop offset="1" stop-color="#1A0F91"/>
</linearGradient>
<linearGradient id="paint27_linear_3_4699" x1="14.4184" y1="-76.0762" x2="15.2037" y2="-62.2088" gradientUnits="userSpaceOnUse">
<stop stop-color="#09005D"/>
<stop offset="1" stop-color="#1A0F91"/>
</linearGradient>
<linearGradient id="paint28_linear_3_4699" x1="15.7949" y1="-76.1539" x2="16.5801" y2="-62.2865" gradientUnits="userSpaceOnUse">
<stop stop-color="#09005D"/>
<stop offset="1" stop-color="#1A0F91"/>
</linearGradient>
<linearGradient id="paint29_linear_3_4699" x1="17.073" y1="-76.2267" x2="17.8583" y2="-62.3592" gradientUnits="userSpaceOnUse">
<stop stop-color="#09005D"/>
<stop offset="1" stop-color="#1A0F91"/>
</linearGradient>
<linearGradient id="paint30_linear_3_4699" x1="18.3534" y1="-76.299" x2="19.1386" y2="-62.4316" gradientUnits="userSpaceOnUse">
<stop stop-color="#09005D"/>
<stop offset="1" stop-color="#1A0F91"/>
</linearGradient>
<linearGradient id="paint31_linear_3_4699" x1="19.5318" y1="-76.3659" x2="20.3171" y2="-62.4984" gradientUnits="userSpaceOnUse">
<stop stop-color="#09005D"/>
<stop offset="1" stop-color="#1A0F91"/>
</linearGradient>
<linearGradient id="paint32_linear_3_4699" x1="20.81" y1="-76.4384" x2="21.5953" y2="-62.5709" gradientUnits="userSpaceOnUse">
<stop stop-color="#09005D"/>
<stop offset="1" stop-color="#1A0F91"/>
</linearGradient>
<linearGradient id="paint33_linear_3_4699" x1="22.0904" y1="-76.5105" x2="22.8757" y2="-62.6431" gradientUnits="userSpaceOnUse">
<stop stop-color="#09005D"/>
<stop offset="1" stop-color="#1A0F91"/>
</linearGradient>
<linearGradient id="paint34_linear_3_4699" x1="23.2686" y1="-76.5777" x2="24.0539" y2="-62.7103" gradientUnits="userSpaceOnUse">
<stop stop-color="#09005D"/>
<stop offset="1" stop-color="#1A0F91"/>
</linearGradient>
<linearGradient id="paint35_linear_3_4699" x1="44.8879" y1="-6.60828" x2="38.4608" y2="-1.02287" gradientUnits="userSpaceOnUse">
<stop stop-color="#09005D"/>
<stop offset="1" stop-color="#1A0F91"/>
</linearGradient>
<linearGradient id="paint36_linear_3_4699" x1="68.7622" y1="92.8696" x2="70.1025" y2="92.8696" gradientUnits="userSpaceOnUse">
<stop stop-color="#4F52FF"/>
<stop offset="1" stop-color="#4042E2"/>
</linearGradient>
<linearGradient id="paint37_linear_3_4699" x1="61.7176" y1="92.8696" x2="63.0579" y2="92.8696" gradientUnits="userSpaceOnUse">
<stop stop-color="#4F52FF"/>
<stop offset="1" stop-color="#4042E2"/>
</linearGradient>
<linearGradient id="paint38_linear_3_4699" x1="109.135" y1="38.7799" x2="89.6246" y2="59.2088" gradientUnits="userSpaceOnUse">
<stop stop-color="#4F52FF"/>
<stop offset="1" stop-color="#4042E2"/>
</linearGradient>
<linearGradient id="paint39_linear_3_4699" x1="60.0009" y1="84.1474" x2="71.6224" y2="84.1474" gradientUnits="userSpaceOnUse">
<stop stop-color="#4F52FF"/>
<stop offset="1" stop-color="#4042E2"/>
</linearGradient>
<linearGradient id="paint40_linear_3_4699" x1="66.0594" y1="80.747" x2="65.7692" y2="56.6546" gradientUnits="userSpaceOnUse">
<stop stop-color="#09005D"/>
<stop offset="1" stop-color="#4042E2"/>
</linearGradient>
<linearGradient id="paint41_linear_3_4699" x1="70.0883" y1="90.5166" x2="72.11" y2="90.5166" gradientUnits="userSpaceOnUse">
<stop stop-color="#A737D5"/>
<stop offset="1" stop-color="#EF497A"/>
</linearGradient>
<linearGradient id="paint42_linear_3_4699" x1="72.0561" y1="87.5304" x2="72.11" y2="87.5304" gradientUnits="userSpaceOnUse">
<stop stop-color="#A737D5"/>
<stop offset="1" stop-color="#EF497A"/>
</linearGradient>
<linearGradient id="paint43_linear_3_4699" x1="155.641" y1="114.414" x2="175.583" y2="128.223" gradientUnits="userSpaceOnUse">
<stop stop-color="#FEBBBA"/>
<stop offset="1" stop-color="#FF928E"/>
</linearGradient>
<linearGradient id="paint44_linear_3_4699" x1="73.3934" y1="57.1212" x2="73.6726" y2="46.919" gradientUnits="userSpaceOnUse">
<stop stop-color="#FEBBBA"/>
<stop offset="1" stop-color="#FF928E"/>
</linearGradient>
<linearGradient id="paint45_linear_3_4699" x1="70.9535" y1="53.5886" x2="76.2662" y2="42.0395" gradientUnits="userSpaceOnUse">
<stop stop-color="#FEBBBA"/>
<stop offset="1" stop-color="#FF928E"/>
</linearGradient>
<linearGradient id="paint46_linear_3_4699" x1="55.3489" y1="22.2698" x2="80.2621" y2="56.6097" gradientUnits="userSpaceOnUse">
<stop stop-color="#09005D"/>
<stop offset="1" stop-color="#1A0F91"/>
</linearGradient>
<linearGradient id="paint47_linear_3_4699" x1="72.0865" y1="54.4075" x2="77.3992" y2="42.8583" gradientUnits="userSpaceOnUse">
<stop stop-color="#FEBBBA"/>
<stop offset="1" stop-color="#FF928E"/>
</linearGradient>
<linearGradient id="paint48_linear_3_4699" x1="130.676" y1="111.05" x2="148.804" y2="127.168" gradientUnits="userSpaceOnUse">
<stop stop-color="#FEBBBA"/>
<stop offset="1" stop-color="#FF928E"/>
</linearGradient>
<linearGradient id="paint49_linear_3_4699" x1="70.6098" y1="78.2421" x2="72.3651" y2="94.7595" gradientUnits="userSpaceOnUse">
<stop stop-color="#FEBBBA"/>
<stop offset="1" stop-color="#FF928E"/>
</linearGradient>
<linearGradient id="paint50_linear_3_4699" x1="77.3185" y1="77.2922" x2="83.1025" y2="95.1909" gradientUnits="userSpaceOnUse">
<stop stop-color="#FEBBBA"/>
<stop offset="1" stop-color="#FF928E"/>
</linearGradient>
<linearGradient id="paint51_linear_3_4699" x1="77.7674" y1="66.2116" x2="77.493" y2="51.8811" gradientUnits="userSpaceOnUse">
<stop stop-color="#FEBBBA"/>
<stop offset="1" stop-color="#FF928E"/>
</linearGradient>
</defs>
</svg>
