<svg width="91" height="91" viewBox="0 0 91 91" fill="none" xmlns="http://www.w3.org/2000/svg">
<path d="M80.0773 78.1998C78.2173 80.1579 76.4574 81.4205 75.0671 82.4183C58.7231 94.1453 39.3837 90.7269 35.2738 89.892C29.2044 88.6593 17.4722 86.2764 8.99036 76.3018C-3.84226 61.2107 -1.84416 37.4357 8.10993 21.7411C9.93058 18.8704 19.5483 2.93697 39.0958 0.381819C50.9257 -1.16453 64.7158 1.95417 74.7021 10.321C95.6639 27.883 94.1715 63.3616 80.0773 78.1998Z" fill="url(#paint0_linear_3_4967)"/>
<path d="M72.0391 22.1347C72.03 21.8734 71.6368 21.6635 71.1548 21.6635H41.9198C41.4313 21.6635 40.9126 21.8802 40.9126 22.1448V59.1265C40.9126 59.3241 41.1193 59.5136 41.3773 59.6533C41.6354 59.7928 42.0163 59.8711 42.3809 59.8704L71.9361 59.8266C72.304 59.8259 72.6635 59.7456 72.9209 59.603C73.1783 59.4606 73.3229 59.2676 73.3161 59.0683L72.0391 22.1347Z" fill="#91B3FA"/>
<g opacity="0.67">
<path d="M55.2497 24.2843L45.6863 24.2664L45.6899 23.6177L55.2426 23.6343L55.2497 24.2843Z" fill="white"/>
<path d="M55.2761 26.673L45.6733 26.6493L45.6769 25.9954L55.269 26.0178L55.2761 26.673Z" fill="white"/>
<path d="M55.3023 29.0819L45.6599 29.052L45.6638 28.3929L55.2952 28.4209L55.3023 29.0819Z" fill="white"/>
<path d="M55.3291 31.5103L45.6467 31.4749L45.6506 30.8099L55.322 30.8441L55.3291 31.5103Z" fill="white"/>
<path d="M55.356 33.9591L45.6333 33.9175L45.6372 33.2471L55.3488 33.2874L55.356 33.9591Z" fill="white"/>
<path d="M55.4106 38.9187L45.606 38.8644L45.6099 38.1829L55.4031 38.2355L55.4106 38.9187Z" fill="white"/>
<path d="M55.4939 46.5163L45.5645 46.4425L45.5684 45.7434L55.4864 45.8156L55.4939 46.5163Z" fill="white"/>
<path d="M55.3833 36.4285L45.6196 36.3807L45.6235 35.7047L55.3758 35.7509L55.3833 36.4285Z" fill="white"/>
<path d="M55.4378 41.43L45.5923 41.3693L45.5962 40.6819L55.4304 40.741L55.4378 41.43Z" fill="white"/>
<path d="M55.4658 43.9624L45.5784 43.8951L45.5823 43.2019L55.4584 43.2676L55.4658 43.9624Z" fill="white"/>
<path d="M55.5222 49.0922L45.5505 49.0116L45.5544 48.3066L55.5144 48.3853L55.5222 49.0922Z" fill="white"/>
<path d="M55.5507 51.6899L45.5361 51.6025L45.54 50.8914L55.5429 50.9768L55.5507 51.6899Z" fill="white"/>
<path d="M55.5792 54.3103L45.5217 54.2157L45.5256 53.4988L55.5714 53.5911L55.5792 54.3103Z" fill="white"/>
<path d="M55.6084 56.9533L45.5071 56.8519L45.511 56.1284L55.6003 56.2279L55.6084 56.9533Z" fill="white"/>
<path d="M67.7882 24.3077L58.1649 24.2898L58.1545 23.6392L67.7671 23.6557L67.7882 24.3077Z" fill="white"/>
<path d="M67.8662 26.7042L58.203 26.6805L58.1926 26.0243L67.8448 26.0467L67.8662 26.7042Z" fill="white"/>
<path d="M67.9452 29.1206L58.2417 29.0907L58.231 28.4293L67.9234 28.4576L67.9452 29.1206Z" fill="white"/>
<path d="M68.0246 31.5571L58.2804 31.5214L58.27 30.8545L68.0028 30.8886L68.0246 31.5571Z" fill="white"/>
<path d="M68.1046 34.0141L58.3198 33.9722L58.3091 33.2994L68.0825 33.3401L68.1046 34.0141Z" fill="white"/>
<path d="M68.2666 38.9899L58.3989 38.9353L58.3882 38.2515L68.2441 38.3044L68.2666 38.9899Z" fill="white"/>
<path d="M68.515 46.6131L58.5209 46.5386L58.5095 45.8373L68.4919 45.9098L68.515 46.6131Z" fill="white"/>
<path d="M68.1852 36.4916L58.3594 36.4432L58.3484 35.7653L68.1631 35.8117L68.1852 36.4916Z" fill="white"/>
<path d="M68.3485 41.5095L58.4393 41.4484L58.4282 40.7588L68.3261 40.8179L68.3485 41.5095Z" fill="white"/>
<path d="M68.4315 44.0505L58.48 43.9829L58.469 43.2874L68.4088 43.3533L68.4315 44.0505Z" fill="white"/>
<path d="M68.5991 49.1978L58.5622 49.1166L58.5508 48.4091L68.5761 48.4884L68.5991 49.1978Z" fill="white"/>
<path d="M68.6839 51.8046L58.6037 51.7166L58.592 51.0032L68.6605 51.0893L68.6839 51.8046Z" fill="white"/>
<path d="M68.7698 54.4338L58.6457 54.3389L58.634 53.6194L68.7461 53.7123L68.7698 54.4338Z" fill="white"/>
<path d="M68.8559 57.0862L58.688 56.9841L58.6763 56.2581L68.8322 56.3585L68.8559 57.0862Z" fill="white"/>
</g>
<path d="M48.7989 5.76965C48.7879 5.18172 48.3114 4.69812 47.7277 4.69812H25.6573C25.0655 4.69812 24.4844 5.20707 24.4844 5.80279V59.0579C24.4844 59.3446 24.6485 59.6195 24.85 59.822C25.0515 60.0245 25.3502 60.1376 25.6349 60.1369L48.7105 60.0735C48.9978 60.0729 49.2786 59.9559 49.4798 59.7492C49.6806 59.5425 49.7937 59.2568 49.7885 58.9679L48.7989 5.76965Z" fill="#7D97F4"/>
<g opacity="0.5">
<path d="M32.5452 10.9735L26.2577 10.9651L26.208 7.71997H32.5013L32.5452 10.9735Z" fill="white"/>
<path d="M39.5926 10.972L33.3117 10.9636L33.2688 7.72009H39.5559L39.5926 10.972Z" fill="white"/>
<path d="M46.6329 10.9704L40.3581 10.962L40.322 7.72009H46.6026L46.6329 10.9704Z" fill="white"/>
<path d="M32.624 16.7984L26.3476 16.8026L26.2979 13.5787L32.5804 13.576L32.624 16.7984Z" fill="white"/>
<path d="M39.6591 16.7937L33.3888 16.798L33.3459 13.5756L39.622 13.573L39.6591 16.7937Z" fill="white"/>
<path d="M46.687 16.7892L40.4233 16.7934L40.3872 13.5727L46.6571 13.5701L46.687 16.7892Z" fill="white"/>
<path d="M32.7023 22.5831L26.4366 22.5897L26.3872 19.377L32.6587 19.3718L32.7023 22.5831Z" fill="white"/>
<path d="M39.7252 22.5754L33.466 22.5819L33.4231 19.3709L39.6884 19.3657L39.7252 22.5754Z" fill="white"/>
<path d="M46.7409 22.5679L40.4879 22.5748L40.4521 19.3651L46.711 19.3599L46.7409 22.5679Z" fill="white"/>
<path d="M32.7801 28.3474L26.5255 28.3565L26.4761 25.1553L32.7369 25.1475L32.7801 28.3474Z" fill="white"/>
<path d="M39.7907 28.337L33.5426 28.3464L33.5 25.1465L39.7543 25.1387L39.7907 28.337Z" fill="white"/>
<path d="M46.7945 28.3269L40.5526 28.336L40.5168 25.1377L46.765 25.1299L46.7945 28.3269Z" fill="white"/>
<path d="M32.8579 34.0921L26.6143 34.1038L26.5649 30.9133L32.8147 30.9032L32.8579 34.0921Z" fill="white"/>
<path d="M39.8564 34.0792L33.619 34.0909L33.5764 30.902L39.82 30.8916L39.8564 34.0792Z" fill="white"/>
<path d="M46.8483 34.0658L40.6171 34.0775L40.5813 30.8902L46.8184 30.8801L46.8483 34.0658Z" fill="white"/>
<path d="M32.9356 39.8171L26.7024 39.8314L26.6533 36.6519L32.8923 36.6389L32.9356 39.8171Z" fill="white"/>
<path d="M39.9218 39.8011L33.6951 39.8154L33.6528 36.6375L39.8857 36.6245L39.9218 39.8011Z" fill="white"/>
<path d="M46.9015 39.7852L40.681 39.7995L40.6453 36.6229L46.8719 36.6102L46.9015 39.7852Z" fill="white"/>
<path d="M33.0126 45.5221L26.7904 45.539L26.7417 42.3706L32.9697 42.355L33.0126 45.5221Z" fill="white"/>
<path d="M39.987 45.5036L33.771 45.5202L33.7288 42.3534L39.9509 42.3378L39.987 45.5036Z" fill="white"/>
<path d="M46.9544 45.4848L40.7447 45.5013L40.7092 42.3362L46.9252 42.3206L46.9544 45.4848Z" fill="white"/>
<path d="M33.0895 51.2076L26.8781 51.2271L26.8293 48.0694L33.0469 48.0515L33.0895 51.2076Z" fill="white"/>
<path d="M40.0519 51.1861L33.8467 51.2053L33.8044 48.0492L40.0158 48.0314L40.0519 51.1861Z" fill="white"/>
<path d="M47.0074 51.1647L40.8084 51.1839L40.7729 48.0295L46.9782 48.0116L47.0074 51.1647Z" fill="white"/>
<path d="M33.1663 56.8736L26.9657 56.8954L26.9172 53.7488L33.1238 53.7283L33.1663 56.8736Z" fill="white"/>
<path d="M40.1168 56.8493L33.9223 56.8711L33.8804 53.7257L40.0807 53.7056L40.1168 56.8493Z" fill="white"/>
<path d="M47.0604 56.8248L40.8718 56.8466L40.8367 53.7029L47.0308 53.6827L47.0604 56.8248Z" fill="white"/>
</g>
<path d="M29.0684 22.8133C29.0564 22.4051 28.5377 22.0693 27.9016 22.0693H3.86563C3.22115 22.0693 2.58838 22.4226 2.58838 22.8367V59.8171C2.58838 60.016 2.76713 60.2071 2.9865 60.3475C3.2062 60.4879 3.5312 60.5669 3.84125 60.5662L28.9725 60.522C29.2852 60.5214 29.5913 60.4404 29.81 60.2968C30.0288 60.1531 30.1523 59.9549 30.1461 59.7544L29.0684 22.8133Z" fill="#91B3FA"/>
<g opacity="0.5">
<path d="M11.367 26.4269L4.51961 26.4211L4.46533 24.1678H11.3196L11.367 26.4269Z" fill="white"/>
<path d="M19.0422 26.4259L12.2016 26.4198L12.1548 24.1678H19.0019L19.0422 26.4259Z" fill="white"/>
<path d="M26.7095 26.4246L19.8761 26.4188L19.8364 24.1678H26.677L26.7095 26.4246Z" fill="white"/>
<path d="M11.4523 30.4718L4.61694 30.4747L4.56299 28.2361L11.4049 28.2341L11.4523 30.4718Z" fill="white"/>
<path d="M19.1141 30.4687L12.2856 30.4713L12.2388 28.234L19.0742 28.2321L19.1141 30.4687Z" fill="white"/>
<path d="M26.7688 30.4655L19.9467 30.4684L19.9077 28.2317L26.736 28.2301L26.7688 30.4655Z" fill="white"/>
<path d="M11.538 34.4887L4.71435 34.4933L4.6604 32.2625L11.4906 32.2589L11.538 34.4887Z" fill="white"/>
<path d="M19.1866 34.4834L12.3697 34.4879L12.3232 32.2581L19.1466 32.2545L19.1866 34.4834Z" fill="white"/>
<path d="M26.8273 34.4782L20.0173 34.4827L19.9783 32.2542L26.7948 32.2506L26.8273 34.4782Z" fill="white"/>
<path d="M11.6226 38.4916L4.81095 38.4978L4.75732 36.2748L11.5755 36.2693L11.6226 38.4916Z" fill="white"/>
<path d="M19.2581 38.4845L12.4532 38.4906L12.4067 36.2686L19.2184 36.2634L19.2581 38.4845Z" fill="white"/>
<path d="M26.8859 38.4774L20.0878 38.4836L20.0488 36.2629L26.8534 36.2573L26.8859 38.4774Z" fill="white"/>
<path d="M11.7076 42.4807L4.90763 42.4888L4.854 40.2733L11.6605 40.2661L11.7076 42.4807Z" fill="white"/>
<path d="M19.3295 42.4716L12.5364 42.4798L12.4902 40.2652L19.2899 40.2581L19.3295 42.4716Z" fill="white"/>
<path d="M26.944 42.4625L20.1577 42.4706L20.1187 40.2574L26.9118 40.2502L26.944 42.4625Z" fill="white"/>
<path d="M11.792 46.4561L5.00374 46.4659L4.95044 44.2582L11.7449 44.2494L11.792 46.4561Z" fill="white"/>
<path d="M19.4005 46.445L12.6194 46.4548L12.5732 44.248L19.3612 44.2393L19.4005 46.445Z" fill="white"/>
<path d="M27.002 46.4339L20.2274 46.4437L20.1887 44.2379L26.9698 44.2291L27.002 46.4339Z" fill="white"/>
<path d="M11.8759 50.4178L5.09969 50.4292L5.04639 48.2292L11.8295 48.2185L11.8759 50.4178Z" fill="white"/>
<path d="M19.4718 50.4045L12.7021 50.4162L12.6562 48.2173L19.4322 48.2065L19.4718 50.4045Z" fill="white"/>
<path d="M27.0599 50.3916L20.297 50.4033L20.2583 48.2053L27.0277 48.1946L27.0599 50.3916Z" fill="white"/>
<path d="M11.9599 54.3657L5.19539 54.3793L5.14209 52.1865L11.9135 52.1742L11.9599 54.3657Z" fill="white"/>
<path d="M19.5423 54.3507L12.7843 54.364L12.7388 52.1725L19.5033 52.1602L19.5423 54.3507Z" fill="white"/>
<path d="M27.1175 54.3358L20.3662 54.3491L20.3279 52.1586L27.0856 52.1462L27.1175 54.3358Z" fill="white"/>
<path d="M12.0434 58.3004L5.29052 58.3154L5.23755 56.1304L11.9972 56.1161L12.0434 58.3004Z" fill="white"/>
<path d="M19.6129 58.2835L12.8665 58.2984L12.821 56.1144L19.5739 56.1001L19.6129 58.2835Z" fill="white"/>
<path d="M27.1749 58.2665L20.4351 58.2815L20.3967 56.0985L27.1431 56.0845L27.1749 58.2665Z" fill="white"/>
</g>
<path d="M74.7175 67.729C77.0984 67.8456 79.6744 64.8839 80.2142 61.9882C80.7696 59.0079 78.7975 58.0892 78.2239 54.1547C77.5723 49.6853 79.7953 48.6648 80.4326 42.4141C80.5763 41.0039 81.4086 32.8425 78.701 31.7404C76.1979 30.7216 70.3222 35.5969 69.938 40.7706C69.6641 44.4596 72.3833 45.5851 72.0512 49.8839C71.7597 53.6558 69.5698 54.0371 69.2533 57.6813C68.8681 62.1182 71.591 67.5756 74.7175 67.729Z" fill="#7D97F4"/>
<path d="M75.0472 68.7859C73.705 64.0662 73.8112 56.4593 74.1369 50.9093C74.4895 44.9003 75.1675 39.9405 75.1743 39.8911L75.3751 39.9187C75.3683 39.9681 74.6913 44.9211 74.339 50.9226C74.0143 56.4567 73.9074 64.0383 75.2422 68.7303L75.0472 68.7859Z" fill="#91B3FA"/>
<path d="M76.6338 66.9012C72.8339 65.6337 70.6308 59.5494 72.299 57.1909C73.4261 55.5974 75.5899 56.7385 77.2257 55.0121C79.3141 52.8079 77.0147 49.6518 78.174 44.8974C79.1607 40.8512 82.4068 36.6531 84.7562 37.0327C87.2155 37.4302 89.3595 42.9513 87.9139 46.7112C86.9737 49.1562 85.0052 49.5836 84.9067 51.7338C84.7926 54.2288 87.3839 54.9441 87.7713 57.2835C88.4668 61.4854 81.6609 68.5779 76.6338 66.9012Z" fill="#91B3FA"/>
<path d="M78.7837 68.206C78.7629 68.2093 78.7408 68.2083 78.7191 68.2015C78.6427 68.1784 78.5991 68.0975 78.6225 68.0211C81.7422 57.6955 81.3301 46.3608 81.3256 46.2474C81.3223 46.1674 81.3847 46.1002 81.4643 46.0969C81.5443 46.0937 81.6116 46.1557 81.6148 46.2357C81.6194 46.3494 82.0334 57.7329 78.8998 68.1046C78.8829 68.1595 78.8367 68.1976 78.7837 68.206Z" fill="#7D97F4"/>
<path d="M85.4276 48.5449C85.413 48.5472 85.3974 48.5449 85.3834 48.5371C85.3499 48.5186 85.3379 48.4766 85.3561 48.4432C86.5228 46.3245 87.6977 43.2337 86.6671 40.5418C86.0532 38.9385 84.9333 38.23 84.9222 38.2229C84.8897 38.2027 84.8796 38.1602 84.8998 38.1277C84.9199 38.0952 84.9625 38.0851 84.995 38.1052C85.0425 38.1345 86.166 38.8456 86.7962 40.492C87.3756 42.0052 87.6168 44.6247 85.4773 48.5095C85.4666 48.5293 85.4481 48.5416 85.4276 48.5449Z" fill="#BDD0FB"/>
<path d="M76.184 66.1147C76.1623 66.1182 76.1392 66.1111 76.123 66.0938C73.3413 63.162 72.1654 60.7408 72.6289 58.898C73.0407 57.2597 74.6533 56.7095 74.6696 56.704C74.706 56.6923 74.745 56.7118 74.757 56.7478C74.769 56.7839 74.7492 56.8232 74.7131 56.8353C74.6975 56.8405 73.1547 57.3689 72.7624 58.9335C72.3127 60.7271 73.4771 63.1042 76.2234 65.9986C76.2497 66.0263 76.2484 66.0701 76.2208 66.0965C76.2101 66.1065 76.1974 66.1127 76.184 66.1147Z" fill="#F0F0F0"/>
<path d="M50.5999 46.4294C60.8611 48.995 66.8814 55.8541 69.85 56.5473C72.8185 57.2409 84.7099 57.8753 86.6492 59.6767C88.5881 61.4782 86.736 62.7584 89.229 65.0747C91.9873 72.8578 83.4473 75.1864 83.4473 75.1864L5.81653 74.5559C5.81653 74.5559 0.577852 75.0268 0.461827 71.2854C0.345802 67.544 0.263902 65.8631 0.539177 62.4938C0.814452 59.1246 2.1749 58.7456 2.92533 56.9984C3.67575 55.2512 10.9635 55.0614 12.3818 53.1182C13.8001 51.1751 15.4888 48.0755 21.5062 47.019C29.8174 45.56 44.6482 44.9409 50.5999 46.4294Z" fill="url(#paint1_linear_3_4967)"/>
<path d="M0.0456543 71.0642C0.179229 75.3646 7.47028 74.6024 7.50213 74.5998C7.50213 74.5998 13.2988 70.1626 5.3243 70.3329C2.92808 70.2712 0.498379 69.0017 0.498379 69.0017L0.0456543 71.0642Z" fill="url(#paint2_linear_3_4967)"/>
<path d="M89.7012 66.9971C89.7012 66.9971 89.7776 68.0939 87.7226 69.2142C85.1756 70.6029 75.3223 69.0589 75.3223 69.0589V74.7672L83.6575 75.1923C83.4629 75.2452 94.6035 74.6034 89.7012 66.9971Z" fill="url(#paint3_linear_3_4967)"/>
<path d="M13.6959 58.7512C13.6959 58.7512 13.4457 56.7983 15.4971 54.4044C17.5485 52.0101 18.7458 50.4312 20.3236 50.0243C21.9012 49.6178 33.4474 48.0201 34.2057 49.2489C34.9639 50.4777 35.9408 58.0223 35.9408 58.0223L13.6959 58.7512Z" fill="url(#paint4_linear_3_4967)"/>
<path opacity="0.25" d="M20.533 49.8178C21.8265 49.6251 31.6477 48.4834 34.1833 48.809L34.8395 51.3333L13.6859 58.7498C13.6859 58.7498 13.5852 57.1427 14.6418 55.558C16.4172 52.8959 19.1807 49.9878 20.533 49.8178Z" fill="url(#paint5_linear_3_4967)"/>
<path d="M37.6594 49.2472C37.9792 50.7051 39.1576 57.8132 39.1576 57.8132L64.1244 57.6978C64.1244 57.6978 56.2542 50.4656 50.2043 49.3209C44.1538 48.1763 37.4549 48.4766 37.6594 49.2472Z" fill="url(#paint6_linear_3_4967)"/>
<path opacity="0.25" d="M49.3503 48.7844C44.422 48.1003 42.6153 48.2303 37.4495 48.6827L37.947 50.749C37.947 50.749 45.6356 49.241 52.7992 50.113C52.7992 50.1126 50.9591 49.0077 49.3503 48.7844Z" fill="url(#paint7_linear_3_4967)"/>
<path d="M86.0738 59.305C86.0738 59.305 82.0288 58.0082 81.0421 61.2059C80.1016 64.2544 89.2292 65.0747 89.2292 65.0747C89.2292 65.0747 88.5558 60.5523 86.0738 59.305Z" fill="#BDD0FB"/>
<path d="M12.314 55.2961C12.3364 55.2961 12.3592 55.2928 12.3819 55.286C13.3319 54.999 14.1317 53.9987 15.0583 52.8401C16.4113 51.1481 17.9446 49.2303 20.4455 48.7532C25.2415 47.8377 32.5111 47.2036 32.5839 47.1971C32.7133 47.1857 32.8088 47.072 32.7978 46.9429C32.7867 46.8136 32.6772 46.7167 32.5436 46.7291C32.4705 46.7353 25.1765 47.3719 20.3574 48.2917C17.6862 48.8016 16.0258 50.878 14.6914 52.5466C13.8139 53.6438 13.0563 54.5915 12.2464 54.8365C12.1219 54.8739 12.052 55.0052 12.0894 55.1294C12.12 55.2308 12.2132 55.2961 12.314 55.2961Z" fill="#91B3FA"/>
<path d="M4.88003 57.9588C4.96648 57.9588 5.04968 57.9107 5.09063 57.8282C5.48453 57.0339 7.22913 56.6738 8.91588 56.3257C9.5194 56.2012 10.1434 56.0725 10.717 55.922C10.8428 55.8889 10.9179 55.7608 10.8851 55.6354C10.8519 55.5096 10.7239 55.4362 10.5984 55.4674C10.0365 55.6146 9.41865 55.7423 8.8213 55.8655C6.9415 56.2535 5.1657 56.6201 4.6704 57.6195C4.61255 57.7359 4.66 57.8766 4.77635 57.9341C4.8095 57.951 4.84493 57.9588 4.88003 57.9588Z" fill="#91B3FA"/>
<path d="M39.183 74.0983C39.1908 74.0983 39.1986 74.0983 39.2061 74.0983C39.3426 74.0983 39.4518 73.9765 39.4498 73.84C39.4485 73.7412 39.3894 73.6525 39.3049 73.6141C38.819 72.8318 38.1882 64.3763 37.9012 59.1643C37.8937 59.0281 37.7774 58.9218 37.6409 58.9303C37.5047 58.9378 37.4004 59.0538 37.4078 59.19C37.4098 59.2267 37.6132 62.9099 37.9048 66.5372C38.4979 73.9199 38.8635 74.0983 39.183 74.0983Z" fill="#91B3FA"/>
<path d="M30.7443 74.5358C30.8006 74.2076 30.8318 73.735 30.8318 73.3073C30.8318 68.1863 26.6802 64.0507 21.5592 64.0507C16.4382 64.0507 12.2866 68.1782 12.2866 73.2992C12.2866 73.7269 12.3181 74.2076 12.374 74.5355H30.7443V74.5358Z" fill="#7D97F4"/>
<path d="M21.4875 80.6416C25.6614 80.6416 29.045 77.258 29.045 73.084C29.045 68.9101 25.6614 65.5265 21.4875 65.5265C17.3136 65.5265 13.9299 68.9101 13.9299 73.084C13.9299 77.258 17.3136 80.6416 21.4875 80.6416Z" fill="url(#paint8_linear_3_4967)"/>
<path opacity="0.54" d="M21.4874 79.2213C24.8769 79.2213 27.6247 76.4735 27.6247 73.084C27.6247 69.6944 24.8769 66.9467 21.4874 66.9467C18.0979 66.9467 15.3501 69.6944 15.3501 73.084C15.3501 76.4735 18.0979 79.2213 21.4874 79.2213Z" fill="url(#paint9_linear_3_4967)"/>
<path d="M26.6426 75.3086C26.6283 75.3086 26.614 75.3057 26.6 75.2998C26.5444 75.2764 26.5184 75.2121 26.5418 75.1565C26.8194 74.5003 26.9601 73.8029 26.9601 73.084C26.9601 70.1479 24.5717 67.7595 21.6356 67.7595C20.725 67.7595 19.8261 67.9935 19.0366 68.4358C18.9837 68.4654 18.917 68.4465 18.8878 68.3939C18.8582 68.3412 18.8771 68.2743 18.9297 68.2451C19.752 67.7842 20.6876 67.5408 21.636 67.5408C24.6926 67.5408 27.1795 70.0277 27.1795 73.084C27.1795 73.8324 27.0329 74.5582 26.7437 75.2416C26.7258 75.2836 26.6852 75.3086 26.6426 75.3086Z" fill="#91B3FA"/>
<path d="M76.7976 74.9736C76.8538 74.6453 76.885 74.1939 76.885 73.7662C76.885 68.6452 72.7334 64.5203 67.6124 64.5203C62.4914 64.5203 58.3398 68.6318 58.3398 73.7532C58.3398 74.1809 58.3714 74.6456 58.4273 74.9739H76.7976V74.9736Z" fill="#7D97F4"/>
<path d="M67.5407 81.1212C71.7146 81.1212 75.0983 77.7376 75.0983 73.5637C75.0983 69.3897 71.7146 66.0061 67.5407 66.0061C63.3668 66.0061 59.9832 69.3897 59.9832 73.5637C59.9832 77.7376 63.3668 81.1212 67.5407 81.1212Z" fill="url(#paint10_linear_3_4967)"/>
<path opacity="0.54" d="M67.5406 79.701C70.9301 79.701 73.6779 76.9532 73.6779 73.5637C73.6779 70.1742 70.9301 67.4264 67.5406 67.4264C64.1511 67.4264 61.4033 70.1742 61.4033 73.5637C61.4033 76.9532 64.1511 79.701 67.5406 79.701Z" fill="url(#paint11_linear_3_4967)"/>
<path d="M72.6958 75.7883C72.6815 75.7883 72.6672 75.7854 72.6532 75.7796C72.5977 75.7562 72.5717 75.6918 72.5951 75.6362C72.8726 74.9801 73.0133 74.2826 73.0133 73.5637C73.0133 70.6277 70.6249 68.2392 67.6889 68.2392C66.7782 68.2392 65.8793 68.4732 65.0898 68.9156C65.0369 68.9451 64.9702 68.9263 64.941 68.8736C64.9114 68.821 64.9303 68.754 64.9829 68.7248C65.8052 68.2639 66.7408 68.0205 67.6892 68.0205C70.7458 68.0205 73.2327 70.5074 73.2327 73.564C73.2327 74.3125 73.0861 75.0386 72.7969 75.7217C72.779 75.7633 72.7387 75.7883 72.6958 75.7883Z" fill="#91B3FA"/>
<path d="M60.0348 57.1713L58.1397 55.1849C57.3499 54.3571 56.3561 53.7919 55.2768 53.5573L51.5285 52.7419C50.4999 52.5179 49.5155 53.296 49.403 54.4215L49.3767 54.6857C49.262 55.832 50.1015 56.8291 51.1701 56.8161L55.9989 56.7569C56.6723 56.7488 57.2843 57.1781 57.5501 57.8457L57.6392 58.0689C57.7572 58.3653 58.0276 58.5571 58.3262 58.5571H59.5135C60.1849 58.5571 60.5164 57.6763 60.0348 57.1713Z" fill="url(#paint12_linear_3_4967)"/>
<path d="M40.4895 59.4392H46.7516C47.2401 59.4392 47.5843 59.9628 47.415 60.4571C47.1283 61.2933 46.4461 62.36 44.8241 62.4845C43.3651 62.5966 41.5266 61.7054 40.1395 60.8588C39.511 60.475 39.7671 59.4392 40.4895 59.4392Z" fill="#7D97F4"/>
<path d="M0.513955 62.4943L1.60888 62.6893C1.9732 62.7543 2.2384 63.0708 2.2384 63.441V66.0247C2.2384 66.4453 1.89748 66.7862 1.47693 66.7862H0.38623L0.513955 62.4943Z" fill="#91B3FA"/>
<path d="M61.4954 21.4285C61.4954 27.0358 66.2127 31.5812 72.0319 31.5812C77.851 31.5812 82.829 26.8372 82.829 21.23C82.829 15.6228 77.851 11.2759 72.0319 11.2759C66.2127 11.2759 61.4954 15.8213 61.4954 21.4285Z" fill="url(#paint13_linear_3_4967)"/>
<path d="M82.0017 18.9599C82.0079 18.9599 82.0144 18.9592 82.0206 18.9576C82.0596 18.9475 82.0826 18.9092 82.0722 18.8718C81.9588 18.4617 81.8142 18.0548 81.6416 17.6625C81.626 17.6267 81.5831 17.6105 81.5464 17.6251C81.5093 17.6404 81.4921 17.6813 81.5077 17.7171C81.6774 18.1032 81.82 18.5039 81.9315 18.9079C81.94 18.9394 81.9695 18.9599 82.0017 18.9599Z" fill="#91B3FA"/>
<path d="M80.3914 15.7872C80.4067 15.7872 80.422 15.7826 80.4353 15.7732C80.4675 15.7498 80.4737 15.7059 80.4496 15.6751C78.4973 13.1807 75.353 11.6915 72.038 11.6915C70.6223 11.6915 69.253 11.9681 67.968 12.5135C67.9313 12.5291 67.9147 12.5707 67.9306 12.6058C67.9469 12.6412 67.9898 12.6571 68.0265 12.6418C69.2927 12.1043 70.6421 11.8316 72.0376 11.8316C75.3071 11.8316 78.4083 13.3 80.3329 15.7592C80.3476 15.7774 80.3693 15.7872 80.3914 15.7872Z" fill="#91B3FA"/>
<path d="M62.9285 21.4285C62.9285 26.282 67.0118 30.2168 72.0489 30.2168C77.0861 30.2168 81.395 26.1101 81.395 21.2565C81.395 16.403 77.0861 12.6401 72.0489 12.6401C67.0118 12.6401 62.9285 16.5749 62.9285 21.4285Z" fill="url(#paint14_linear_3_4967)"/>
<path d="M72.3065 12.6477L71.9032 21.0425L62.873 21.0503C62.8675 21.1757 62.8633 21.3018 62.8633 21.4286C62.8633 26.2821 66.9466 30.2169 71.9838 30.2169C77.0209 30.2169 81.3298 26.1102 81.3298 21.2566C81.3298 16.5071 77.2033 12.8047 72.3065 12.6477Z" fill="url(#paint15_linear_3_4967)"/>
<path opacity="0.78" d="M63.8945 21.8234C63.917 22.1965 64.2491 22.4812 64.6362 22.4594C65.0233 22.4376 65.319 22.1178 65.2963 21.7447C65.2738 21.3716 64.9417 21.0869 64.5546 21.1087C64.1675 21.1305 63.8718 21.4503 63.8945 21.8234Z" fill="white"/>
<path opacity="0.78" d="M73.4196 27.895C73.0381 27.9623 72.7852 28.3146 72.8551 28.6821C72.9247 29.0497 73.2906 29.2935 73.6722 29.2262C74.0537 29.1589 74.3066 28.8066 74.2367 28.439C74.1668 28.0715 73.8012 27.828 73.4196 27.895Z" fill="white"/>
<path opacity="0.78" d="M70.6892 13.4914C70.3076 13.5587 70.0548 13.911 70.1246 14.2785C70.1942 14.6461 70.5601 14.8895 70.9417 14.8226C71.3232 14.7553 71.5761 14.403 71.5062 14.0354C71.4363 13.6675 71.0704 13.4241 70.6892 13.4914Z" fill="white"/>
<path opacity="0.78" d="M68.4271 28.2817C68.3556 28.4553 68.3735 28.6178 68.4668 28.6444C68.5601 28.6714 68.6936 28.5524 68.7651 28.3789C68.8366 28.2053 68.8188 28.0428 68.7252 28.0162C68.6322 27.9895 68.4986 28.1085 68.4271 28.2817Z" fill="white"/>
<path opacity="0.78" d="M65.241 25.6847C65.0866 25.7971 65.0141 25.945 65.0794 26.0145C65.1448 26.0841 65.3229 26.0496 65.4772 25.9369C65.6316 25.8244 65.7041 25.6765 65.6388 25.607C65.5734 25.5374 65.3953 25.5722 65.241 25.6847Z" fill="white"/>
<path opacity="0.78" d="M64.8404 17.9491C64.6655 17.8688 64.4962 17.875 64.4621 17.963C64.428 18.0511 64.542 18.1873 64.7169 18.2676C64.8917 18.3478 65.0611 18.3417 65.0952 18.2536C65.1293 18.1655 65.0152 18.0293 64.8404 17.9491Z" fill="white"/>
<path opacity="0.78" d="M78.5789 24.7315C78.4041 24.6513 78.2347 24.6574 78.2006 24.7455C78.1665 24.8336 78.2806 24.9698 78.4554 25.05C78.6303 25.1303 78.7996 25.1241 78.8337 25.0361C78.8678 24.948 78.7538 24.8118 78.5789 24.7315Z" fill="white"/>
<path opacity="0.78" d="M67.7433 15.0595C67.637 14.9035 67.4888 14.8242 67.4125 14.8821C67.3358 14.9402 67.3601 15.1138 67.4661 15.2698C67.5724 15.4258 67.7206 15.5051 67.7969 15.4472C67.8733 15.3891 67.8493 15.2155 67.7433 15.0595Z" fill="white"/>
<path opacity="0.78" d="M75.8298 27.7293C75.7236 27.5733 75.5754 27.494 75.499 27.5519C75.4226 27.61 75.4467 27.7836 75.5526 27.9396C75.6589 28.0956 75.8071 28.1749 75.8835 28.117C75.9602 28.0589 75.9361 27.8853 75.8298 27.7293Z" fill="white"/>
<path d="M72.1549 21.3646L65.8987 21.2037C65.7774 21.2004 65.6933 21.3249 65.7446 21.4309L66.0517 22.0601C66.1115 22.1826 65.9906 22.3194 65.8571 22.2807L60.7188 20.7961C60.5615 20.7506 60.5745 20.5293 60.7367 20.4932L65.9711 19.3262C66.0963 19.2982 66.1993 19.4165 66.1515 19.5335L65.8301 20.3187C65.7904 20.4159 65.8554 20.5205 65.9607 20.5293L72.1822 21.0522C72.269 21.0594 72.3317 21.1332 72.3239 21.218C72.3158 21.3018 72.2414 21.3665 72.1549 21.3646Z" fill="url(#paint16_linear_3_4967)"/>
<path d="M61.3037 20.5507C61.256 20.5722 61.2241 20.6174 61.2218 20.6707C61.2189 20.7344 61.2592 20.7877 61.3216 20.8036L62.4269 21.0863C62.4653 21.0961 62.5056 21.0733 62.5163 21.0356C62.5274 20.9979 62.5053 20.9596 62.4669 20.9495L61.3616 20.6668C62.5537 20.4181 65.3337 19.8101 65.3887 19.7915C65.426 19.7795 65.4478 19.7386 65.4358 19.7018C65.4237 19.6654 65.3841 19.6459 65.3464 19.658C65.2648 19.6804 63.1348 20.1474 61.3327 20.5413C61.3229 20.5433 61.3132 20.5465 61.3037 20.5507Z" fill="#BDD0FB"/>
<path d="M71.7447 20.8894L71.7558 15.575C71.7538 15.4573 71.6225 15.3842 71.5156 15.4414L70.8812 15.7823C70.7577 15.8486 70.6118 15.7411 70.6459 15.6088L71.9583 10.5277C71.9986 10.3724 72.2267 10.3698 72.2706 10.5242L73.6912 15.5155C73.7253 15.6348 73.6076 15.743 73.4854 15.7047L72.6642 15.4473C72.5628 15.4154 72.4575 15.4856 72.4529 15.5883L72.0675 20.8939C72.0636 20.9784 71.9904 21.0444 71.9027 21.0428C71.8159 21.0405 71.746 20.9729 71.7447 20.8894Z" fill="url(#paint17_linear_3_4967)"/>
<path d="M73.2554 15.0279C73.2642 15.0279 73.2733 15.0263 73.282 15.023C73.3191 15.0091 73.3373 14.9691 73.3236 14.9333C73.2973 14.8563 72.7273 12.8244 72.2463 11.1052C72.2294 11.0444 72.1754 11.0044 72.1085 11.006C72.0428 11.0077 71.9895 11.0502 71.9759 11.112L71.7311 12.2027C71.7227 12.2404 71.7477 12.2778 71.787 12.2859C71.826 12.2943 71.865 12.2703 71.8735 12.2323L72.1182 11.1416C72.424 12.2794 73.1667 14.9311 73.1878 14.9831C73.1992 15.011 73.2265 15.0279 73.2554 15.0279Z" fill="#BDD0FB"/>
<path d="M72.0965 21.8965C72.5108 21.8965 72.8466 21.573 72.8466 21.174C72.8466 20.775 72.5108 20.4515 72.0965 20.4515C71.6823 20.4515 71.3464 20.775 71.3464 21.174C71.3464 21.573 71.6823 21.8965 72.0965 21.8965Z" fill="url(#paint18_linear_3_4967)"/>
<path opacity="0.78" d="M74.5304 14.6197C74.4589 14.7933 74.4768 14.9558 74.5704 14.9824C74.6636 15.0094 74.7972 14.8905 74.8687 14.7169C74.9402 14.5434 74.9223 14.3809 74.8287 14.3542C74.7351 14.3276 74.6016 14.4462 74.5304 14.6197Z" fill="white"/>
<path opacity="0.78" d="M77.8189 17.0619C77.6645 17.1743 77.592 17.3222 77.6573 17.3917C77.7227 17.4616 77.9008 17.4268 78.0551 17.3141C78.2095 17.2016 78.282 17.0537 78.2167 16.9842C78.1513 16.9146 77.9732 16.9494 77.8189 17.0619Z" fill="white"/>
<path d="M13.7959 90.1753C13.7962 90.1445 13.7943 90.1136 13.7865 90.0821C13.3214 88.238 11.0129 87.0895 11.0129 87.0895L10.0981 87.1613C9.57221 88.7866 9.63981 89.7834 9.72431 90.2274C9.72659 90.2397 9.73049 90.2517 9.73374 90.2638C10.4884 90.331 12.0416 90.3749 13.7959 90.1753Z" fill="url(#paint19_linear_3_4967)"/>
<path d="M9.73389 90.2634C9.77451 90.4116 9.88404 90.527 10.0241 90.5566C11.0976 90.7825 12.8035 90.6008 13.5198 90.5069C13.6778 90.4861 13.7935 90.3401 13.7961 90.175C12.0417 90.3749 10.4885 90.331 9.73389 90.2634Z" fill="url(#paint20_linear_3_4967)"/>
<path d="M9.73047 85.7986L10.1179 87.6638C10.1461 87.8006 10.2511 87.9026 10.3785 87.9147C10.5342 87.9293 10.7558 87.9377 10.9788 87.9052C11.1787 87.876 11.3178 87.6729 11.2823 87.4548L11.0129 85.7986H9.73047Z" fill="url(#paint21_linear_3_4967)"/>
<path d="M17.7577 90.24C16.7472 90.2118 16.225 90.0928 15.9546 89.9823C15.9539 90.0827 15.9546 90.1851 15.9578 90.291C15.9614 90.4041 16.0449 90.4945 16.1483 90.4938L21.6954 90.4581C21.8725 90.4571 21.9758 90.2517 21.8991 90.0892C21.1721 90.149 19.3196 90.2836 17.7577 90.24Z" fill="url(#paint22_linear_3_4967)"/>
<path d="M21.8992 90.0893C21.8923 90.0753 21.8868 90.0607 21.8771 90.0474C21.3873 89.3629 20.1396 87.9999 17.6738 87.4087L16.4912 87.3713C16.4912 87.3713 15.9643 88.2869 15.9546 89.9824C16.2247 90.0929 16.7473 90.2118 17.7577 90.2401C19.3196 90.2837 21.1721 90.1491 21.8992 90.0893Z" fill="url(#paint23_linear_3_4967)"/>
<path d="M16.2195 85.6338C16.238 85.7209 16.4844 87.0482 16.5796 87.5627C16.6023 87.6849 16.6976 87.7746 16.811 87.7811C17.0135 87.7925 17.3401 87.7938 17.6212 87.7174C17.7727 87.6761 17.8747 87.5217 17.8637 87.3501L17.7314 85.251L16.2195 85.6338Z" fill="url(#paint24_linear_3_4967)"/>
<path d="M15.3231 61.1299C15.3231 61.1299 16.9501 72.3102 18.1243 85.6144C18.1461 85.862 17.9488 86.0778 17.7054 86.1292C17.3466 86.2046 16.8194 86.2943 16.383 86.2823C16.1499 86.2758 15.9553 86.1029 15.9159 85.8731C15.5159 83.5272 12.6617 70.9377 11.9126 68.1671C11.9126 68.1671 11.052 79.937 11.3273 86.0431C11.3341 86.1948 11.2229 86.3265 11.0718 86.344C10.8427 86.3703 10.4764 86.3905 10.01 86.3411C9.83291 86.3222 9.69023 86.1883 9.66488 86.0122C9.37986 84.0268 7.73991 72.2098 7.80979 63.697C7.81369 63.217 8.37301 59.2728 8.37301 59.2728L15.3231 61.1299Z" fill="#230300"/>
<path d="M29.2699 50.4409C29.2699 50.4409 28.8143 49.242 28.2826 49.3518C27.7505 49.4617 27.1685 49.8702 27.1685 49.8702L26.3137 51.0262C26.3137 51.0262 28.7129 51.9713 29.5569 51.4299C29.5569 51.4299 32.0077 51.8534 35.1024 51.3454C34.6545 50.3996 34.3874 49.4526 34.2307 48.7178C32.6629 49.6047 30.9745 50.2674 29.2699 50.4409Z" fill="url(#paint25_linear_3_4967)"/>
<path d="M42.2515 41.7439C42.2515 41.7439 38.7428 46.1632 34.2305 48.7174C34.3871 49.4526 34.6543 50.3993 35.1021 51.345C37.4428 50.9609 40.152 50.0444 42.4484 48.0073L42.2515 41.7439Z" fill="#7E2018"/>
<path d="M15.9536 42.3286L16.1714 48.1789C16.7902 48.3918 17.3791 48.5576 17.94 48.6811C18.291 47.5514 19.0635 46.1649 19.696 45.1343C17.3719 44.3127 15.9536 42.3286 15.9536 42.3286Z" fill="#641710"/>
<path d="M27.5581 42.2288C24.3696 45.6712 21.7891 45.874 19.6964 45.1343C19.0636 46.1652 18.2911 47.5516 17.9404 48.681C26.4551 50.5582 28.46 42.7306 28.46 42.7306L27.5581 42.2288Z" fill="url(#paint26_linear_3_4967)"/>
<path d="M8.12848 61.7743C7.96111 61.7148 7.84443 61.563 7.82623 61.3866C7.60978 59.2874 6.56231 46.2718 13.1761 40.9181C13.1761 40.9181 13.5553 39.9258 16.6731 42.365C19.7908 44.8044 18.1216 47.3612 17.3751 50.8878C16.4719 55.1553 14.8872 58.6436 15.5882 61.2696C15.6366 61.4509 15.5414 61.641 15.3653 61.706C12.9437 62.5985 10.5312 62.6281 8.12848 61.7743Z" fill="#952D24"/>
<path d="M15.7564 37.0184C15.7545 37.2037 13.1135 40.9548 13.1135 40.9548C13.1135 40.9548 13.5877 41.8886 15.8507 42.6465L17.8042 38.6301L15.7564 37.0184Z" fill="url(#paint27_linear_3_4967)"/>
<path d="M14.7178 49.8975C14.7178 49.8975 19.7283 54.0939 25.1389 52.2629C25.4746 52.1494 25.8415 52.1738 26.1548 52.3392L27.7103 53.1608C28.3632 53.5057 29.1718 53.2791 29.5504 52.6457C29.7666 52.2843 29.9508 51.8712 29.9876 51.4757L26.9439 50.2436L27.1685 49.8705C27.1685 49.8705 25.6823 49.7448 25.2936 50.8098C25.2936 50.8098 22.4632 51.9873 17.6896 46.7366C17.6896 46.7362 15.5234 48.578 14.7178 49.8975Z" fill="url(#paint28_linear_3_4967)"/>
<path d="M14.4478 49.854C14.4312 49.854 14.4147 49.8494 14.4 49.8394C12.2901 48.4139 11.2979 46.1132 11.2878 46.0902C11.2693 46.0463 11.2898 45.9962 11.3333 45.9777C11.3772 45.9592 11.4273 45.9793 11.4458 46.0232C11.4552 46.046 12.4296 48.3011 14.4959 49.6973C14.5352 49.7237 14.5456 49.7769 14.519 49.8166C14.5024 49.8406 14.4754 49.854 14.4478 49.854Z" fill="#641710"/>
<path d="M17.5904 46.665C17.5621 46.665 17.5345 46.651 17.5182 46.6257C17.5117 46.6159 16.8673 45.6127 15.6397 43.4144C15.2621 42.7384 14.7661 42.3103 14.1652 42.1423C13.1701 41.8641 12.211 42.3978 12.2012 42.4033C12.16 42.426 12.1076 42.4124 12.0842 42.3711C12.0608 42.3298 12.0751 42.2775 12.1164 42.2541C12.1577 42.2307 13.1444 41.6785 14.2097 41.9769C14.8571 42.1576 15.3885 42.6129 15.7896 43.3308C17.0142 45.5236 17.656 46.5233 17.6625 46.5331C17.6882 46.5727 17.6768 46.626 17.6369 46.6517C17.6226 46.6605 17.6063 46.665 17.5904 46.665Z" fill="#641710"/>
<path d="M17.8355 34.8689C17.8355 34.8689 18.775 37.0275 18.8384 38.1605C18.9015 39.2934 19.1455 40.0286 17.8355 40.2567C16.5254 40.4849 15.4217 39.8323 14.824 38.7036C14.824 38.7036 13.8874 36.9645 14.0973 36.2524C14.3076 35.5403 17.8355 34.8689 17.8355 34.8689Z" fill="url(#paint29_linear_3_4967)"/>
<path d="M15.2717 37.8924L15.3461 37.8595C15.441 37.8176 15.4817 37.7045 15.4339 37.6125C15.2493 37.2557 14.8889 36.4377 15.3543 36.2469C15.9539 36.0009 18.329 35.5166 18.8412 34.6739C19.3336 33.864 18.8974 32.8185 18.2416 32.5211C18.1977 32.5013 18.146 32.5169 18.1233 32.5594L18.0687 32.6628C18.0313 32.7336 17.9266 32.7229 17.9045 32.6459C17.8831 32.5721 17.7849 32.5578 17.7443 32.6228C17.5867 32.875 17.1616 33.2839 16.0244 33.4935C14.4082 33.7918 13.3396 34.4457 13.3133 35.5628C13.3116 35.6336 13.2362 35.6733 13.1755 35.6362C13.0562 35.5634 12.8651 35.5293 12.61 35.7441C12.166 36.1172 12.3477 37.0854 13.3207 37.882C13.3669 37.9197 13.3666 37.9918 13.3165 38.0246C13.14 38.1394 12.8771 38.4127 13.5586 38.777C14.2632 39.1537 14.7897 39.1228 14.9922 39.0893C15.0426 39.0809 15.0751 39.0321 15.064 38.9824L14.8479 38.0009C14.8356 37.9453 14.8778 37.8927 14.9347 37.8927H15.2717V37.8924Z" fill="url(#paint30_linear_3_4967)"/>
<path d="M15.3125 38.0993C15.3125 38.0993 14.954 36.7204 14.3359 37.1071C13.7177 37.4939 14.6566 38.6522 15.1536 38.7038L15.3125 38.0993Z" fill="url(#paint31_linear_3_4967)"/>
<path d="M26.1548 52.3392C26.1548 52.3392 27.4281 53.5846 27.6738 53.4032C27.7613 53.3389 27.9819 53.1046 28.1958 52.8436C28.3466 52.6593 28.3625 52.3993 28.2328 52.1994L27.9325 51.736C27.6462 51.2943 27.0336 51.2017 26.6368 51.5472C26.4366 51.7217 26.2549 51.9739 26.1548 52.3392Z" fill="url(#paint32_linear_3_4967)"/>
<path d="M46.627 61.3316C45.9409 58.0722 45.2545 56.1853 42.9571 50.0073C42.234 48.0632 41.5775 46.0963 41.8947 44.0462L42.2512 41.7439C42.2512 41.7439 46.7164 40.233 51.6658 41.6802C51.6658 41.6802 58.4183 44.6137 53.8319 59.1012C51.7643 61.4145 49.345 62.0736 46.627 61.3316Z" fill="#952D24"/>
<path d="M43.0115 38.8059L44.1691 41.5876C44.2422 41.7634 44.4002 41.8886 44.588 41.9207C45.2556 42.0351 46.8702 42.2139 47.9303 41.5168C48.0568 41.4336 48.0889 41.262 48.0025 41.1378L45.8633 38.0669L43.0115 38.8059Z" fill="url(#paint33_linear_3_4967)"/>
<path d="M44.2088 34.55C44.16 34.5958 42.1567 38.5303 42.1567 38.5303L44.4275 39.6265L46.8806 36.1796C46.8803 36.1796 45.0229 33.7837 44.2088 34.55Z" fill="url(#paint34_linear_3_4967)"/>
<path d="M45.8483 36.5933L44.7157 38.4812C44.6985 38.5098 44.678 38.5358 44.6536 38.5586C44.5187 38.684 44.0576 39.049 43.701 38.5521C43.3972 38.1286 43.1118 37.7435 42.8063 37.5845C42.6279 37.4919 42.4082 37.566 42.3175 37.7454C42.131 38.1153 41.7696 38.8693 41.5424 39.5839C41.4855 39.763 41.5778 39.9554 41.7523 40.0259C42.2122 40.2122 43.1209 40.5492 43.9272 40.6603C44.0598 40.6785 44.1908 40.6226 44.2698 40.5147C44.6169 40.0396 45.5948 38.711 45.9283 38.3785C46.2383 38.0698 46.8106 38.1861 47.0684 38.2602C47.1662 38.2885 47.2705 38.2748 47.3576 38.2222C47.6192 38.0646 48.0759 37.6723 47.6582 37.0077C47.5542 36.8426 47.6072 36.6226 47.7704 36.5153C48.0625 36.3232 48.3794 35.9625 48.0775 35.3784C47.7717 34.7873 47.226 34.734 46.8542 34.7795C46.6897 34.7996 46.5227 34.7132 46.4596 34.5601C46.4317 34.4919 46.3761 34.434 46.2728 34.4129C46.0778 34.3732 45.95 34.1951 45.9884 34.0001C46.054 33.6654 46.0046 33.2308 45.4703 32.937C44.4905 32.3982 43.6321 33.276 43.4141 34.017C43.1957 34.758 44.2912 35.2816 44.9806 35.369C45.4866 35.4334 45.7641 35.9855 45.8759 36.2745C45.9159 36.3798 45.9062 36.4968 45.8483 36.5933Z" fill="url(#paint35_linear_3_4967)"/>
<path d="M45.5029 39.0723C45.5029 39.0723 45.9388 37.7974 46.4965 37.8442C47.0542 37.891 47.4932 38.4464 46.802 39.071C45.942 39.8481 45.5029 39.0723 45.5029 39.0723Z" fill="url(#paint36_linear_3_4967)"/>
<path d="M46.1877 90.0565C47.2661 90.1498 49.1378 90.3012 50.6133 90.3662C51.5002 90.4052 52.0108 90.3185 52.3049 90.2008C52.3042 90.234 52.3036 90.2652 52.3023 90.2944C52.2955 90.4498 52.169 90.5739 52.0124 90.5827C49.2242 90.7384 47.0071 90.6366 46.2176 90.5885C46.0545 90.5785 45.957 90.4013 46.0405 90.2619C46.0824 90.192 46.1328 90.1238 46.1877 90.0565Z" fill="url(#paint37_linear_3_4967)"/>
<path d="M50.6133 90.3659C49.1378 90.3009 47.2661 90.1494 46.1877 90.0562C47.2479 88.7555 50.6133 87.8787 50.6133 87.8787H51.5639C52.2175 88.8208 52.3124 89.7182 52.3052 90.2001C52.0111 90.3181 51.5002 90.4049 50.6133 90.3659Z" fill="url(#paint38_linear_3_4967)"/>
<path d="M51.7237 86.3271L51.6347 88.0873C51.6249 88.2778 51.4822 88.438 51.2915 88.4653C51.1017 88.4926 50.8472 88.4959 50.5774 88.4062C50.4114 88.3509 50.2882 88.2112 50.2576 88.0405L49.9502 86.3271H51.7237Z" fill="url(#paint39_linear_3_4967)"/>
<path d="M64.0688 90.3528C64.5364 90.2875 64.748 90.0447 64.8367 89.785C64.8374 89.7873 64.838 89.7896 64.8384 89.7922C64.9073 90.0662 64.7477 90.3502 64.4289 90.4851C64.0434 90.6482 63.6219 90.6762 63.2949 90.6625C62.9439 90.6479 62.6219 90.5026 62.4447 90.2703L62.4421 90.2667C62.7941 90.4409 63.2888 90.4614 64.0688 90.3528Z" fill="url(#paint40_linear_3_4967)"/>
<path d="M61.8638 86.3157H62.6477C63.8418 86.2914 64.5915 88.8095 64.8369 89.7848C64.7482 90.0445 64.5366 90.2875 64.0689 90.3525C63.2889 90.4614 62.7943 90.4409 62.442 90.2664C61.7969 89.4175 61.4771 88.1744 61.3233 87.449C61.1488 86.6241 61.8638 86.3157 61.8638 86.3157Z" fill="url(#paint41_linear_3_4967)"/>
<path d="M62.547 84.6823L62.9821 86.4135C63.0354 86.6257 62.934 86.8454 62.7377 86.9459C62.4943 87.0707 62.1514 87.202 61.8365 87.1643C61.6883 87.1464 61.5651 87.0421 61.5164 86.9026L60.8774 85.0813L62.547 84.6823Z" fill="url(#paint42_linear_3_4967)"/>
<path d="M63.0662 85.1825C62.5248 85.6628 60.7633 85.7262 60.7633 85.7262C54.4186 70.4983 51.7735 66.3061 51.7735 66.3061C52.6896 72.0538 51.9711 86.8075 51.9711 86.8075C50.9239 87.2696 49.5742 86.8075 49.5742 86.8075C49.489 77.3977 48.1643 67.2867 46.4558 60.8169C50.7442 60.7204 53.0744 59.7857 53.8193 59.1968C57.3934 64.9597 63.0662 85.1825 63.0662 85.1825Z" fill="#230300"/>
<path d="M27.2883 41.5576C27.2883 41.5576 27.0094 41.0532 27.0393 40.6476C27.0692 40.242 26.8164 39.646 27.0855 39.6902C27.3546 39.7344 27.4101 39.6983 27.4829 40.1852C27.5561 40.672 28.2129 42.4676 27.2883 41.5576Z" fill="url(#paint43_linear_3_4967)"/>
<path d="M29.3211 38.5459C29.3182 38.4699 29.2812 38.399 29.2207 38.3526C29.1603 38.3061 29.0823 38.2892 29.0078 38.3061L27.1521 38.7283C27.0799 38.7445 27.0318 38.8124 27.04 38.8859L27.5795 43.7089C27.5817 43.7297 27.5925 43.7485 27.6087 43.7615C27.625 43.7745 27.6461 43.7804 27.6669 43.7778L29.2867 43.5815C29.4193 43.5656 29.5174 43.4502 29.5122 43.3166L29.3211 38.5459Z" fill="url(#paint44_linear_3_4967)"/>
<path d="M28.7993 38.8241C28.797 38.7809 28.7752 38.7409 28.7405 38.7152C28.7057 38.6895 28.6612 38.6808 28.6192 38.6912L27.3982 38.9963C27.3277 39.0139 27.2809 39.0812 27.289 39.1533L27.7521 43.2607C27.7544 43.2821 27.7658 43.3016 27.783 43.3146C27.8002 43.3276 27.8223 43.3328 27.8438 43.3289L28.9696 43.1284C29.0086 43.1216 29.0362 43.0865 29.0343 43.0468L28.7993 38.8241Z" fill="url(#paint45_linear_3_4967)"/>
<path d="M28.0977 38.7137C28.1006 38.7283 28.0808 38.7445 28.0532 38.7504L27.645 38.8349C27.6173 38.8407 27.5923 38.8336 27.5894 38.819L27.5865 38.8047C27.5835 38.79 27.6034 38.7738 27.631 38.7679L28.0392 38.6834C28.0668 38.6776 28.0918 38.6847 28.0948 38.6994L28.0977 38.7137Z" fill="url(#paint46_linear_3_4967)"/>
<path d="M29.9655 39.7715C29.6656 39.661 29.0789 38.6457 28.9668 38.9798C28.8547 39.3139 29.0143 39.7715 28.9668 39.9135C28.9194 40.0555 28.5947 40.8446 28.7409 41.2076C28.8462 41.4696 29.0201 42.2756 29.1088 42.7043C29.1384 42.8466 29.2635 42.9483 29.4088 42.9487C29.5541 42.9487 29.6795 42.8469 29.7091 42.7046C29.7205 42.6474 30.2652 39.882 29.9655 39.7715Z" fill="url(#paint47_linear_3_4967)"/>
<path d="M49.5983 56.8938C49.4544 56.924 49.339 57.0134 49.2834 57.1375L48.5132 58.8565C48.4111 59.0843 48.534 59.3657 48.7904 59.4918L52.6956 61.4132C52.8298 61.4792 52.9822 61.4925 53.1148 61.4496C53.2474 61.4067 53.3479 61.3118 53.3914 61.1883L53.8451 59.8961C53.9156 59.6956 53.8224 59.4613 53.6196 59.3287L50.0306 56.9802C49.9006 56.8951 49.7423 56.8636 49.5983 56.8938Z" fill="url(#paint48_linear_3_4967)"/>
<path d="M56.2338 53.386C57.0687 47.0787 52.208 42.2288 52.208 42.2288L49.3162 45.6003C51.5119 48.3371 52.5554 50.8448 53.0322 52.8147C53.6643 52.6304 55.1866 52.3395 56.2338 53.386Z" fill="#7E2018"/>
<path d="M53.032 52.9938C52.9514 52.9938 52.8779 52.9389 52.8581 52.857C52.2705 50.4289 51.0316 48.0252 49.1765 45.7128C49.1144 45.6358 49.1268 45.523 49.2041 45.4609C49.2812 45.3992 49.3939 45.4115 49.456 45.4886C51.3446 47.8425 52.6062 50.2934 53.2065 52.7728C53.2299 52.869 53.1708 52.9658 53.0746 52.9889C53.0603 52.9922 53.046 52.9938 53.032 52.9938Z" fill="#641710"/>
<path d="M53.0741 52.9885C53.5171 54.8193 53.4283 56.2454 53.3611 56.8973C53.3357 57.143 53.1381 57.3351 52.8914 57.3523C52.6113 57.3718 52.2301 57.3975 51.8895 57.4173C51.5151 57.4388 51.0994 57.2022 50.8215 57.0046C50.6795 56.9035 50.4962 57.0608 50.5755 57.2158C50.7828 57.6217 51.3093 57.9828 51.672 58.1954C51.804 58.2727 51.7793 58.47 51.6321 58.5116L50.6363 58.7937C50.5235 58.8256 50.439 58.9188 50.4179 59.0342C50.3967 59.1496 50.4432 59.2662 50.5375 59.3361C52.8294 61.0352 54.3136 58.666 54.3136 58.666C55.4391 56.9269 56.0212 54.9922 56.2337 53.386C55.1707 52.1042 53.7065 52.8043 53.0741 52.9885Z" fill="url(#paint49_linear_3_4967)"/>
<path d="M27.4788 34.2543C27.833 33.9576 29.1779 31.7027 31.3294 34.2536C31.5621 34.3752 32.164 34.0349 32.0876 33.7964C29.5698 30.1239 26.4342 33.5705 26.7417 33.9485C27.0491 34.3264 27.0667 34.5991 27.4788 34.2543Z" fill="white"/>
<path d="M33.6063 32.7248C34.0759 32.6696 34.5172 32.3494 34.3853 31.9386C34.2553 31.534 29.7739 26.2986 24.7822 32.2003C24.7211 32.2727 24.6912 32.3667 24.6993 32.4609C24.7074 32.5555 24.7533 32.6426 24.8261 32.7034C25.0532 32.8925 25.2469 33.0199 25.4982 32.9887C30.0657 27.8098 33.1366 32.7801 33.6063 32.7248Z" fill="white"/>
<path d="M35.9392 31.1609C36.2727 31.2279 36.9549 30.977 36.7787 30.429C28.8903 21.8461 21.8651 30.8421 22.1228 31.2048C22.3806 31.5675 22.9032 31.5811 23.1134 31.4589C29.3941 23.4025 35.6058 31.094 35.9392 31.1609Z" fill="white"/>
<path d="M30.4159 35.5653C30.4159 36.1425 29.9479 36.6101 29.371 36.6101C28.7938 36.6101 28.3262 36.1421 28.3262 35.5653C28.3262 34.9881 28.7938 34.5204 29.371 34.5204C29.9482 34.5204 30.4159 34.9881 30.4159 35.5653Z" fill="white"/>
<path d="M9.85282 18.1378C12.1941 18.1378 14.0921 16.2398 14.0921 13.8985C14.0921 11.5572 12.1941 9.65918 9.85282 9.65918C7.51152 9.65918 5.61353 11.5572 5.61353 13.8985C5.61353 16.2398 7.51152 18.1378 9.85282 18.1378Z" fill="url(#paint50_linear_3_4967)"/>
<path d="M9.85272 17.9972C12.1163 17.9972 13.9513 16.1622 13.9513 13.8986C13.9513 11.635 12.1163 9.80005 9.85272 9.80005C7.58914 9.80005 5.75415 11.635 5.75415 13.8986C5.75415 16.1622 7.58914 17.9972 9.85272 17.9972Z" fill="url(#paint51_linear_3_4967)"/>
<path opacity="0.78" d="M6.4731 12.3552C6.44905 12.3552 6.42468 12.3496 6.4016 12.3379C6.32295 12.2983 6.29175 12.2027 6.3314 12.1241C7.00643 10.7867 8.35583 9.95569 9.8531 9.95569C10.0923 9.95569 10.3315 9.97714 10.5642 10.0197C10.6507 10.0356 10.7082 10.1182 10.6923 10.205C10.6767 10.2914 10.5938 10.3486 10.507 10.333C10.2932 10.294 10.0731 10.2742 9.8531 10.2742C8.47673 10.2742 7.2362 11.0379 6.61578 12.2674C6.5875 12.3233 6.53128 12.3552 6.4731 12.3552Z" fill="white"/>
<path opacity="0.78" d="M12.3943 16.4403C13.7489 15.0857 13.7489 12.8894 12.3943 11.5348C11.0397 10.1802 8.84348 10.1802 7.48887 11.5348C6.13426 12.8894 6.13426 15.0857 7.48887 16.4403C8.84348 17.7949 11.0397 17.7949 12.3943 16.4403Z" fill="white"/>
<path d="M9.60157 16.5665V16.1892C9.20799 16.1736 8.81897 16.0806 8.54272 15.9597C8.44392 15.9165 8.39387 15.8057 8.42215 15.702L8.51802 15.3504C8.55312 15.2213 8.69352 15.1547 8.8167 15.2064C9.091 15.3214 9.42932 15.4121 9.7943 15.4121C10.1732 15.4121 10.4557 15.2837 10.4557 15.0202C10.4557 14.7826 10.2373 14.6412 9.71077 14.4998C8.95937 14.2944 8.41987 13.9668 8.41987 13.3051C8.41987 12.7078 8.85667 12.2518 9.61457 12.1299V11.7526C9.61457 11.6311 9.71305 11.5326 9.8346 11.5326H10.0562C10.1778 11.5326 10.2763 11.6311 10.2763 11.7526V12.0916C10.6403 12.1062 10.9051 12.1683 11.1157 12.2424C11.2236 12.2801 11.2825 12.3964 11.2526 12.5066L11.1645 12.8316C11.1304 12.9571 10.9965 13.0256 10.8749 12.9798C10.6812 12.9067 10.4076 12.8303 10.0517 12.8303C9.60222 12.8303 9.47384 13.0165 9.47384 13.1836C9.47384 13.389 9.7436 13.5304 10.3279 13.7104C11.1629 13.961 11.5096 14.3078 11.5096 14.9308C11.5096 15.5025 11.0858 16.0163 10.2636 16.1447V16.5672C10.2636 16.6887 10.1651 16.7872 10.0436 16.7872H9.82192C9.70005 16.7865 9.60157 16.6881 9.60157 16.5665Z" fill="url(#paint52_linear_3_4967)"/>
<path d="M23.0263 16.065C27.1023 16.065 30.4064 12.7608 30.4064 8.68491C30.4064 4.60899 27.1023 1.30481 23.0263 1.30481C18.9504 1.30481 15.6462 4.60899 15.6462 8.68491C15.6462 12.7608 18.9504 16.065 23.0263 16.065Z" fill="url(#paint53_linear_3_4967)"/>
<path d="M23.0263 15.8196C26.9667 15.8196 30.161 12.6253 30.161 8.68489C30.161 4.74449 26.9667 1.55017 23.0263 1.55017C19.0859 1.55017 15.8916 4.74449 15.8916 8.68489C15.8916 12.6253 19.0859 15.8196 23.0263 15.8196Z" fill="url(#paint54_linear_3_4967)"/>
<path opacity="0.78" d="M17.143 5.88052C17.119 5.88052 17.0946 5.875 17.0715 5.8633C16.9929 5.82365 16.9617 5.7281 17.0013 5.64945C18.1564 3.36113 20.4652 1.93958 23.0265 1.93958C23.435 1.93958 23.8445 1.9763 24.2433 2.0491C24.3297 2.06503 24.3873 2.14758 24.3713 2.23435C24.3557 2.3208 24.2729 2.37768 24.1861 2.3624C23.8062 2.29318 23.4158 2.25807 23.0265 2.25807C20.5858 2.25807 18.3862 3.61268 17.2854 5.7931C17.2571 5.84835 17.2012 5.88052 17.143 5.88052Z" fill="white"/>
<path opacity="0.78" d="M27.4513 13.1102C29.8095 10.752 29.8095 6.92867 27.4513 4.57051C25.0932 2.21235 21.2698 2.21235 18.9117 4.57051C16.5535 6.92867 16.5535 10.752 18.9117 13.1102C21.2698 15.4683 25.0932 15.4683 27.4513 13.1102Z" fill="white"/>
<path d="M22.5893 13.3295V12.6727C21.9045 12.6454 21.2269 12.4835 20.7459 12.2729C20.5739 12.1979 20.4865 12.0048 20.5359 11.8241L20.703 11.2121C20.7641 10.9876 21.0085 10.8715 21.223 10.9616C21.7004 11.1618 22.2896 11.32 22.925 11.32C23.5847 11.32 24.0765 11.0964 24.0765 10.6379C24.0765 10.2241 23.6962 9.9781 22.7794 9.7324C21.4713 9.37458 20.532 8.80453 20.532 7.65273C20.532 6.61273 21.2922 5.81908 22.6117 5.60653V4.94938C22.6117 4.7378 22.783 4.56653 22.9945 4.56653H23.3806C23.5922 4.56653 23.7635 4.7378 23.7635 4.94938V5.53925C24.3972 5.5646 24.8584 5.67283 25.2247 5.80153C25.4122 5.8675 25.5146 6.06933 25.4626 6.2614L25.3092 6.82723C25.25 7.04563 25.0167 7.1649 24.8051 7.08495C24.4681 6.95755 23.9916 6.82463 23.3722 6.82463C22.5896 6.82463 22.366 7.14898 22.366 7.43953C22.366 7.79735 22.8356 8.04338 23.8529 8.35635C25.3063 8.7925 25.9101 9.39603 25.9101 10.4806C25.9101 11.4757 25.1724 12.3701 23.7411 12.5937V13.3288C23.7411 13.5404 23.5698 13.7117 23.3582 13.7117H22.9721C22.7609 13.7123 22.5893 13.5411 22.5893 13.3295Z" fill="url(#paint55_linear_3_4967)"/>
<path d="M18.4972 29.7092C21.8228 29.7092 24.5188 27.0132 24.5188 23.6876C24.5188 20.362 21.8228 17.666 18.4972 17.666C15.1715 17.666 12.4756 20.362 12.4756 23.6876C12.4756 27.0132 15.1715 29.7092 18.4972 29.7092Z" fill="url(#paint56_linear_3_4967)"/>
<path d="M18.4972 29.5089C21.7122 29.5089 24.3186 26.9026 24.3186 23.6875C24.3186 20.4724 21.7122 17.8661 18.4972 17.8661C15.2821 17.8661 12.6758 20.4724 12.6758 23.6875C12.6758 26.9026 15.2821 29.5089 18.4972 29.5089Z" fill="url(#paint57_linear_3_4967)"/>
<path opacity="0.78" d="M13.6968 21.3957C13.6776 21.3957 13.6581 21.3915 13.6399 21.382C13.5775 21.3505 13.5528 21.2748 13.584 21.2124C14.5259 19.3466 16.4083 18.1876 18.4971 18.1876C18.8305 18.1876 19.164 18.2175 19.4893 18.2767C19.5579 18.2893 19.6034 18.355 19.591 18.4236C19.5787 18.4921 19.513 18.5373 19.4441 18.5253C19.1341 18.4687 18.8152 18.4401 18.4974 18.4401C16.5045 18.4401 14.7085 19.5461 13.8096 21.3265C13.7872 21.3703 13.743 21.3957 13.6968 21.3957Z" fill="white"/>
<path opacity="0.78" d="M22.1074 27.2986C24.0315 25.3745 24.0315 22.2549 22.1074 20.3308C20.1833 18.4067 17.0637 18.4067 15.1396 20.3308C13.2155 22.2549 13.2155 25.3745 15.1396 27.2986C17.0637 29.2227 20.1833 29.2227 22.1074 27.2986Z" fill="white"/>
<path d="M18.1406 27.4773V26.9414C17.582 26.919 17.0291 26.787 16.6365 26.6154C16.4965 26.554 16.425 26.3967 16.4653 26.2492L16.6014 25.75C16.6515 25.5667 16.8507 25.4721 17.0256 25.5456C17.4149 25.7087 17.8959 25.8381 18.4143 25.8381C18.9525 25.8381 19.3539 25.6557 19.3539 25.2817C19.3539 24.9443 19.0438 24.7435 18.2957 24.5429C17.2284 24.2511 16.462 23.7857 16.462 22.8461C16.462 21.9975 17.0824 21.3498 18.1588 21.1766V20.6403C18.1588 20.4678 18.2986 20.328 18.4712 20.328H18.7861C18.9587 20.328 19.0984 20.4678 19.0984 20.6403V21.1217C19.6155 21.1425 19.9918 21.2309 20.2905 21.3358C20.4436 21.3895 20.5271 21.5546 20.4849 21.7109L20.3597 22.1727C20.3113 22.3508 20.1212 22.4483 19.9486 22.383C19.6737 22.279 19.2846 22.1708 18.7793 22.1708C18.1406 22.1708 17.9583 22.4353 17.9583 22.6726C17.9583 22.9644 18.3415 23.1653 19.1715 23.4207C20.3575 23.7766 20.8502 24.269 20.8502 25.1539C20.8502 25.9658 20.2479 26.6957 19.0805 26.8781V27.478C19.0805 27.6506 18.9408 27.7903 18.7682 27.7903H18.4533C18.2804 27.7897 18.1406 27.6499 18.1406 27.4773Z" fill="url(#paint58_linear_3_4967)"/>
<defs>
<linearGradient id="paint0_linear_3_4967" x1="102.353" y1="117.858" x2="21.3805" y2="17.295" gradientUnits="userSpaceOnUse">
<stop stop-color="#DAE3FE"/>
<stop offset="1" stop-color="#E9EFFD"/>
</linearGradient>
<linearGradient id="paint1_linear_3_4967" x1="44.588" y1="48.8213" x2="45.682" y2="92.1446" gradientUnits="userSpaceOnUse">
<stop stop-color="#4F52FF"/>
<stop offset="1" stop-color="#4042E2"/>
</linearGradient>
<linearGradient id="paint2_linear_3_4967" x1="16.9356" y1="41.6481" x2="11.5205" y2="54.7757" gradientUnits="userSpaceOnUse">
<stop stop-color="#4F52FF"/>
<stop offset="1" stop-color="#4042E2"/>
</linearGradient>
<linearGradient id="paint3_linear_3_4967" x1="91.6168" y1="40.5811" x2="86.0375" y2="59.9443" gradientUnits="userSpaceOnUse">
<stop stop-color="#4F52FF"/>
<stop offset="1" stop-color="#4042E2"/>
</linearGradient>
<linearGradient id="paint4_linear_3_4967" x1="35.1285" y1="31.427" x2="20.0899" y2="69.9332" gradientUnits="userSpaceOnUse">
<stop stop-color="#09005D"/>
<stop offset="1" stop-color="#1A0F91"/>
</linearGradient>
<linearGradient id="paint5_linear_3_4967" x1="65.1288" y1="-82.7466" x2="48.9606" y2="-28.402" gradientUnits="userSpaceOnUse">
<stop stop-color="#5AB6FF"/>
<stop offset="1" stop-color="#2F68E3"/>
</linearGradient>
<linearGradient id="paint6_linear_3_4967" x1="56.267" y1="39.6686" x2="41.2289" y2="78.189" gradientUnits="userSpaceOnUse">
<stop stop-color="#09005D"/>
<stop offset="1" stop-color="#1A0F91"/>
</linearGradient>
<linearGradient id="paint7_linear_3_4967" x1="82.8688" y1="-77.4686" x2="66.7006" y2="-23.1243" gradientUnits="userSpaceOnUse">
<stop stop-color="#5AB6FF"/>
<stop offset="1" stop-color="#2F68E3"/>
</linearGradient>
<linearGradient id="paint8_linear_3_4967" x1="13.93" y1="73.084" x2="29.0449" y2="73.084" gradientUnits="userSpaceOnUse">
<stop stop-color="#09005D"/>
<stop offset="1" stop-color="#1A0F91"/>
</linearGradient>
<linearGradient id="paint9_linear_3_4967" x1="21.4874" y1="22.2301" x2="21.4874" y2="75.4049" gradientUnits="userSpaceOnUse">
<stop stop-color="#4F52FF"/>
<stop offset="1" stop-color="#4042E2"/>
</linearGradient>
<linearGradient id="paint10_linear_3_4967" x1="59.9833" y1="73.5638" x2="75.0982" y2="73.5638" gradientUnits="userSpaceOnUse">
<stop stop-color="#09005D"/>
<stop offset="1" stop-color="#1A0F91"/>
</linearGradient>
<linearGradient id="paint11_linear_3_4967" x1="66.122" y1="31.5355" x2="67.8724" y2="83.3921" gradientUnits="userSpaceOnUse">
<stop stop-color="#4F52FF"/>
<stop offset="1" stop-color="#4042E2"/>
</linearGradient>
<linearGradient id="paint12_linear_3_4967" x1="49.3659" y1="55.6302" x2="60.2629" y2="55.6302" gradientUnits="userSpaceOnUse">
<stop stop-color="#4F52FF"/>
<stop offset="1" stop-color="#4042E2"/>
</linearGradient>
<linearGradient id="paint13_linear_3_4967" x1="64.904" y1="13.1562" x2="91.9965" y2="44.0373" gradientUnits="userSpaceOnUse">
<stop stop-color="#09005D"/>
<stop offset="1" stop-color="#1A0F91"/>
</linearGradient>
<linearGradient id="paint14_linear_3_4967" x1="67.6184" y1="-10.9002" x2="77.4656" y2="59.0148" gradientUnits="userSpaceOnUse">
<stop stop-color="#FEBBBA"/>
<stop offset="1" stop-color="#FF928E"/>
</linearGradient>
<linearGradient id="paint15_linear_3_4967" x1="101.029" y1="-27.9306" x2="82.4306" y2="4.3431" gradientUnits="userSpaceOnUse">
<stop stop-color="#FF928E"/>
<stop offset="1" stop-color="#FE7062"/>
</linearGradient>
<linearGradient id="paint16_linear_3_4967" x1="65.3919" y1="25.3618" x2="61.4882" y2="41.4846" gradientUnits="userSpaceOnUse">
<stop stop-color="#4F52FF"/>
<stop offset="1" stop-color="#4042E2"/>
</linearGradient>
<linearGradient id="paint17_linear_3_4967" x1="72.3573" y1="14.6813" x2="76.7842" y2="-6.98742" gradientUnits="userSpaceOnUse">
<stop stop-color="#4F52FF"/>
<stop offset="1" stop-color="#4042E2"/>
</linearGradient>
<linearGradient id="paint18_linear_3_4967" x1="71.6685" y1="23.7574" x2="73.7653" y2="11.0991" gradientUnits="userSpaceOnUse">
<stop stop-color="#4F52FF"/>
<stop offset="1" stop-color="#4042E2"/>
</linearGradient>
<linearGradient id="paint19_linear_3_4967" x1="9.66654" y1="88.7049" x2="13.7961" y2="88.7049" gradientUnits="userSpaceOnUse">
<stop stop-color="#09005D"/>
<stop offset="1" stop-color="#1A0F91"/>
</linearGradient>
<linearGradient id="paint20_linear_3_4967" x1="20.0049" y1="83.8332" x2="4.98135" y2="95.6297" gradientUnits="userSpaceOnUse">
<stop stop-color="#4F52FF"/>
<stop offset="1" stop-color="#4042E2"/>
</linearGradient>
<linearGradient id="paint21_linear_3_4967" x1="10.8149" y1="84.0036" x2="10.0261" y2="90.8878" gradientUnits="userSpaceOnUse">
<stop stop-color="#FEBBBA"/>
<stop offset="1" stop-color="#FF928E"/>
</linearGradient>
<linearGradient id="paint22_linear_3_4967" x1="22.6736" y1="87.2272" x2="7.65003" y2="99.0237" gradientUnits="userSpaceOnUse">
<stop stop-color="#4F52FF"/>
<stop offset="1" stop-color="#4042E2"/>
</linearGradient>
<linearGradient id="paint23_linear_3_4967" x1="15.9548" y1="88.8099" x2="21.8993" y2="88.8099" gradientUnits="userSpaceOnUse">
<stop stop-color="#09005D"/>
<stop offset="1" stop-color="#1A0F91"/>
</linearGradient>
<linearGradient id="paint24_linear_3_4967" x1="17.1329" y1="84.7307" x2="16.7787" y2="91.6509" gradientUnits="userSpaceOnUse">
<stop stop-color="#FEBBBA"/>
<stop offset="1" stop-color="#FF928E"/>
</linearGradient>
<linearGradient id="paint25_linear_3_4967" x1="26.3137" y1="50.1573" x2="35.1022" y2="50.1573" gradientUnits="userSpaceOnUse">
<stop stop-color="#FEBBBA"/>
<stop offset="1" stop-color="#FF928E"/>
</linearGradient>
<linearGradient id="paint26_linear_3_4967" x1="31.7677" y1="41.7373" x2="17.9802" y2="48.5958" gradientUnits="userSpaceOnUse">
<stop stop-color="#FEBBBA"/>
<stop offset="1" stop-color="#FF928E"/>
</linearGradient>
<linearGradient id="paint27_linear_3_4967" x1="13.9619" y1="43.879" x2="15.794" y2="38.8761" gradientUnits="userSpaceOnUse">
<stop stop-color="#FEBBBA"/>
<stop offset="1" stop-color="#FF928E"/>
</linearGradient>
<linearGradient id="paint28_linear_3_4967" x1="23.0407" y1="49.6969" x2="9.42011" y2="73.3638" gradientUnits="userSpaceOnUse">
<stop stop-color="#FEBBBA"/>
<stop offset="1" stop-color="#FF928E"/>
</linearGradient>
<linearGradient id="paint29_linear_3_4967" x1="18.465" y1="36.3745" x2="7.54923" y2="45.0684" gradientUnits="userSpaceOnUse">
<stop stop-color="#FEBBBA"/>
<stop offset="1" stop-color="#FF928E"/>
</linearGradient>
<linearGradient id="paint30_linear_3_4967" x1="14.2508" y1="33.5144" x2="19.254" y2="39.9559" gradientUnits="userSpaceOnUse">
<stop stop-color="#09005D"/>
<stop offset="1" stop-color="#1A0F91"/>
</linearGradient>
<linearGradient id="paint31_linear_3_4967" x1="17.3662" y1="35.898" x2="11.9943" y2="40.0084" gradientUnits="userSpaceOnUse">
<stop stop-color="#FEBBBA"/>
<stop offset="1" stop-color="#FF928E"/>
</linearGradient>
<linearGradient id="paint32_linear_3_4967" x1="26.1547" y1="52.3793" x2="28.3204" y2="52.3793" gradientUnits="userSpaceOnUse">
<stop stop-color="#FEBBBA"/>
<stop offset="1" stop-color="#FF928E"/>
</linearGradient>
<linearGradient id="paint33_linear_3_4967" x1="45.0945" y1="42.9609" x2="46.9543" y2="30.5985" gradientUnits="userSpaceOnUse">
<stop stop-color="#FEBBBA"/>
<stop offset="1" stop-color="#FF928E"/>
</linearGradient>
<linearGradient id="paint34_linear_3_4967" x1="44.8687" y1="35.2939" x2="43.4614" y2="43.575" gradientUnits="userSpaceOnUse">
<stop stop-color="#FEBBBA"/>
<stop offset="1" stop-color="#FF928E"/>
</linearGradient>
<linearGradient id="paint35_linear_3_4967" x1="46.3484" y1="39.2136" x2="42.2012" y2="34.8081" gradientUnits="userSpaceOnUse">
<stop stop-color="#09005D"/>
<stop offset="1" stop-color="#1A0F91"/>
</linearGradient>
<linearGradient id="paint36_linear_3_4967" x1="46.0897" y1="44.3328" x2="46.34" y2="38.5176" gradientUnits="userSpaceOnUse">
<stop stop-color="#FEBBBA"/>
<stop offset="1" stop-color="#FF928E"/>
</linearGradient>
<linearGradient id="paint37_linear_3_4967" x1="41.0072" y1="117.554" x2="44.4352" y2="106.103" gradientUnits="userSpaceOnUse">
<stop stop-color="#09005D"/>
<stop offset="1" stop-color="#1A0F91"/>
</linearGradient>
<linearGradient id="paint38_linear_3_4967" x1="68.8549" y1="216.02" x2="67.3233" y2="206.174" gradientUnits="userSpaceOnUse">
<stop stop-color="#4F52FF"/>
<stop offset="1" stop-color="#4042E2"/>
</linearGradient>
<linearGradient id="paint39_linear_3_4967" x1="51.7239" y1="87.4047" x2="49.9507" y2="87.4047" gradientUnits="userSpaceOnUse">
<stop stop-color="#FEBBBA"/>
<stop offset="1" stop-color="#FF928E"/>
</linearGradient>
<linearGradient id="paint40_linear_3_4967" x1="54.2516" y1="121.519" x2="57.6796" y2="110.068" gradientUnits="userSpaceOnUse">
<stop stop-color="#09005D"/>
<stop offset="1" stop-color="#1A0F91"/>
</linearGradient>
<linearGradient id="paint41_linear_3_4967" x1="82.5656" y1="213.887" x2="81.034" y2="204.041" gradientUnits="userSpaceOnUse">
<stop stop-color="#4F52FF"/>
<stop offset="1" stop-color="#4042E2"/>
</linearGradient>
<linearGradient id="paint42_linear_3_4967" x1="62.9964" y1="85.9264" x2="60.8773" y2="85.9264" gradientUnits="userSpaceOnUse">
<stop stop-color="#FEBBBA"/>
<stop offset="1" stop-color="#FF928E"/>
</linearGradient>
<linearGradient id="paint43_linear_3_4967" x1="27.9051" y1="39.9843" x2="25.9201" y2="42.7849" gradientUnits="userSpaceOnUse">
<stop stop-color="#FEBBBA"/>
<stop offset="1" stop-color="#FF928E"/>
</linearGradient>
<linearGradient id="paint44_linear_3_4967" x1="30.18" y1="38.4299" x2="23.2275" y2="48.2391" gradientUnits="userSpaceOnUse">
<stop stop-color="#09005D"/>
<stop offset="1" stop-color="#1A0F91"/>
</linearGradient>
<linearGradient id="paint45_linear_3_4967" x1="40.1984" y1="34.0975" x2="35.1659" y2="37.0149" gradientUnits="userSpaceOnUse">
<stop stop-color="#FF928E"/>
<stop offset="1" stop-color="#FE7062"/>
</linearGradient>
<linearGradient id="paint46_linear_3_4967" x1="27.9459" y1="38.643" x2="27.8707" y2="39.1339" gradientUnits="userSpaceOnUse">
<stop stop-color="#8D55D1"/>
<stop offset="0.9964" stop-color="#1C2873"/>
</linearGradient>
<linearGradient id="paint47_linear_3_4967" x1="30.3374" y1="39.4478" x2="26.2286" y2="45.2448" gradientUnits="userSpaceOnUse">
<stop stop-color="#FEBBBA"/>
<stop offset="1" stop-color="#FF928E"/>
</linearGradient>
<linearGradient id="paint48_linear_3_4967" x1="51.4502" y1="58.8123" x2="55.6804" y2="48.5285" gradientUnits="userSpaceOnUse">
<stop stop-color="#020039"/>
<stop offset="1" stop-color="#090056"/>
</linearGradient>
<linearGradient id="paint49_linear_3_4967" x1="54.6352" y1="53.7092" x2="49.8978" y2="62.8196" gradientUnits="userSpaceOnUse">
<stop stop-color="#FEBBBA"/>
<stop offset="1" stop-color="#FF928E"/>
</linearGradient>
<linearGradient id="paint50_linear_3_4967" x1="33.4261" y1="-24.7071" x2="22.1035" y2="-6.16435" gradientUnits="userSpaceOnUse">
<stop stop-color="#FF928E"/>
<stop offset="1" stop-color="#FE7062"/>
</linearGradient>
<linearGradient id="paint51_linear_3_4967" x1="33.426" y1="-24.7069" x2="22.1034" y2="-6.16417" gradientUnits="userSpaceOnUse">
<stop stop-color="#FF928E"/>
<stop offset="1" stop-color="#FE7062"/>
</linearGradient>
<linearGradient id="paint52_linear_3_4967" x1="33.6049" y1="-24.5977" x2="22.2824" y2="-6.05501" gradientUnits="userSpaceOnUse">
<stop stop-color="#FF928E"/>
<stop offset="1" stop-color="#FE7062"/>
</linearGradient>
<linearGradient id="paint53_linear_3_4967" x1="40.703" y1="-20.2636" x2="29.3804" y2="-1.72087" gradientUnits="userSpaceOnUse">
<stop stop-color="#FF928E"/>
<stop offset="1" stop-color="#FE7062"/>
</linearGradient>
<linearGradient id="paint54_linear_3_4967" x1="40.703" y1="-20.2636" x2="29.3804" y2="-1.7209" gradientUnits="userSpaceOnUse">
<stop stop-color="#FF928E"/>
<stop offset="1" stop-color="#FE7062"/>
</linearGradient>
<linearGradient id="paint55_linear_3_4967" x1="26.0801" y1="-3.23037" x2="23.1627" y2="9.31443" gradientUnits="userSpaceOnUse">
<stop stop-color="#FF928E"/>
<stop offset="1" stop-color="#FE7062"/>
</linearGradient>
<linearGradient id="paint56_linear_3_4967" x1="44.0768" y1="-18.2034" x2="32.7543" y2="0.339309" gradientUnits="userSpaceOnUse">
<stop stop-color="#FF928E"/>
<stop offset="1" stop-color="#FE7062"/>
</linearGradient>
<linearGradient id="paint57_linear_3_4967" x1="44.0769" y1="-18.2036" x2="32.7543" y2="0.339199" gradientUnits="userSpaceOnUse">
<stop stop-color="#FF928E"/>
<stop offset="1" stop-color="#FE7062"/>
</linearGradient>
<linearGradient id="paint58_linear_3_4967" x1="44.3309" y1="-18.0483" x2="33.0083" y2="0.494402" gradientUnits="userSpaceOnUse">
<stop stop-color="#FF928E"/>
<stop offset="1" stop-color="#FE7062"/>
</linearGradient>
</defs>
</svg>
