<svg width="24" height="24" viewBox="0 0 24 24" fill="none" xmlns="http://www.w3.org/2000/svg">
<path fill-rule="evenodd" clip-rule="evenodd" d="M12.1326 5.87501L12.7452 5.22661C13.9555 3.94808 15.3789 3.32586 17.2541 5.09023C19.1378 6.87165 18.5923 8.32917 17.382 9.6077L16.7691 10.2564C16.6449 10.1423 16.4842 10.066 16.3035 10.0478C14.2979 9.84577 12.6856 8.32479 12.3761 6.33818C12.3474 6.15386 12.2585 5.99385 12.1326 5.87501ZM10.9008 7.17879L5.74737 12.6335C5.48314 12.9148 5.22743 13.4689 5.17629 13.8524L4.86092 16.614C4.75011 17.6113 5.46609 18.2932 6.45482 18.1227L9.19939 17.6539C9.58295 17.5857 10.1199 17.3044 10.3842 17.0146L15.5334 11.5644C13.2814 11.105 11.4795 9.40537 10.9008 7.17879Z" fill="white"/>
<path d="M4 20.9102H19.3423" stroke="white" stroke-width="1.61711" stroke-miterlimit="10" stroke-linecap="round" stroke-linejoin="round"/>
</svg>
