<svg width="40" height="40" viewBox="0 0 40 40" fill="none" xmlns="http://www.w3.org/2000/svg">
<rect width="40" height="40" rx="9" fill="#952D24"/>
<path d="M28.3336 15.4166H23.3336" stroke="white" stroke-width="1.2" stroke-miterlimit="10" stroke-linecap="round" stroke-linejoin="round"/>
<path d="M14.9997 15.4166H11.6664" stroke="white" stroke-width="1.2" stroke-miterlimit="10" stroke-linecap="round" stroke-linejoin="round"/>
<path d="M18.1167 17.8333C19.7275 17.8333 21.0333 16.5275 21.0333 14.9167C21.0333 13.3058 19.7275 12 18.1167 12C16.5058 12 15.2 13.3058 15.2 14.9167C15.2 16.5275 16.5058 17.8333 18.1167 17.8333Z" fill="white"/>
<path d="M28.3333 24.5834H25" stroke="white" stroke-width="1.2" stroke-miterlimit="10" stroke-linecap="round" stroke-linejoin="round"/>
<path d="M16.6664 24.5834H11.6664" stroke="white" stroke-width="1.2" stroke-miterlimit="10" stroke-linecap="round" stroke-linejoin="round"/>
<path d="M21.6667 27.5C23.2775 27.5 24.5833 26.1941 24.5833 24.5833C24.5833 22.9725 23.2775 21.6666 21.6667 21.6666C20.0558 21.6666 18.75 22.9725 18.75 24.5833C18.75 26.1941 20.0558 27.5 21.6667 27.5Z" fill="white"/>
</svg>
