<svg width="335" height="478" viewBox="0 0 335 478" fill="none" xmlns="http://www.w3.org/2000/svg">
<path d="M40 478L295 478C317.091 478 335 460.091 335 438L335 149.96C335 133.145 324.484 118.125 308.683 112.373L53.6831 19.5427C27.5935 10.0451 0 29.365 0 57.1296L0 438C0 460.091 17.9086 478 40 478Z" fill="white"/>
<path d="M147.573 373.224H151.253V375H145.333V363.832H147.573V373.224ZM157.893 375.144C157.039 375.144 156.271 374.957 155.589 374.584C154.906 374.2 154.367 373.661 153.973 372.968C153.589 372.275 153.397 371.475 153.397 370.568C153.397 369.661 153.594 368.861 153.989 368.168C154.394 367.475 154.943 366.941 155.637 366.568C156.33 366.184 157.103 365.992 157.957 365.992C158.81 365.992 159.583 366.184 160.277 366.568C160.97 366.941 161.514 367.475 161.909 368.168C162.314 368.861 162.517 369.661 162.517 370.568C162.517 371.475 162.309 372.275 161.893 372.968C161.487 373.661 160.933 374.2 160.229 374.584C159.535 374.957 158.757 375.144 157.893 375.144ZM157.893 373.192C158.298 373.192 158.677 373.096 159.029 372.904C159.391 372.701 159.679 372.403 159.893 372.008C160.106 371.613 160.213 371.133 160.213 370.568C160.213 369.725 159.989 369.08 159.541 368.632C159.103 368.173 158.565 367.944 157.925 367.944C157.285 367.944 156.746 368.173 156.309 368.632C155.882 369.08 155.669 369.725 155.669 370.568C155.669 371.411 155.877 372.061 156.293 372.52C156.719 372.968 157.253 373.192 157.893 373.192ZM168.912 365.992C169.573 365.992 170.155 366.125 170.656 366.392C171.157 366.648 171.552 366.984 171.84 367.4V366.136H174.096V375.064C174.096 375.885 173.931 376.616 173.6 377.256C173.269 377.907 172.773 378.419 172.112 378.792C171.451 379.176 170.651 379.368 169.712 379.368C168.453 379.368 167.419 379.075 166.608 378.488C165.808 377.901 165.355 377.101 165.248 376.088H167.472C167.589 376.493 167.84 376.813 168.224 377.048C168.619 377.293 169.093 377.416 169.648 377.416C170.299 377.416 170.827 377.219 171.232 376.824C171.637 376.44 171.84 375.853 171.84 375.064V373.688C171.552 374.104 171.152 374.451 170.64 374.728C170.139 375.005 169.563 375.144 168.912 375.144C168.165 375.144 167.483 374.952 166.864 374.568C166.245 374.184 165.755 373.645 165.392 372.952C165.04 372.248 164.864 371.443 164.864 370.536C164.864 369.64 165.04 368.845 165.392 368.152C165.755 367.459 166.24 366.925 166.848 366.552C167.467 366.179 168.155 365.992 168.912 365.992ZM171.84 370.568C171.84 370.024 171.733 369.56 171.52 369.176C171.307 368.781 171.019 368.483 170.656 368.28C170.293 368.067 169.904 367.96 169.488 367.96C169.072 367.96 168.688 368.061 168.336 368.264C167.984 368.467 167.696 368.765 167.472 369.16C167.259 369.544 167.152 370.003 167.152 370.536C167.152 371.069 167.259 371.539 167.472 371.944C167.696 372.339 167.984 372.643 168.336 372.856C168.699 373.069 169.083 373.176 169.488 373.176C169.904 373.176 170.293 373.075 170.656 372.872C171.019 372.659 171.307 372.36 171.52 371.976C171.733 371.581 171.84 371.112 171.84 370.568ZM178.7 365.08C178.305 365.08 177.974 364.957 177.708 364.712C177.452 364.456 177.324 364.141 177.324 363.768C177.324 363.395 177.452 363.085 177.708 362.84C177.974 362.584 178.305 362.456 178.7 362.456C179.094 362.456 179.42 362.584 179.676 362.84C179.942 363.085 180.076 363.395 180.076 363.768C180.076 364.141 179.942 364.456 179.676 364.712C179.42 364.957 179.094 365.08 178.7 365.08ZM179.804 366.136V375H177.564V366.136H179.804ZM188.209 366.008C189.265 366.008 190.118 366.344 190.769 367.016C191.419 367.677 191.745 368.605 191.745 369.8V375H189.505V370.104C189.505 369.4 189.329 368.861 188.977 368.488C188.625 368.104 188.145 367.912 187.537 367.912C186.918 367.912 186.427 368.104 186.065 368.488C185.713 368.861 185.537 369.4 185.537 370.104V375H183.297V366.136H185.537V367.24C185.835 366.856 186.214 366.557 186.673 366.344C187.142 366.12 187.654 366.008 188.209 366.008Z" fill="white"/>
</svg>
