<svg width="375" height="812" viewBox="0 0 375 812" fill="none" xmlns="http://www.w3.org/2000/svg">
<g clip-path="url(#clip0_1_6207)">
<rect width="375" height="812" fill="#952D24"/>
<path d="M60 716L315 716C337.091 716 355 698.091 355 676L355 387.96C355 371.145 344.484 356.125 328.683 350.373L73.6831 257.543C47.5935 248.045 20 267.365 20 295.13L20 676C20 698.091 37.9086 716 60 716Z" fill="white"/>
<path d="M167.573 611.224H171.253V613H165.333V601.832H167.573V611.224ZM177.893 613.144C177.039 613.144 176.271 612.957 175.589 612.584C174.906 612.2 174.367 611.661 173.973 610.968C173.589 610.275 173.397 609.475 173.397 608.568C173.397 607.661 173.594 606.861 173.989 606.168C174.394 605.475 174.943 604.941 175.637 604.568C176.33 604.184 177.103 603.992 177.957 603.992C178.81 603.992 179.583 604.184 180.277 604.568C180.97 604.941 181.514 605.475 181.909 606.168C182.314 606.861 182.517 607.661 182.517 608.568C182.517 609.475 182.309 610.275 181.893 610.968C181.487 611.661 180.933 612.2 180.229 612.584C179.535 612.957 178.757 613.144 177.893 613.144ZM177.893 611.192C178.298 611.192 178.677 611.096 179.029 610.904C179.391 610.701 179.679 610.403 179.893 610.008C180.106 609.613 180.213 609.133 180.213 608.568C180.213 607.725 179.989 607.08 179.541 606.632C179.103 606.173 178.565 605.944 177.925 605.944C177.285 605.944 176.746 606.173 176.309 606.632C175.882 607.08 175.669 607.725 175.669 608.568C175.669 609.411 175.877 610.061 176.293 610.52C176.719 610.968 177.253 611.192 177.893 611.192ZM188.912 603.992C189.573 603.992 190.155 604.125 190.656 604.392C191.157 604.648 191.552 604.984 191.84 605.4V604.136H194.096V613.064C194.096 613.885 193.931 614.616 193.6 615.256C193.269 615.907 192.773 616.419 192.112 616.792C191.451 617.176 190.651 617.368 189.712 617.368C188.453 617.368 187.419 617.075 186.608 616.488C185.808 615.901 185.355 615.101 185.248 614.088H187.472C187.589 614.493 187.84 614.813 188.224 615.048C188.619 615.293 189.093 615.416 189.648 615.416C190.299 615.416 190.827 615.219 191.232 614.824C191.637 614.44 191.84 613.853 191.84 613.064V611.688C191.552 612.104 191.152 612.451 190.64 612.728C190.139 613.005 189.563 613.144 188.912 613.144C188.165 613.144 187.483 612.952 186.864 612.568C186.245 612.184 185.755 611.645 185.392 610.952C185.04 610.248 184.864 609.443 184.864 608.536C184.864 607.64 185.04 606.845 185.392 606.152C185.755 605.459 186.24 604.925 186.848 604.552C187.467 604.179 188.155 603.992 188.912 603.992ZM191.84 608.568C191.84 608.024 191.733 607.56 191.52 607.176C191.307 606.781 191.019 606.483 190.656 606.28C190.293 606.067 189.904 605.96 189.488 605.96C189.072 605.96 188.688 606.061 188.336 606.264C187.984 606.467 187.696 606.765 187.472 607.16C187.259 607.544 187.152 608.003 187.152 608.536C187.152 609.069 187.259 609.539 187.472 609.944C187.696 610.339 187.984 610.643 188.336 610.856C188.699 611.069 189.083 611.176 189.488 611.176C189.904 611.176 190.293 611.075 190.656 610.872C191.019 610.659 191.307 610.36 191.52 609.976C191.733 609.581 191.84 609.112 191.84 608.568ZM198.7 603.08C198.305 603.08 197.974 602.957 197.708 602.712C197.452 602.456 197.324 602.141 197.324 601.768C197.324 601.395 197.452 601.085 197.708 600.84C197.974 600.584 198.305 600.456 198.7 600.456C199.094 600.456 199.42 600.584 199.676 600.84C199.942 601.085 200.076 601.395 200.076 601.768C200.076 602.141 199.942 602.456 199.676 602.712C199.42 602.957 199.094 603.08 198.7 603.08ZM199.804 604.136V613H197.564V604.136H199.804ZM208.209 604.008C209.265 604.008 210.118 604.344 210.769 605.016C211.419 605.677 211.745 606.605 211.745 607.8V613H209.505V608.104C209.505 607.4 209.329 606.861 208.977 606.488C208.625 606.104 208.145 605.912 207.537 605.912C206.918 605.912 206.427 606.104 206.065 606.488C205.713 606.861 205.537 607.4 205.537 608.104V613H203.297V604.136H205.537V605.24C205.835 604.856 206.214 604.557 206.673 604.344C207.142 604.12 207.654 604.008 208.209 604.008Z" fill="white"/>
<path d="M323.84 241.05V241.98H320.89V244.03H323.19V244.96H320.89V248H319.75V241.05H323.84ZM327.286 248.09C326.766 248.09 326.296 247.973 325.876 247.74C325.456 247.5 325.126 247.167 324.886 246.74C324.646 246.307 324.526 245.807 324.526 245.24C324.526 244.68 324.65 244.183 324.896 243.75C325.143 243.317 325.48 242.983 325.906 242.75C326.333 242.517 326.81 242.4 327.336 242.4C327.863 242.4 328.34 242.517 328.766 242.75C329.193 242.983 329.53 243.317 329.776 243.75C330.023 244.183 330.146 244.68 330.146 245.24C330.146 245.8 330.02 246.297 329.766 246.73C329.513 247.163 329.166 247.5 328.726 247.74C328.293 247.973 327.813 248.09 327.286 248.09ZM327.286 247.1C327.58 247.1 327.853 247.03 328.106 246.89C328.366 246.75 328.576 246.54 328.736 246.26C328.896 245.98 328.976 245.64 328.976 245.24C328.976 244.84 328.9 244.503 328.746 244.23C328.593 243.95 328.39 243.74 328.136 243.6C327.883 243.46 327.61 243.39 327.316 243.39C327.023 243.39 326.75 243.46 326.496 243.6C326.25 243.74 326.053 243.95 325.906 244.23C325.76 244.503 325.686 244.84 325.686 245.24C325.686 245.833 325.836 246.293 326.136 246.62C326.443 246.94 326.826 247.1 327.286 247.1ZM332.413 243.29C332.58 243.01 332.8 242.793 333.073 242.64C333.353 242.48 333.683 242.4 334.063 242.4V243.58H333.773C333.327 243.58 332.987 243.693 332.753 243.92C332.527 244.147 332.413 244.54 332.413 245.1V248H331.273V242.49H332.413V243.29ZM337.331 242.4C337.758 242.4 338.135 242.487 338.461 242.66C338.795 242.827 339.055 243.037 339.241 243.29V242.49H340.391V248.09C340.391 248.597 340.285 249.047 340.071 249.44C339.858 249.84 339.548 250.153 339.141 250.38C338.741 250.607 338.261 250.72 337.701 250.72C336.955 250.72 336.335 250.543 335.841 250.19C335.348 249.843 335.068 249.37 335.001 248.77H336.131C336.218 249.057 336.401 249.287 336.681 249.46C336.968 249.64 337.308 249.73 337.701 249.73C338.161 249.73 338.531 249.59 338.811 249.31C339.098 249.03 339.241 248.623 339.241 248.09V247.17C339.048 247.43 338.785 247.65 338.451 247.83C338.125 248.003 337.751 248.09 337.331 248.09C336.851 248.09 336.411 247.97 336.011 247.73C335.618 247.483 335.305 247.143 335.071 246.71C334.845 246.27 334.731 245.773 334.731 245.22C334.731 244.667 334.845 244.177 335.071 243.75C335.305 243.323 335.618 242.993 336.011 242.76C336.411 242.52 336.851 242.4 337.331 242.4ZM339.241 245.24C339.241 244.86 339.161 244.53 339.001 244.25C338.848 243.97 338.645 243.757 338.391 243.61C338.138 243.463 337.865 243.39 337.571 243.39C337.278 243.39 337.005 243.463 336.751 243.61C336.498 243.75 336.291 243.96 336.131 244.24C335.978 244.513 335.901 244.84 335.901 245.22C335.901 245.6 335.978 245.933 336.131 246.22C336.291 246.507 336.498 246.727 336.751 246.88C337.011 247.027 337.285 247.1 337.571 247.1C337.865 247.1 338.138 247.027 338.391 246.88C338.645 246.733 338.848 246.52 339.001 246.24C339.161 245.953 339.241 245.62 339.241 245.24ZM344.279 248.09C343.759 248.09 343.289 247.973 342.869 247.74C342.449 247.5 342.119 247.167 341.879 246.74C341.639 246.307 341.519 245.807 341.519 245.24C341.519 244.68 341.642 244.183 341.889 243.75C342.135 243.317 342.472 242.983 342.899 242.75C343.325 242.517 343.802 242.4 344.329 242.4C344.855 242.4 345.332 242.517 345.759 242.75C346.185 242.983 346.522 243.317 346.769 243.75C347.015 244.183 347.139 244.68 347.139 245.24C347.139 245.8 347.012 246.297 346.759 246.73C346.505 247.163 346.159 247.5 345.719 247.74C345.285 247.973 344.805 248.09 344.279 248.09ZM344.279 247.1C344.572 247.1 344.845 247.03 345.099 246.89C345.359 246.75 345.569 246.54 345.729 246.26C345.889 245.98 345.969 245.64 345.969 245.24C345.969 244.84 345.892 244.503 345.739 244.23C345.585 243.95 345.382 243.74 345.129 243.6C344.875 243.46 344.602 243.39 344.309 243.39C344.015 243.39 343.742 243.46 343.489 243.6C343.242 243.74 343.045 243.95 342.899 244.23C342.752 244.503 342.679 244.84 342.679 245.24C342.679 245.833 342.829 246.293 343.129 246.62C343.435 246.94 343.819 247.1 344.279 247.1ZM349.596 243.42V246.47C349.596 246.677 349.642 246.827 349.736 246.92C349.836 247.007 350.002 247.05 350.236 247.05H350.936V248H350.036C349.522 248 349.129 247.88 348.856 247.64C348.582 247.4 348.446 247.01 348.446 246.47V243.42H347.796V242.49H348.446V241.12H349.596V242.49H350.936V243.42H349.596ZM359.444 243.12C359.444 243.473 359.361 243.807 359.194 244.12C359.027 244.433 358.761 244.69 358.394 244.89C358.027 245.083 357.557 245.18 356.984 245.18H355.724V248H354.584V241.05H356.984C357.517 241.05 357.967 241.143 358.334 241.33C358.707 241.51 358.984 241.757 359.164 242.07C359.351 242.383 359.444 242.733 359.444 243.12ZM356.984 244.25C357.417 244.25 357.741 244.153 357.954 243.96C358.167 243.76 358.274 243.48 358.274 243.12C358.274 242.36 357.844 241.98 356.984 241.98H355.724V244.25H356.984ZM360.151 245.22C360.151 244.667 360.265 244.177 360.491 243.75C360.725 243.323 361.038 242.993 361.431 242.76C361.831 242.52 362.271 242.4 362.751 242.4C363.185 242.4 363.561 242.487 363.881 242.66C364.208 242.827 364.468 243.037 364.661 243.29V242.49H365.811V248H364.661V247.18C364.468 247.44 364.205 247.657 363.871 247.83C363.538 248.003 363.158 248.09 362.731 248.09C362.258 248.09 361.825 247.97 361.431 247.73C361.038 247.483 360.725 247.143 360.491 246.71C360.265 246.27 360.151 245.773 360.151 245.22ZM364.661 245.24C364.661 244.86 364.581 244.53 364.421 244.25C364.268 243.97 364.065 243.757 363.811 243.61C363.558 243.463 363.285 243.39 362.991 243.39C362.698 243.39 362.425 243.463 362.171 243.61C361.918 243.75 361.711 243.96 361.551 244.24C361.398 244.513 361.321 244.84 361.321 245.22C361.321 245.6 361.398 245.933 361.551 246.22C361.711 246.507 361.918 246.727 362.171 246.88C362.431 247.027 362.705 247.1 362.991 247.1C363.285 247.1 363.558 247.027 363.811 246.88C364.065 246.733 364.268 246.52 364.421 246.24C364.581 245.953 364.661 245.62 364.661 245.24ZM369.309 248.09C368.875 248.09 368.485 248.013 368.139 247.86C367.799 247.7 367.529 247.487 367.329 247.22C367.129 246.947 367.022 246.643 367.009 246.31H368.189C368.209 246.543 368.319 246.74 368.519 246.9C368.725 247.053 368.982 247.13 369.289 247.13C369.609 247.13 369.855 247.07 370.029 246.95C370.209 246.823 370.299 246.663 370.299 246.47C370.299 246.263 370.199 246.11 369.999 246.01C369.805 245.91 369.495 245.8 369.069 245.68C368.655 245.567 368.319 245.457 368.059 245.35C367.799 245.243 367.572 245.08 367.379 244.86C367.192 244.64 367.099 244.35 367.099 243.99C367.099 243.697 367.185 243.43 367.359 243.19C367.532 242.943 367.779 242.75 368.099 242.61C368.425 242.47 368.799 242.4 369.219 242.4C369.845 242.4 370.349 242.56 370.729 242.88C371.115 243.193 371.322 243.623 371.349 244.17H370.209C370.189 243.923 370.089 243.727 369.909 243.58C369.729 243.433 369.485 243.36 369.179 243.36C368.879 243.36 368.649 243.417 368.489 243.53C368.329 243.643 368.249 243.793 368.249 243.98C368.249 244.127 368.302 244.25 368.409 244.35C368.515 244.45 368.645 244.53 368.799 244.59C368.952 244.643 369.179 244.713 369.479 244.8C369.879 244.907 370.205 245.017 370.459 245.13C370.719 245.237 370.942 245.397 371.129 245.61C371.315 245.823 371.412 246.107 371.419 246.46C371.419 246.773 371.332 247.053 371.159 247.3C370.985 247.547 370.739 247.74 370.419 247.88C370.105 248.02 369.735 248.09 369.309 248.09ZM374.65 248.09C374.217 248.09 373.827 248.013 373.48 247.86C373.14 247.7 372.87 247.487 372.67 247.22C372.47 246.947 372.364 246.643 372.35 246.31H373.53C373.55 246.543 373.66 246.74 373.86 246.9C374.067 247.053 374.324 247.13 374.63 247.13C374.95 247.13 375.197 247.07 375.37 246.95C375.55 246.823 375.64 246.663 375.64 246.47C375.64 246.263 375.54 246.11 375.34 246.01C375.147 245.91 374.837 245.8 374.41 245.68C373.997 245.567 373.66 245.457 373.4 245.35C373.14 245.243 372.914 245.08 372.72 244.86C372.534 244.64 372.44 244.35 372.44 243.99C372.44 243.697 372.527 243.43 372.7 243.19C372.874 242.943 373.12 242.75 373.44 242.61C373.767 242.47 374.14 242.4 374.56 242.4C375.187 242.4 375.69 242.56 376.07 242.88C376.457 243.193 376.664 243.623 376.69 244.17H375.55C375.53 243.923 375.43 243.727 375.25 243.58C375.07 243.433 374.827 243.36 374.52 243.36C374.22 243.36 373.99 243.417 373.83 243.53C373.67 243.643 373.59 243.793 373.59 243.98C373.59 244.127 373.644 244.25 373.75 244.35C373.857 244.45 373.987 244.53 374.14 244.59C374.294 244.643 374.52 244.713 374.82 244.8C375.22 244.907 375.547 245.017 375.8 245.13C376.06 245.237 376.284 245.397 376.47 245.61C376.657 245.823 376.754 246.107 376.76 246.46C376.76 246.773 376.674 247.053 376.5 247.3C376.327 247.547 376.08 247.74 375.76 247.88C375.447 248.02 375.077 248.09 374.65 248.09ZM385.392 242.49L383.682 248H382.482L381.372 243.93L380.262 248H379.062L377.342 242.49H378.502L379.652 246.92L380.822 242.49H382.012L383.132 246.9L384.272 242.49H385.392ZM388.634 248.09C388.114 248.09 387.644 247.973 387.224 247.74C386.804 247.5 386.474 247.167 386.234 246.74C385.994 246.307 385.874 245.807 385.874 245.24C385.874 244.68 385.997 244.183 386.244 243.75C386.491 243.317 386.827 242.983 387.254 242.75C387.681 242.517 388.157 242.4 388.684 242.4C389.211 242.4 389.687 242.517 390.114 242.75C390.541 242.983 390.877 243.317 391.124 243.75C391.371 244.183 391.494 244.68 391.494 245.24C391.494 245.8 391.367 246.297 391.114 246.73C390.861 247.163 390.514 247.5 390.074 247.74C389.641 247.973 389.161 248.09 388.634 248.09ZM388.634 247.1C388.927 247.1 389.201 247.03 389.454 246.89C389.714 246.75 389.924 246.54 390.084 246.26C390.244 245.98 390.324 245.64 390.324 245.24C390.324 244.84 390.247 244.503 390.094 244.23C389.941 243.95 389.737 243.74 389.484 243.6C389.231 243.46 388.957 243.39 388.664 243.39C388.371 243.39 388.097 243.46 387.844 243.6C387.597 243.74 387.401 243.95 387.254 244.23C387.107 244.503 387.034 244.84 387.034 245.24C387.034 245.833 387.184 246.293 387.484 246.62C387.791 246.94 388.174 247.1 388.634 247.1ZM393.761 243.29C393.928 243.01 394.148 242.793 394.421 242.64C394.701 242.48 395.031 242.4 395.411 242.4V243.58H395.121C394.674 243.58 394.334 243.693 394.101 243.92C393.874 244.147 393.761 244.54 393.761 245.1V248H392.621V242.49H393.761V243.29ZM396.079 245.22C396.079 244.667 396.192 244.177 396.419 243.75C396.652 243.323 396.966 242.993 397.359 242.76C397.759 242.52 398.202 242.4 398.689 242.4C399.049 242.4 399.402 242.48 399.749 242.64C400.102 242.793 400.382 243 400.589 243.26V240.6H401.739V248H400.589V247.17C400.402 247.437 400.142 247.657 399.809 247.83C399.482 248.003 399.106 248.09 398.679 248.09C398.199 248.09 397.759 247.97 397.359 247.73C396.966 247.483 396.652 247.143 396.419 246.71C396.192 246.27 396.079 245.773 396.079 245.22ZM400.589 245.24C400.589 244.86 400.509 244.53 400.349 244.25C400.196 243.97 399.992 243.757 399.739 243.61C399.486 243.463 399.212 243.39 398.919 243.39C398.626 243.39 398.352 243.463 398.099 243.61C397.846 243.75 397.639 243.96 397.479 244.24C397.326 244.513 397.249 244.84 397.249 245.22C397.249 245.6 397.326 245.933 397.479 246.22C397.639 246.507 397.846 246.727 398.099 246.88C398.359 247.027 398.632 247.1 398.919 247.1C399.212 247.1 399.486 247.027 399.739 246.88C399.992 246.733 400.196 246.52 400.349 246.24C400.509 245.953 400.589 245.62 400.589 245.24ZM405.106 240.95C405.786 240.95 406.33 241.137 406.736 241.51C407.15 241.883 407.356 242.393 407.356 243.04C407.356 243.713 407.143 244.22 406.716 244.56C406.29 244.9 405.723 245.07 405.016 245.07L404.976 245.86H403.986L403.936 244.29H404.266C404.913 244.29 405.406 244.203 405.746 244.03C406.093 243.857 406.266 243.527 406.266 243.04C406.266 242.687 406.163 242.41 405.956 242.21C405.756 242.01 405.476 241.91 405.116 241.91C404.756 241.91 404.473 242.007 404.266 242.2C404.06 242.393 403.956 242.663 403.956 243.01H402.886C402.886 242.61 402.976 242.253 403.156 241.94C403.336 241.627 403.593 241.383 403.926 241.21C404.266 241.037 404.66 240.95 405.106 240.95ZM404.466 248.07C404.26 248.07 404.086 248 403.946 247.86C403.806 247.72 403.736 247.547 403.736 247.34C403.736 247.133 403.806 246.96 403.946 246.82C404.086 246.68 404.26 246.61 404.466 246.61C404.666 246.61 404.836 246.68 404.976 246.82C405.116 246.96 405.186 247.133 405.186 247.34C405.186 247.547 405.116 247.72 404.976 247.86C404.836 248 404.666 248.07 404.466 248.07Z" fill="#952D24"/>
</g>
<defs>
<clipPath id="clip0_1_6207">
<rect width="375" height="812" fill="white"/>
</clipPath>
</defs>
</svg>
