<svg width="15" height="23" viewBox="0 0 15 23" fill="#98E076" xmlns="http://www.w3.org/2000/svg">
<path fill-rule="evenodd" clip-rule="evenodd" d="M2.02444 0.785736C1.38014 0.87152 1.03306 0.96636 0.898614 1.09334L0.704286 1.27695L0.905193 1.35448C1.24217 1.48455 1.51697 2.27471 1.52165 3.12658C1.52384 3.53709 1.49056 3.97377 1.44775 4.09687C1.3749 4.30616 1.39559 4.32079 1.76517 4.32079C2.4765 4.32079 3.99899 4.10016 4.26541 3.95845C4.71432 3.7197 4.84667 3.3083 4.77068 2.38806C4.62908 0.672585 4.30278 0.482209 2.02444 0.785736ZM0.473629 1.76538C0.393056 2.21361 0.583475 3.57331 0.767886 3.86709C0.946195 4.15111 1.18753 4.26566 1.31893 4.12852C1.47197 3.9688 1.5102 2.98507 1.38462 2.43852C1.17018 1.50594 0.596538 1.082 0.473629 1.76538ZM3.65448 4.64422C3.70082 5.18659 3.86178 5.38224 3.86178 4.8962C3.86178 4.69816 3.83575 4.46529 3.8039 4.37871C3.69539 4.08344 3.61825 4.22038 3.65448 4.64422ZM2.16956 4.87301C2.21495 5.29347 2.29352 5.50594 2.36704 5.40722C2.44084 5.308 2.30754 4.42031 2.21877 4.42031C2.15869 4.42031 2.13962 4.59595 2.16956 4.87301ZM3.04642 5.4112C1.94243 5.56227 0.955539 5.73284 0.853322 5.79026C0.751104 5.84778 0.563451 6.01089 0.436346 6.1527C0.244498 6.36676 0.232674 6.41065 0.366834 6.41065C0.577754 6.41065 0.662521 6.64352 0.910151 7.90341C1.02314 8.47812 1.37108 10.1121 1.68346 11.5344C2.32756 14.4675 2.39965 15.3186 2.05543 15.9275C1.94758 16.1183 1.85938 16.2906 1.85938 16.3106C1.85938 16.4242 2.655 16.5904 3.1906 16.5887C3.67317 16.5871 4.22355 16.4569 5.6258 16.0126C8.06395 15.24 8.47092 15.0087 8.97666 14.1081C9.18749 13.7325 9.22439 13.5499 9.22162 12.8931C9.21733 11.8756 9.12637 11.5581 8.2948 9.6579C7.90843 8.77498 7.45837 7.67203 7.29475 7.20679C6.96168 6.26008 6.84049 6.03617 6.46099 5.66656C6.22442 5.43618 5.41535 5.1016 5.15552 5.12678C5.09955 5.13225 4.15041 5.26023 3.04642 5.4112ZM0.0368205 6.78384C-0.0388891 6.98805 -0.00160675 7.87893 0.183758 10.2918C0.320302 12.0707 0.478397 13.7937 0.535036 14.1208C0.68102 14.9649 1.11011 15.7961 1.57552 16.1364C1.74372 16.2593 1.77957 16.2411 1.95302 15.9441C2.29981 15.3506 2.22201 14.4207 1.5821 11.5105C1.2723 10.1013 0.921784 8.45573 0.803166 7.85365C0.684643 7.25157 0.546764 6.70303 0.496704 6.63457C0.345952 6.42837 0.144378 6.49375 0.0368205 6.78384ZM8.03706 15.1889C7.57928 15.4964 4.65902 16.4859 3.6972 16.6593C3.42316 16.7088 2.98339 16.7137 2.71984 16.6702C2.45638 16.6267 2.24079 16.6062 2.24079 16.6245C2.24079 16.762 2.8458 17.6339 3.01753 17.744C3.13558 17.8196 3.54693 17.9183 3.93148 17.9634C4.74875 18.059 5.2789 18.3284 6.17197 19.1021C7.03548 19.8502 7.32144 20.3154 7.3511 21.02C7.36426 21.3319 7.35625 21.4527 7.33336 21.2885C7.20769 20.386 7.17174 20.3009 6.69174 19.7703C6.0853 19.0998 5.16525 18.4025 4.62412 18.2032C4.40138 18.1212 4.01644 18.0542 3.76853 18.0542C3.17153 18.0542 2.76799 17.7625 2.3514 17.0296C2.17176 16.7137 2.0088 16.4718 1.98916 16.4923C1.96951 16.5127 2.1872 17.0667 2.47278 17.7233C3.26974 19.5553 3.26688 19.7802 2.45247 19.2932C2.20494 19.1452 2.06677 19.092 2.14544 19.1752C2.37457 19.4176 6.79853 22.2251 7.05846 22.2932C7.27091 22.3488 7.29446 22.3248 7.29446 22.0515C7.29446 21.8846 7.32841 21.7262 7.36988 21.6994C7.41136 21.6726 7.42814 21.8044 7.40717 21.9921C7.37265 22.3007 7.39191 22.3334 7.60788 22.3334C7.80946 22.3334 13.0232 20.1037 13.7925 19.6886C14.4049 19.358 14.662 17.9208 14.2288 17.2498C13.9455 16.811 12.0265 15.6314 11.2554 15.422C10.9428 15.3372 10.3833 15.2677 10.0121 15.2677C9.52542 15.2677 9.23287 15.2122 8.96312 15.0687C8.75735 14.9592 8.56598 14.8735 8.53776 14.8783C8.50944 14.8831 8.28412 15.0228 8.03706 15.1889ZM0.906146 15.6971C0.907195 16.0882 1.2292 17.6874 1.39464 18.1229C1.56741 18.5776 1.66763 18.6879 2.23145 19.0435C2.58377 19.2656 2.89882 19.4474 2.93152 19.4474C3.06111 19.4474 2.87641 18.8703 2.38611 17.7432C1.97915 16.8076 1.77128 16.459 1.38892 16.0702C1.12326 15.8001 0.905956 15.6322 0.906146 15.6971Z"/>
</svg>
