<svg width="35" height="11" viewBox="0 0 35 11" fill="none" xmlns="http://www.w3.org/2000/svg">
<path fill-rule="evenodd" clip-rule="evenodd" d="M11.3985 0.0312432C10.4025 0.109628 9.51528 0.28178 8.61969 0.570378C7.57575 0.906877 5.66081 1.67709 4.61076 2.18286C4.01111 2.47169 3.73597 2.57478 3.5645 2.57501C3.33591 2.57529 1.73021 2.7078 1.07553 2.78042C0.856781 2.80468 0.703801 2.85575 0.630676 2.92887C0.512986 3.04656 0.514174 3.18009 0.63882 3.84721C0.676938 4.05103 0.666645 4.31152 0.602059 4.78036C0.511515 5.4378 0.462369 5.56143 0.122872 5.98666C0.00891503 6.12941 -0.00426218 6.20581 0.000940838 6.6936C0.00744461 7.3084 0.121628 7.70683 0.43183 8.19733C0.656634 8.55283 0.661781 8.55633 1.03125 8.60248C1.23785 8.62833 1.34191 8.66922 1.36102 8.73211C1.44003 8.99265 1.43918 8.99243 2.40468 9.02387C3.07197 9.04559 3.4355 9.08404 3.70165 9.16113C4.0313 9.25654 4.09131 9.25942 4.25373 9.18754C4.43855 9.1057 4.45388 9.08071 4.51976 8.75331C4.58401 8.43406 4.69242 8.53926 4.76227 8.98858C4.89438 9.83826 5.35366 10.4963 6.0339 10.8105C6.36848 10.9651 6.42469 10.9731 7.17754 10.9729C7.92452 10.9728 7.98701 10.9641 8.28245 10.819C8.8795 10.5258 9.31989 10.0237 9.53208 9.39447C9.6168 9.14314 9.65039 9.10457 9.79755 9.08947C9.95437 9.07336 9.96863 9.08795 10.0047 9.30127C10.026 9.42727 10.0673 9.54508 10.0964 9.56312C10.1255 9.5811 13.4636 9.59405 17.5142 9.59185L24.8791 9.58789L24.9435 9.43412C24.9789 9.34957 25.0695 9.26389 25.145 9.2437C25.2693 9.2105 25.2919 9.2342 25.3848 9.49621C25.7245 10.4542 26.5674 11 27.7069 11C28.5091 11 29.1231 10.7504 29.5972 10.2317C29.8348 9.97173 30.167 9.39747 30.167 9.24664C30.167 9.21638 30.2942 9.19161 30.4497 9.19161C30.7228 9.19161 30.7325 9.1971 30.7325 9.35257V9.51352L31.777 9.54643C32.9013 9.58189 33.1193 9.5526 33.3828 9.33085C33.4738 9.25427 33.6171 9.19161 33.7012 9.19161C33.878 9.19161 34.1313 8.94786 34.3018 8.61357C34.4314 8.35952 34.6071 7.12924 34.5541 6.84675C34.516 6.64377 33.9784 5.74868 33.7503 5.50861C33.3675 5.10554 31.487 4.4654 29.5449 4.0771C28.6414 3.89641 25.6153 3.3877 25.1336 3.33544C24.7948 3.29874 24.6574 3.23331 23.3804 2.50064C21.7675 1.57518 19.74 0.530733 19.3064 0.402015C18.8202 0.257575 18.0963 0.149838 17.1877 0.0865536C16.0283 0.00585022 12.1876 -0.0308537 11.3985 0.0312432ZM9.01557 0.596506C9.01557 0.662392 8.99334 0.672176 8.11069 0.993519C7.75299 1.12371 6.75028 1.53503 5.8825 1.90744C4.14102 2.65481 3.46881 2.85733 4.50421 2.32266C5.27822 1.92299 6.93408 1.22732 8.02586 0.84314C8.92276 0.527509 9.01557 0.504379 9.01557 0.596506ZM14.7122 0.666012C14.7628 0.731049 15.2372 3.1733 15.2368 3.36649C15.2366 3.44165 14.9203 3.43984 12.454 3.35037C10.9235 3.29484 9.66295 3.24094 9.65265 3.23065C9.64236 3.22035 9.87514 2.68043 10.17 2.03084L10.706 0.849814L11.1192 0.778668C11.8611 0.650912 12.4195 0.610475 13.5472 0.60284C14.3756 0.597241 14.6711 0.613246 14.7122 0.666012ZM16.7918 0.715214C17.969 0.813167 18.6372 0.995272 19.6195 1.486C20.0947 1.72336 21.401 2.54498 21.401 2.60646C21.401 2.62167 21.3371 2.65837 21.259 2.68812C20.9429 2.8083 20.9574 3.3342 21.2845 3.60939L21.4485 3.74744L21.2127 3.72624C21.083 3.71459 19.8194 3.65271 18.4047 3.58869C16.99 3.52467 15.8298 3.46755 15.8264 3.46179C15.7749 3.37435 15.1375 0.674891 15.1598 0.638865C15.1902 0.589663 15.4014 0.59956 16.7918 0.715214ZM20.6185 1.08067C22.1892 1.86729 24.8508 3.3942 24.8508 3.50856C24.8508 3.65435 24.3124 3.73472 24.022 3.63224C23.9024 3.59005 23.2192 3.17392 22.5038 2.70752C21.7884 2.24117 20.8341 1.64842 20.383 1.39036C19.3123 0.777707 19.2992 0.769167 19.3383 0.705939C19.4282 0.560424 19.7928 0.667143 20.6185 1.08067ZM10.4715 0.920507C10.4599 0.943864 10.2122 1.4783 9.92118 2.10815L9.39205 3.25338L8.87865 3.2501C8.01365 3.24462 7.95421 3.22273 7.73523 2.82917C7.50121 2.40846 7.49759 2.26865 7.71538 2.06523C7.96264 1.8342 8.84087 1.4153 9.67533 1.13027C10.4379 0.869778 10.5057 0.851963 10.4715 0.920507ZM32.3702 5.37633C32.8552 5.42202 33.0452 5.50929 33.2951 5.80117C33.5147 6.05781 33.5581 6.2178 33.422 6.27C33.3771 6.28725 33.0781 6.28635 32.7575 6.26808L32.1747 6.23477L31.9484 5.95381C31.5519 5.46127 31.5156 5.40568 31.552 5.34681C31.5716 5.31508 31.6816 5.301 31.7963 5.31547C31.9111 5.33001 32.1693 5.35738 32.3702 5.37633ZM28.7507 5.83482C29.9907 6.18274 30.7325 7.25207 30.7325 8.69167V9.13506H30.4856H30.2386L30.2119 8.58037C30.1791 7.89934 30.0272 7.52625 29.5975 7.07195C29.0706 6.51483 28.5574 6.30733 27.7067 6.30733C27.1193 6.30733 26.7844 6.39827 26.3446 6.67725C25.6663 7.10741 25.1749 8.1143 25.2624 8.8947C25.2818 9.06764 25.2688 9.13506 25.2161 9.13506C25.1758 9.13506 25.1027 9.15044 25.0536 9.16933C24.9753 9.19936 24.9685 9.14914 24.9983 8.75931C25.135 6.97252 25.8836 5.99611 27.311 5.74325C27.6703 5.67957 28.3519 5.72295 28.7507 5.83482ZM33.8289 5.9878C34.1038 6.25083 34.1229 6.30733 33.9366 6.30733C33.7921 6.30733 33.7028 6.22187 33.5084 5.89731C33.394 5.70632 33.3917 5.68885 33.485 5.72154C33.5419 5.7415 33.6967 5.86128 33.8289 5.9878ZM7.90535 5.94018C9.12449 6.25773 9.86134 7.19563 9.95997 8.55537L9.99379 9.02195H9.81576C9.64412 9.02195 9.63761 9.01324 9.63671 8.78159C9.63529 8.4348 9.496 7.82814 9.35388 7.54949C8.76967 6.40443 7.19095 5.9641 5.94494 6.59881C5.34393 6.90488 4.92961 7.51403 4.74864 8.35743C4.72658 8.46013 4.67913 8.51296 4.60889 8.51296C4.52796 8.51296 4.48623 8.58065 4.43465 8.79573C4.32923 9.23516 4.24287 9.15044 4.28806 8.65197C4.41491 7.25207 5.14775 6.24088 6.25033 5.94442C6.6547 5.83566 7.49583 5.83352 7.90535 5.94018ZM33.9798 7.81208C34.0955 7.85647 34.0932 8.0064 33.9731 8.25829C33.8582 8.4991 33.6743 8.56363 33.475 8.43305C33.3119 8.32621 33.2964 8.19597 33.4249 8.01251C33.5566 7.82441 33.7912 7.73969 33.9798 7.81208Z" fill="white"/>
</svg>
