<svg width="38" height="16" viewBox="0 0 38 16" fill="none" xmlns="http://www.w3.org/2000/svg">
<path opacity="0.4" fill-rule="evenodd" clip-rule="evenodd" d="M22.1682 0.0041982C22.1954 0.00898883 22.2978 0.022513 22.3958 0.0342628C23.0603 0.113949 23.5281 0.364343 24.3058 1.05666C24.4092 1.14872 24.8857 1.57907 25.3647 2.01301C25.8437 2.44692 26.4895 3.03181 26.7997 3.31277C27.7531 4.17608 27.9122 4.32292 28.0836 4.49788C28.413 4.83402 28.7273 5.0214 29.1555 5.13695C29.2804 5.17064 29.4473 5.18314 30.2239 5.21689C30.7301 5.23889 31.3313 5.26586 31.5599 5.2768C31.7885 5.28773 32.3719 5.31436 32.8564 5.33595C33.3408 5.35753 34.0391 5.38868 34.4082 5.40514C35.1539 5.4384 35.3342 5.46454 35.6209 5.58098C36.2263 5.82684 36.7701 6.39134 37.1602 7.17923C37.439 7.74212 37.4817 7.9441 37.4576 8.58389C37.4447 8.92639 37.4458 8.94364 37.4808 8.94299C37.5011 8.9426 37.6022 8.93016 37.7057 8.91533C37.9363 8.88223 37.989 8.89794 37.9996 9.00296C38.0034 9.04083 37.982 9.5021 37.9521 10.028L37.8978 10.9841L37.6306 11.4425C37.3787 11.8745 37.3592 11.902 37.292 11.9203C37.2528 11.9309 36.8238 12.0716 36.3388 12.2329L35.4568 12.5261L35.4569 12.1297C35.4571 11.5547 35.4008 11.1856 35.238 10.6945C35.1888 10.546 35.0918 10.3084 35.0225 10.1664C34.914 9.94451 34.8158 9.78926 34.4704 9.29373C34.4382 9.24758 34.3135 9.11187 34.1933 8.99216C33.7608 8.56148 33.0904 8.13334 32.5595 7.94863C31.5205 7.58721 30.331 7.61246 29.3851 8.01602C28.7425 8.29023 28.4313 8.49096 27.9858 8.91874C27.6043 9.28508 27.3303 9.65185 27.0959 10.1098C26.8663 10.5584 26.7574 10.9076 26.6574 11.5164C26.6152 11.7731 26.6279 12.4857 26.6799 12.7855C26.7032 12.9196 26.7167 13.035 26.71 13.0418C26.7032 13.0486 26.5937 13.0614 26.4666 13.0702C26.2341 13.0864 18.155 13.099 14.57 13.0888L12.6426 13.0833L12.6552 13.0096C12.7273 12.5899 12.7351 12.5007 12.7351 12.098C12.7351 11.7864 12.7256 11.6115 12.6989 11.4376C12.5968 10.7702 12.3777 10.2086 12.0029 9.6534C11.6078 9.0683 11.3439 8.81041 10.6882 8.36891C9.81673 7.7821 8.55873 7.55633 7.41954 7.78228C7.04805 7.85597 6.79028 7.94924 6.28428 8.19299C5.87921 8.38815 5.57679 8.60895 5.20478 8.98114C4.49784 9.68848 4.09359 10.4889 3.94935 11.4671C3.91545 11.697 3.90425 12.4 3.9315 12.5881C3.94357 12.6714 3.94253 12.6736 3.89684 12.6603C3.78976 12.6291 3.3564 12.4096 3.15516 12.2846C2.62439 11.9551 2.43151 11.7692 1.81179 10.9901L1.73335 10.8915L1.71001 10.0014C1.69135 9.28926 1.69167 9.10337 1.71154 9.07183C1.7252 9.05014 1.84003 8.96732 1.96671 8.88779L2.19702 8.74319L2.19716 8.55264C2.19724 8.44784 2.20165 8.3 2.20695 8.2241L2.21662 8.0861L2.17054 8.25367C2.11341 8.46135 2.07605 8.53425 1.99846 8.58927C1.88942 8.66659 1.82563 8.66082 1.33603 8.52932C1.08564 8.46206 0.724918 8.36532 0.534409 8.31436C0.343903 8.26337 0.163033 8.20533 0.132454 8.18536C0.0667229 8.14244 0 8.02112 0 7.94453C0 7.91458 0.0897217 7.55716 0.199375 7.15023C0.309025 6.74331 0.459732 6.18414 0.534271 5.90765C0.608791 5.63115 0.742474 5.13435 0.831303 4.80364C1.02106 4.09726 1.20432 3.41654 1.41718 2.62739C1.58134 2.01874 1.60424 1.96731 1.73527 1.91278C1.77082 1.89799 1.82129 1.88589 1.84746 1.88589C1.88249 1.88589 3.2449 2.23939 3.48497 2.31078C3.54491 2.3286 3.64175 2.44296 3.66277 2.52074C3.68583 2.606 3.66794 2.68649 3.44475 3.50226C3.38988 3.70274 3.34513 3.87573 3.34527 3.88669C3.34541 3.89766 3.38234 3.84009 3.42731 3.75877C3.66214 3.33414 4.56966 1.76524 4.69335 1.57008C5.15754 0.837688 5.54132 0.492369 6.08219 0.320399C6.36586 0.230186 6.57602 0.195232 6.98487 0.170253C7.16562 0.159213 9.25966 0.128124 11.6383 0.101174C14.0169 0.0742241 16.6533 0.0431541 17.497 0.0321534C19.3084 0.00851568 22.0977 -0.00818251 22.1682 0.0041982ZM18.2096 3.22648V5.45421H21.5051C23.3176 5.45421 24.8073 5.45644 24.8155 5.45914C24.8236 5.46184 24.8351 5.39753 24.841 5.31621C24.8548 5.12664 24.922 4.99721 25.0971 4.82317C25.273 4.64827 25.5771 4.49591 25.8645 4.43872C25.8999 4.43168 25.9288 4.42224 25.9288 4.41774C25.9288 4.41017 24.1738 2.67362 23.1963 1.71404C22.7903 1.31549 22.762 1.29193 22.5969 1.21489C22.3856 1.11621 22.1053 1.04315 21.8527 1.02086C21.7486 1.01167 20.8863 1.00294 19.9365 1.00144L18.2096 0.998736V3.22648ZM11.2523 3.24619V5.46407H14.3004H17.3486L17.3536 3.24272C17.3583 1.17469 17.3563 1.02093 17.3253 1.01498C17.307 1.01147 15.9331 1.01303 14.2722 1.01845L11.2523 1.02831V3.24619ZM6.86532 1.09165C6.67968 1.14368 6.4998 1.23267 6.42926 1.30739C6.37093 1.36913 6.3716 1.36748 5.6797 3.14762C5.26806 4.20666 5.20089 4.3943 5.20154 4.48318C5.20324 4.71439 5.33055 4.91479 5.5378 5.01247C5.84454 5.15704 6.40812 5.31749 6.83848 5.38275C7.32998 5.45729 7.50723 5.46407 8.96623 5.46407H10.4012L10.4062 3.25019L10.4113 1.03633L8.71395 1.04278C7.04716 1.04913 7.01388 1.05001 6.86532 1.09165ZM2.95578 5.75096C2.80221 6.25295 2.62722 7.14645 2.58342 7.65238C2.57685 7.72828 2.56675 7.82047 2.56097 7.85722L2.55046 7.92405L2.78444 7.9137C3.05441 7.90173 3.11284 7.88401 3.16529 7.79809C3.27184 7.62358 3.38567 6.41254 3.32702 6.07723C3.29064 5.86913 3.19805 5.72487 3.06791 5.67352C2.99684 5.64548 2.98569 5.65317 2.95578 5.75096ZM34.8999 5.89623C34.8536 5.91575 34.7924 5.95928 34.764 5.99297C34.7169 6.04873 34.7131 6.06582 34.7216 6.18302C34.7383 6.41151 34.89 6.68592 35.1496 6.95713C35.3103 7.12498 35.4331 7.19733 35.6076 7.22688C35.6675 7.23704 35.9688 7.25105 36.2773 7.25803L36.8381 7.27075L36.7435 7.08699C36.5193 6.65148 36.2179 6.25713 35.8979 5.98087C35.8276 5.92021 35.754 5.87532 35.7099 5.86617C35.6699 5.85789 35.4903 5.85329 35.3107 5.85596C35.0486 5.85982 34.9675 5.86777 34.8999 5.89623ZM19.1574 6.27321C18.9317 6.30509 18.8033 6.35087 18.8033 6.39949C18.8033 6.44126 18.8678 6.47188 19.0389 6.51135C19.244 6.55868 20.0768 6.57112 20.3632 6.53114C20.5827 6.50052 20.7628 6.44236 20.7628 6.40213C20.7628 6.37074 20.6592 6.32457 20.5129 6.29078C20.23 6.22543 19.5574 6.21671 19.1574 6.27321ZM11.9952 6.29196C11.8384 6.32707 11.7372 6.36966 11.7372 6.40057C11.7372 6.51523 12.4243 6.60055 13.0227 6.5602C13.537 6.52552 13.7778 6.4526 13.6706 6.36398C13.636 6.33543 13.444 6.28741 13.2712 6.26415C13.0451 6.23369 12.1703 6.25277 11.9952 6.29196ZM31.4115 8.23725C33.0051 8.38675 34.3453 9.48449 34.7848 11.0003C34.9448 11.5522 34.9816 12.0077 34.9133 12.5909C34.7911 13.6339 34.2674 14.5455 33.4106 15.207C32.6632 15.7839 31.6439 16.0747 30.6961 15.9813C29.7628 15.8893 28.9925 15.5444 28.3517 14.9316C27.9828 14.5788 27.7479 14.2607 27.5331 13.823C27.098 12.9364 27.0168 11.8533 27.3158 10.9237C27.3999 10.6622 27.5925 10.2512 27.7356 10.028C28.5344 8.7819 29.9365 8.09886 31.4115 8.23725ZM8.59016 8.22643C9.7379 8.3307 10.6408 8.79373 11.3518 9.64268C11.9256 10.3279 12.2657 11.3343 12.2242 12.2242C12.1759 13.2607 11.8188 14.11 11.1347 14.8155C10.5136 15.4561 9.70268 15.8558 8.79122 15.9707C8.48508 16.0093 8.21548 16.0097 7.89342 15.9722C7.02671 15.8712 6.34983 15.571 5.70929 15.0033C5.04668 14.4161 4.62523 13.6387 4.45988 12.6984C4.4188 12.465 4.41477 11.8077 4.45283 11.5559C4.5 11.2438 4.60343 10.8611 4.69531 10.6588C5.00444 9.97824 5.28253 9.58498 5.72746 9.19916C6.3168 8.68814 6.94695 8.39217 7.71955 8.26351C7.90516 8.2326 8.41772 8.21078 8.59016 8.22643ZM37.6579 9.49228C37.5693 9.76351 37.5674 10.3127 37.6547 10.3997C37.6783 10.4232 37.6865 10.4189 37.7111 10.3705C37.7739 10.2471 37.7947 10.0978 37.7947 9.77169C37.7947 9.53849 37.7873 9.43349 37.7686 9.40076C37.7339 9.3401 37.698 9.36981 37.6579 9.49228ZM30.6989 9.38665C30.0884 9.46951 29.5961 9.70484 29.1464 10.1288C28.6575 10.5897 28.3707 11.1843 28.3038 11.8752C28.2524 12.4054 28.377 12.9793 28.6452 13.4484C29.0557 14.1664 29.7312 14.6491 30.553 14.8118C30.7717 14.8551 31.2966 14.8601 31.5006 14.8209C31.8154 14.7604 32.0352 14.6864 32.3113 14.5479C33.0423 14.1812 33.5944 13.4455 33.7602 12.6173C33.809 12.3735 33.8092 11.8365 33.7605 11.6051C33.627 10.9701 33.3064 10.4161 32.8493 10.0308C32.2351 9.51294 31.4661 9.28257 30.6989 9.38665ZM7.83802 9.40569C7.00128 9.55282 6.2515 10.1168 5.85944 10.8939C5.74937 11.1121 5.65385 11.4081 5.61121 11.6631C5.56033 11.9675 5.57794 12.4646 5.64965 12.748C5.70503 12.9668 5.81112 13.2491 5.89396 13.398C6.30779 14.1419 7.00587 14.6509 7.83268 14.8115C8.08084 14.8597 8.55861 14.8596 8.81778 14.8113C9.40795 14.7013 9.95431 14.4039 10.351 13.9766C10.689 13.6126 10.9198 13.1642 11.0342 12.6496C11.0858 12.4171 11.0959 11.9542 11.0549 11.6939C10.918 10.8252 10.3757 10.0706 9.6056 9.67732C9.28465 9.51341 8.953 9.41478 8.57037 9.3694C8.44268 9.35426 8.00801 9.3758 7.83802 9.40569ZM31.1217 9.63008L31.198 9.63631L31.1861 9.73851C31.1796 9.79472 31.1602 10.0004 31.1431 10.1956C31.0608 11.1324 31.0551 11.1794 31.0278 11.1501C31.0205 11.1423 30.8994 9.64802 30.9054 9.63954C30.9118 9.63038 31.0509 9.62429 31.1217 9.63008ZM8.42687 9.62829C8.45135 9.63276 8.47146 9.6469 8.47154 9.65971C8.47184 9.71399 8.34971 11.0672 8.34063 11.1102C8.33508 11.1365 8.32341 11.1496 8.31432 11.1398C8.29603 11.12 8.1827 9.65837 8.19826 9.6429C8.21231 9.62888 8.3738 9.61857 8.42687 9.62829ZM31.6742 9.70375C32.1914 9.84513 32.6577 10.1429 32.9738 10.5336C33.0949 10.6832 33.2147 10.8632 33.2424 10.9369C33.255 10.9704 33.2379 10.9793 32.8948 11.119C32.8029 11.1564 32.5321 11.2678 32.2929 11.3665C32.0538 11.4652 31.8529 11.546 31.8466 11.546C31.8402 11.546 31.7837 11.4965 31.7211 11.436C31.6493 11.3668 31.5526 11.3003 31.4599 11.2565L31.3127 11.1869L31.3226 11.1151C31.328 11.0756 31.3595 10.738 31.3926 10.3648C31.4257 9.9917 31.4573 9.67899 31.463 9.66991C31.476 9.64887 31.4696 9.64784 31.6742 9.70375ZM30.6479 9.73711C30.662 9.84659 30.7591 11.1102 30.7574 11.1616C30.7564 11.1905 30.7188 11.2187 30.616 11.2676C30.5227 11.312 30.4374 11.3731 30.3607 11.4508L30.2454 11.5674L29.5419 11.2684C29.155 11.104 28.8384 10.9636 28.8384 10.9565C28.8384 10.927 29.0753 10.5818 29.1644 10.4814C29.4794 10.1266 29.8588 9.88156 30.3036 9.74565C30.6559 9.63803 30.6352 9.63854 30.6479 9.73711ZM8.94158 9.70318C9.54127 9.85532 10.0653 10.226 10.4133 10.7441C10.4784 10.8411 10.5291 10.9336 10.5259 10.9497C10.5223 10.9677 10.2638 11.0848 9.85691 11.2528C9.49222 11.4034 9.17449 11.5318 9.15085 11.5381C9.11772 11.5469 9.09047 11.5302 9.0321 11.4655C8.94392 11.3678 8.75256 11.2389 8.66836 11.2205C8.61662 11.2092 8.60995 11.1995 8.60993 11.1354C8.60989 11.0038 8.73182 9.68325 8.74524 9.66985C8.75248 9.66261 8.84084 9.67761 8.94158 9.70318ZM7.92537 9.6975C7.93519 9.74585 8.00874 10.6832 8.02788 11.0038L8.03964 11.201L7.90275 11.264C7.80875 11.3072 7.72855 11.3646 7.64682 11.447L7.52781 11.567L6.82124 11.2669C6.32228 11.055 6.1176 10.9592 6.1247 10.9408C6.1673 10.8302 6.39312 10.5381 6.57994 10.3519C6.94223 9.99084 7.31155 9.79314 7.86233 9.66539C7.9075 9.65492 7.91779 9.66015 7.92537 9.6975ZM33.3804 11.2334C33.425 11.3558 33.4502 11.4366 33.4502 11.4576C33.4502 11.4733 33.3536 11.5049 33.1879 11.5433C32.3649 11.7344 31.9739 11.8179 31.9611 11.8053C31.9531 11.7975 32.2515 11.6654 32.6241 11.5117C33.4477 11.1721 33.3686 11.2012 33.3804 11.2334ZM29.4124 11.4941C29.7771 11.6491 30.0925 11.7822 30.1134 11.7898C30.136 11.798 30.144 11.8106 30.1332 11.821C30.1226 11.8311 30.0487 11.8217 29.9567 11.7987C29.8696 11.7769 29.5405 11.6975 29.2254 11.6224C28.9103 11.5472 28.6489 11.4821 28.6445 11.4777C28.6326 11.4659 28.7205 11.2107 28.7361 11.2115C28.7434 11.2119 29.0477 11.339 29.4124 11.4941ZM10.7025 11.34L10.7447 11.4692L10.7016 11.4854C10.6779 11.4942 10.3557 11.5698 9.98557 11.6532C9.61544 11.7366 9.29596 11.8096 9.27563 11.8155C9.25267 11.8221 9.24157 11.8174 9.24634 11.8031C9.25275 11.784 10.6087 11.2109 10.6476 11.2109C10.6546 11.2109 10.6793 11.269 10.7025 11.34ZM6.72572 11.5062C7.09915 11.6663 7.40363 11.8051 7.40234 11.8146C7.40104 11.8241 7.38498 11.829 7.36663 11.8254C7.28376 11.8094 5.9285 11.4841 5.92333 11.4789C5.90773 11.4634 6.00207 11.2111 6.02281 11.2129C6.03599 11.214 6.35228 11.346 6.72572 11.5062ZM31.2136 11.4349C31.3511 11.4758 31.3953 11.4973 31.4803 11.565C31.8355 11.8477 31.831 12.3844 31.4711 12.6578C31.198 12.8652 30.8299 12.8469 30.5753 12.6131C30.1318 12.2059 30.3913 11.4688 30.9958 11.419C31.0765 11.4124 31.1577 11.4183 31.2136 11.4349ZM8.50784 11.4368C8.82231 11.5126 9.04476 11.8266 9.02076 12.1608C9.00217 12.4195 8.85386 12.6307 8.60995 12.7457C8.45351 12.8195 8.21286 12.8194 8.05337 12.7455C7.83803 12.6458 7.69747 12.4731 7.65239 12.2528C7.57593 11.8795 7.79044 11.5339 8.15938 11.4361C8.28481 11.4028 8.36751 11.403 8.50784 11.4368ZM30.8868 11.7405C30.6893 11.8298 30.5909 12.0621 30.6703 12.2514C30.7726 12.4954 31.0693 12.5871 31.2794 12.4397C31.3989 12.3558 31.4559 12.2353 31.4469 12.0853C31.4374 11.928 31.3683 11.8237 31.2272 11.7537C31.108 11.6945 30.9979 11.6902 30.8868 11.7405ZM8.15287 11.7496C7.96899 11.8462 7.88804 12.0328 7.9459 12.2267C8.01274 12.4506 8.26981 12.5717 8.4866 12.4815C8.77807 12.3602 8.81861 11.9541 8.55677 11.7785C8.4598 11.7134 8.44052 11.7071 8.33101 11.7053C8.27159 11.7042 8.2099 11.7196 8.15287 11.7496ZM33.524 11.7974C33.5324 11.8272 33.5385 11.9802 33.5376 12.1374C33.5362 12.3709 33.5265 12.4635 33.4848 12.6427C33.3845 13.0729 33.2174 13.403 32.9297 13.7392C32.8763 13.8015 32.8248 13.8477 32.8152 13.8418C32.8015 13.8334 32.3201 13.2743 31.8693 12.7432L31.8224 12.688L31.8835 12.5738C31.9525 12.4448 32.0053 12.2634 32.0053 12.155V12.0823L32.1587 12.0489C32.243 12.0305 32.4189 11.9899 32.5496 11.9588C32.8474 11.8877 33.4829 11.7431 33.4977 11.7431C33.5038 11.7431 33.5156 11.7675 33.524 11.7974ZM28.9967 11.832C29.1872 11.8782 29.5077 11.9555 29.7089 12.0036L30.0747 12.091L30.0993 12.2375C30.1146 12.3287 30.152 12.4395 30.1986 12.5317C30.2398 12.613 30.276 12.6852 30.2792 12.6921C30.2824 12.699 30.2734 12.7167 30.2591 12.7315C30.2245 12.7673 29.7301 13.3327 29.4817 13.6205C29.3728 13.7466 29.2748 13.8476 29.2639 13.8449C29.22 13.8342 28.9363 13.444 28.8423 13.265C28.6498 12.8982 28.5599 12.5383 28.5584 12.1276C28.5573 11.8411 28.5727 11.7422 28.6179 11.7455C28.6358 11.7468 28.8062 11.7857 28.9967 11.832ZM10.8141 11.8643C10.8594 12.2969 10.7792 12.7587 10.5893 13.157C10.4816 13.3831 10.2941 13.6668 10.1779 13.7796L10.1008 13.8544L9.84523 13.5549C9.7047 13.3902 9.47954 13.1274 9.34488 12.971L9.10007 12.6865L9.15268 12.5903C9.23034 12.4481 9.28291 12.2815 9.28291 12.1774V12.0855L10.0203 11.9143C10.4259 11.8202 10.7676 11.7431 10.7796 11.7431C10.7917 11.7431 10.807 11.797 10.8141 11.8643ZM6.07645 11.784C6.15809 11.8045 6.47874 11.8823 6.789 11.957L7.3531 12.0927L7.36891 12.1791C7.39816 12.3389 7.44539 12.4817 7.50337 12.5856C7.53502 12.6424 7.56092 12.6932 7.56092 12.6985C7.56092 12.7038 7.40284 12.8882 7.2096 13.1083C7.01636 13.3284 6.79147 13.5863 6.70982 13.6814L6.56138 13.8543L6.45788 13.7446C6.1728 13.4422 5.94888 12.9765 5.86989 12.5219C5.83828 12.3399 5.82911 11.9974 5.85152 11.8346C5.86603 11.7291 5.86189 11.7301 6.07645 11.784ZM31.1452 12.0084C31.2045 12.0675 31.2072 12.1349 31.1527 12.2038C31.0463 12.3385 30.8456 12.1949 30.9254 12.0411C30.9747 11.9462 31.0687 11.9322 31.1452 12.0084ZM8.41925 12.0009C8.53323 12.0902 8.44632 12.2751 8.30348 12.2471C8.22965 12.2327 8.1942 12.1877 8.1946 12.109C8.19495 12.0377 8.20906 12.0132 8.26722 11.9827C8.32854 11.9505 8.35977 11.9543 8.41925 12.0009ZM31.6907 12.9309C31.7191 12.9662 31.9395 13.2249 32.1806 13.5059C32.4216 13.7869 32.6189 14.0234 32.6189 14.0314C32.6189 14.0494 32.4278 14.1877 32.403 14.1877C32.3878 14.1877 32.2756 14.0135 32.1121 13.736C32.0892 13.6971 31.9667 13.4928 31.8399 13.282C31.7131 13.0712 31.6094 12.8916 31.6094 12.8828C31.6094 12.8502 31.6406 12.8687 31.6907 12.9309ZM9.09488 13.076C9.19286 13.191 9.28228 13.2953 9.2936 13.3076C9.47766 13.5089 9.89664 14.0198 9.89111 14.0363C9.88209 14.0632 9.71686 14.1846 9.68669 14.1864C9.66826 14.1875 8.88705 12.909 8.88705 12.8777C8.88705 12.8428 8.93575 12.8892 9.09488 13.076ZM30.501 12.896C30.501 12.9012 30.3929 13.0808 30.2607 13.2952C30.1286 13.5096 29.9578 13.787 29.8812 13.9117C29.6936 14.2174 29.7072 14.2056 29.6162 14.1414C29.4494 14.0237 29.4519 14.0489 29.5912 13.888C30.2944 13.0757 30.501 12.8504 30.501 12.896ZM7.77281 12.9127C7.76726 12.9271 7.65375 13.1156 7.52052 13.3317C7.38732 13.5477 7.21498 13.8283 7.13757 13.9552C7.06016 14.0821 6.98938 14.1864 6.98027 14.1869C6.95541 14.1882 6.74919 14.0419 6.75461 14.0267C6.76558 13.996 7.74876 12.8866 7.76501 12.8866C7.77485 12.8866 7.77835 12.8984 7.77281 12.9127ZM31.3933 13.041C31.4042 13.0591 31.581 13.3533 31.7864 13.6949C32.0669 14.1614 32.1541 14.3214 32.137 14.3382C32.1244 14.3504 32.0425 14.3875 31.955 14.4206C31.4401 14.6153 30.9242 14.6459 30.4206 14.5117C30.1691 14.4446 29.9432 14.3485 29.9507 14.3116C29.954 14.2954 30.1304 13.9991 30.3427 13.6529C30.7261 13.0278 30.729 13.0238 30.788 13.0338C30.9729 13.0652 31.1502 13.0669 31.259 13.0383C31.3645 13.0106 31.3752 13.0108 31.3933 13.041ZM8.66672 13.0322C8.70591 13.081 9.44512 14.3284 9.43851 14.3345C9.40769 14.3627 9.099 14.4754 8.94643 14.5141C8.43653 14.6436 7.92238 14.6135 7.43227 14.4254C7.20898 14.3398 7.20748 14.3385 7.24657 14.2719C7.29552 14.1885 7.47035 13.9041 7.74567 13.4601C7.88292 13.2387 7.99839 13.0481 8.00229 13.0365C8.00725 13.0216 8.04459 13.0226 8.12778 13.0397C8.27949 13.0709 8.39348 13.0701 8.53551 13.0368C8.61864 13.0173 8.65381 13.016 8.66672 13.0322Z" fill="#001D4C"/>
</svg>
