<svg width="33" height="16" viewBox="0 0 33 16" fill="none" xmlns="http://www.w3.org/2000/svg">
<path d="M0.490051 6.86826C0.535728 6.31728 0.586994 5.69377 0.687073 5.15573C0.756569 4.77943 0.909386 4.27835 1.42605 4.27835C1.47781 4.27835 1.52966 4.28345 1.58083 4.28874C1.61278 4.29178 1.64474 4.29609 1.69708 4.29707C1.69816 4.29707 1.71492 4.2808 1.73619 4.21895C1.88793 3.78442 2.52437 3.24394 3.34049 2.58288C3.54154 2.42066 3.78218 2.2253 3.88471 2.12454C3.84707 1.8642 3.85266 1.54445 4.0339 1.3241C4.1181 1.22128 4.2765 1.09846 4.54958 1.09846C4.58967 1.09846 4.63231 1.10091 4.7272 1.10934C4.92422 1.10934 5.31905 1.02837 5.86571 0.915355C7.27525 0.626096 9.89887 0.0870792 13.8329 0.00229124C19.5611 -0.111119 24.0623 4.02252 24.2478 4.1966L24.3806 4.31991C24.6158 4.43361 25.3587 4.70543 27.6295 5.15181C30.8502 5.78601 31.4646 6.81209 31.5807 7.20888C31.8378 7.4008 32.2542 7.85856 32.3201 8.39709C32.3732 8.82651 32.4933 9.00217 32.4933 9.00168L32.5488 9.07333V12.1045L32.5426 12.1598C32.368 12.9648 31.5337 13.3907 30.1301 13.3907C29.6824 13.3907 29.3466 13.345 29.3596 13.345C29.3401 13.3439 29.167 13.341 28.8671 13.3348C28.8977 13.25 28.9257 13.1642 28.9498 13.0764C28.9731 12.9917 28.9945 12.9064 29.011 12.8191C29.0506 12.6135 29.0728 12.4018 29.0728 12.1846C29.0728 10.3218 27.5573 8.80622 25.6945 8.80622C23.8317 8.80622 22.3161 10.3218 22.3161 12.1846C22.3161 12.3531 22.3326 12.5165 22.3562 12.6784C22.3692 12.7663 22.3842 12.8535 22.404 12.9388C22.4243 13.0271 22.4455 13.1144 22.4725 13.2002C18.2539 13.1098 12.8859 12.9905 8.7284 12.886C8.74673 12.8008 8.7584 12.7144 8.77006 12.6271C8.78173 12.5408 8.78839 12.4546 8.7929 12.3673C8.79594 12.3063 8.80202 12.2466 8.80202 12.1846C8.80202 10.3218 7.28642 8.80622 5.42373 8.80622C3.58731 8.80622 2.09102 10.2802 2.04937 12.1075C2.04937 12.1329 2.04535 12.1586 2.04535 12.1846C2.04535 12.2501 2.05143 12.314 2.05554 12.379C2.06064 12.4713 2.06976 12.5632 2.08191 12.6535C1.28814 12.5226 0.691191 12.1043 0.34557 11.4278C-0.245693 10.271 0.0557213 8.70477 0.267937 8.37219C0.382523 8.19222 0.439377 7.48873 0.490051 6.86826Z" fill="#242E42"/>
<path d="M28.3165 13.3227C27.8761 14.3347 26.8689 15.0427 25.6949 15.0427C24.4787 15.0427 23.4429 14.2819 23.0297 13.212C22.997 13.1267 22.9678 13.0394 22.9429 12.9501C22.919 12.8648 22.8992 12.7775 22.883 12.6891C22.8541 12.5253 22.8358 12.3567 22.8358 12.1842C22.8358 10.6052 24.1154 9.32556 25.6944 9.32556C27.2734 9.32556 28.553 10.6052 28.553 12.1842C28.553 12.3984 28.5276 12.6069 28.4827 12.8079C28.4637 12.8953 28.4408 12.9811 28.4132 13.0648C28.385 13.1532 28.3527 13.2384 28.3165 13.3227Z" fill="#242E42"/>
<path d="M8.19682 12.8719C7.88825 14.1175 6.76543 15.0427 5.4245 15.0427C4.02261 15.0427 2.85871 14.0322 2.61513 12.7008C2.59944 12.6145 2.58729 12.5277 2.57866 12.4389C2.57102 12.3547 2.56592 12.2704 2.56592 12.1841C2.56592 12.1821 2.56592 12.18 2.56592 12.1775C2.56896 10.6021 3.84803 9.32544 5.4245 9.32544C7.00303 9.32544 8.28308 10.6051 8.28308 12.1841C8.28308 12.2415 8.27749 12.2972 8.27446 12.3541C8.26936 12.4419 8.26073 12.5281 8.2476 12.6134C8.23436 12.7009 8.21711 12.7871 8.19682 12.8719Z" fill="#242E42"/>
</svg>
